<?xml version="1.0" standalone="no"?>
<!DOCTYPE svg PUBLIC "-//W3C//DTD SVG 20010904//EN"
 "http://www.w3.org/TR/2001/REC-SVG-20010904/DTD/svg10.dtd">
<svg version="1.0" xmlns="http://www.w3.org/2000/svg"
 width="1283.000000pt" height="1140.000000pt" viewBox="0 0 1283.000000 1140.000000"
 preserveAspectRatio="xMidYMid meet">
<metadata>
Created by potrace 1.16, written by Peter Selinger 2001-2019
</metadata>
<g transform="translate(0.000000,1140.000000) scale(0.100000,-0.100000)"
fill="#000000" stroke="none">
<path d="M8365 10910 c-4 -6 6 -10 22 -10 38 -1 68 -27 92 -80 l20 -45 -2 37
c-1 21 -6 38 -12 38 -5 0 -3 5 5 10 29 18 109 -15 136 -55 9 -14 22 -42 30
-63 l13 -37 1 31 c0 28 -19 63 -57 102 -20 20 -83 43 -112 41 -14 -2 -42 7
-61 19 -38 24 -65 28 -75 12z"/>
<path d="M8173 10893 c-22 -8 -14 -20 10 -16 27 5 43 -11 64 -64 l14 -38 -5
40 c-4 26 -14 48 -31 63 -27 23 -31 24 -52 15z"/>
<path d="M7935 10864 c62 -13 116 -30 165 -51 45 -19 51 -20 31 -4 -34 26
-140 61 -181 60 -19 -1 -26 -3 -15 -5z"/>
<path d="M7960 10790 c12 -23 25 -27 16 -5 -8 23 7 18 63 -19 28 -19 51 -30
51 -25 0 17 21 9 47 -18 29 -32 76 -121 98 -188 17 -49 23 -165 11 -205 -7
-24 -6 -24 8 -6 31 39 16 184 -30 281 -45 98 -110 173 -131 152 -2 -3 -26 8
-51 24 -25 16 -56 29 -69 29 -21 0 -22 -3 -13 -20z"/>
<path d="M8368 10784 c28 -14 52 -32 52 -40 0 -9 4 -13 10 -9 5 3 7 12 4 19
-7 17 -77 56 -100 56 -11 -1 5 -12 34 -26z"/>
<path d="M7494 10791 c5 -7 14 -10 22 -7 21 8 121 -17 179 -45 l50 -23 -60 -6
c-72 -8 -70 -10 13 -15 40 -3 76 -11 98 -24 19 -11 34 -16 34 -11 0 5 -14 17
-31 25 -16 9 -39 25 -51 37 -32 32 -122 67 -194 74 -52 5 -65 4 -60 -5z"/>
<path d="M7750 10790 c0 -5 17 -12 38 -15 86 -14 137 -32 141 -50 2 -15 -1
-17 -20 -11 -74 23 -161 38 -155 27 3 -5 27 -11 53 -15 27 -3 72 -17 101 -31
30 -14 65 -25 78 -25 53 0 113 -81 158 -215 22 -63 38 -91 30 -50 -26 130
-120 275 -178 275 -43 0 -64 16 -59 44 6 30 -9 39 -97 55 -36 7 -71 15 -77 17
-7 2 -13 -1 -13 -6z"/>
<path d="M8810 10750 c0 -5 14 -11 30 -15 51 -11 85 -33 133 -84 44 -47 82
-110 98 -161 l7 -25 1 24 c1 33 -57 139 -101 183 -20 20 -52 45 -70 54 -40 21
-98 35 -98 24z"/>
<path d="M7194 10739 c-4 -8 0 -9 14 -4 36 11 86 -21 123 -80 18 -29 35 -52
37 -51 8 9 -33 80 -63 111 -27 26 -44 35 -70 35 -18 0 -37 -5 -41 -11z"/>
<path d="M7390 10740 c0 -5 12 -10 28 -10 36 0 71 -25 88 -64 13 -30 13 -30
14 -5 0 26 -27 57 -67 78 -27 14 -63 14 -63 1z"/>
<path d="M7510 10739 c0 -5 11 -9 24 -9 31 0 76 -36 76 -61 0 -11 4 -18 9 -15
11 7 5 34 -13 58 -14 19 -96 42 -96 27z"/>
<path d="M8273 10718 c2 -7 9 -12 15 -11 19 4 60 -56 76 -111 10 -32 16 -95
17 -153 0 -108 17 -105 18 4 2 116 -32 221 -85 262 -30 24 -48 27 -41 9z"/>
<path d="M7110 10701 c78 -21 133 -48 125 -61 -4 -6 -1 -10 5 -10 6 0 10 8 8
17 -5 25 -84 61 -148 67 l-55 5 65 -18z"/>
<path d="M8460 10709 c0 -5 4 -8 9 -5 25 16 104 -154 130 -282 16 -77 13 -303
-4 -418 -9 -54 -20 -124 -25 -154 -12 -76 -56 -291 -66 -315 -4 -13 -4 -17 3
-10 14 14 34 97 74 305 69 364 65 558 -16 752 -33 79 -74 138 -95 138 -6 0
-10 -5 -10 -11z"/>
<path d="M8720 10712 c0 -5 11 -19 24 -31 61 -58 91 -210 80 -411 -17 -322
-89 -608 -214 -856 -38 -77 -61 -128 -50 -114 31 40 135 259 163 340 77 229
111 442 112 700 0 188 -1 197 -26 257 -33 78 -89 150 -89 115z"/>
<path d="M6980 10681 c0 -5 15 -14 33 -22 17 -7 51 -26 75 -41 23 -16 42 -25
42 -20 0 12 -67 56 -114 76 -20 8 -36 11 -36 7z"/>
<path d="M8823 10678 c2 -7 10 -13 18 -13 7 0 29 -28 48 -62 37 -68 53 -78 25
-16 -25 55 -63 103 -80 103 -9 0 -14 -6 -11 -12z"/>
<path d="M9035 10660 c3 -5 17 -10 30 -10 29 0 72 -50 80 -94 4 -18 5 -69 3
-114 -4 -95 13 -96 20 -1 7 93 -12 162 -54 198 -32 28 -94 44 -79 21z"/>
<path d="M6747 10633 c-16 -15 -5 -21 21 -11 35 13 116 2 137 -18 13 -13 15
-14 15 -1 0 8 -14 20 -31 26 -35 12 -132 15 -142 4z"/>
<path d="M7790 10631 c0 -4 11 -6 24 -4 34 7 99 -54 115 -107 12 -40 25 -51
34 -27 8 23 75 -24 110 -77 40 -61 50 -86 133 -324 96 -278 126 -433 105 -546
-14 -73 -7 -86 8 -16 18 84 10 191 -25 336 -21 87 -142 440 -171 499 -51 101
-108 152 -159 142 -20 -3 -24 0 -24 19 0 14 -17 42 -43 69 -34 35 -51 45 -75
45 -18 0 -32 -4 -32 -9z"/>
<path d="M8662 10613 c29 -56 43 -105 56 -193 12 -87 13 -127 3 -235 -6 -71
-16 -152 -21 -180 -68 -346 -121 -518 -192 -617 -10 -15 -16 -28 -12 -28 10 0
32 30 53 75 75 159 106 261 150 490 5 28 15 79 23 115 17 87 17 410 0 465 -22
67 -45 115 -54 115 -5 0 -8 -3 -6 -7z"/>
<path d="M7600 10599 c0 -3 25 -9 55 -11 36 -3 66 -13 85 -27 17 -12 30 -17
30 -12 0 20 -51 43 -110 50 -33 4 -60 4 -60 0z"/>
<path d="M6565 10580 c3 -4 23 -10 46 -13 49 -6 95 -37 92 -62 -1 -12 2 -14 9
-7 14 14 4 38 -25 57 -25 16 -130 38 -122 25z"/>
<path d="M6790 10563 c0 -6 10 -8 23 -6 13 3 47 0 76 -5 34 -6 49 -6 43 0 -14
14 -142 23 -142 11z"/>
<path d="M7190 10561 c0 -5 9 -7 20 -4 23 6 81 -28 110 -64 11 -14 20 -22 20
-17 0 18 -30 53 -64 73 -34 21 -86 28 -86 12z"/>
<path d="M6430 10549 c0 -5 8 -9 18 -9 9 0 43 -14 75 -29 32 -16 53 -23 46
-15 -23 27 -139 72 -139 53z"/>
<path d="M7325 10550 c-4 -6 5 -7 24 -4 30 6 118 -16 176 -44 27 -13 28 -13
15 1 -35 35 -200 72 -215 47z"/>
<path d="M7065 10530 c3 -5 22 -10 41 -10 47 0 85 -21 128 -72 20 -23 36 -37
36 -31 0 24 -80 100 -118 111 -48 15 -95 16 -87 2z"/>
<path d="M7620 10508 c0 -17 3 -20 9 -9 13 20 68 -16 131 -87 143 -161 240
-492 240 -826 0 -82 3 -116 10 -106 14 21 12 122 -5 280 -15 150 -25 204 -53
300 -64 213 -161 371 -271 442 -54 34 -61 35 -61 6z"/>
<path d="M9277 10476 c23 -26 49 -72 63 -112 21 -59 24 -87 24 -189 0 -66 -6
-145 -13 -175 -35 -154 -45 -190 -67 -251 -28 -77 -63 -142 -99 -184 -22 -24
-28 -27 -35 -15 -8 13 -10 13 -10 -1 0 -23 11 -30 27 -17 7 6 16 8 20 5 6 -7
-26 -39 -107 -108 -25 -22 -39 -39 -31 -39 8 0 69 55 135 123 183 184 237 296
305 625 17 84 13 181 -9 230 -19 42 -40 56 -40 26 0 -8 4 -13 9 -10 17 11 36
-60 35 -134 -2 -125 -55 -340 -117 -470 -49 -104 -158 -252 -174 -236 -3 3 3
16 14 29 31 32 78 130 107 222 81 253 90 492 22 624 -20 38 -75 101 -88 101
-5 0 8 -20 29 -44z"/>
<path d="M6913 10493 c-31 -12 -7 -18 74 -18 84 0 87 -1 93 -24 5 -21 15 -26
75 -38 39 -8 89 -26 113 -39 74 -43 169 -179 277 -393 68 -135 84 -189 24 -84
-90 159 -214 301 -354 406 -152 113 -264 152 -372 128 -102 -23 -200 -78 -285
-159 -43 -41 -78 -82 -78 -91 1 -13 3 -12 12 4 16 27 104 111 153 144 130 89
257 112 372 70 105 -40 250 -145 360 -262 120 -129 265 -373 300 -507 l22 -85
-3 60 c-2 33 -13 83 -24 110 -11 28 -39 97 -62 155 -49 123 -112 245 -182 350
-94 141 -152 185 -268 205 -48 8 -66 15 -68 28 -3 13 1 15 15 10 12 -4 15 -3
8 4 -21 22 -166 41 -202 26z"/>
<path d="M7474 10487 c75 -47 138 -102 170 -147 141 -197 216 -456 219 -762 1
-77 6 -134 11 -130 13 8 0 303 -18 402 -56 307 -190 550 -348 631 -41 21 -64
25 -34 6z"/>
<path d="M7746 10491 c-3 -5 7 -11 22 -14 60 -12 145 -103 201 -216 81 -159
180 -527 181 -666 0 -36 3 -46 11 -38 24 24 -33 309 -107 530 -69 208 -145
330 -236 383 -58 32 -64 34 -72 21z"/>
<path d="M8920 10487 c0 -7 4 -17 9 -22 15 -17 31 -138 31 -243 0 -206 -46
-392 -157 -632 -66 -143 -83 -183 -79 -187 13 -13 176 364 208 482 55 200 62
432 16 578 -11 36 -28 51 -28 24z"/>
<path d="M9021 10435 c26 -44 48 -135 49 -203 0 -62 -23 -224 -45 -306 -34
-129 -169 -388 -262 -504 -20 -24 -33 -45 -30 -48 20 -21 238 343 282 471 65
188 83 415 44 536 -21 65 -35 89 -50 89 -5 0 1 -16 12 -35z"/>
<path d="M6590 10445 c-34 -14 -34 -14 20 -7 30 4 76 7 103 7 26 0 47 3 47 8
0 12 -133 6 -170 -8z"/>
<path d="M6145 10430 c3 -5 11 -10 17 -10 6 0 34 -17 62 -39 70 -53 126 -88
156 -96 14 -4 0 8 -30 27 -30 19 -84 55 -120 81 -59 43 -100 61 -85 37z"/>
<path d="M7368 10414 c183 -49 288 -250 362 -699 11 -66 20 -147 21 -180 0
-51 2 -56 10 -35 8 17 7 53 -1 115 -12 90 -34 227 -45 275 -4 14 -11 45 -17
70 -37 155 -114 323 -177 384 -49 47 -126 86 -170 85 -34 0 -33 -1 17 -15z"/>
<path d="M6422 10411 c2 -8 23 -20 46 -27 24 -6 49 -18 58 -24 8 -7 17 -10 20
-7 9 9 -58 47 -81 47 -12 0 -27 6 -34 13 -11 10 -13 9 -9 -2z"/>
<path d="M9760 10403 c0 -6 7 -16 16 -23 8 -8 27 -34 41 -58 22 -37 26 -56 25
-111 0 -36 -5 -77 -11 -91 -8 -22 -10 -19 -11 25 0 50 -28 126 -49 140 -7 4
-23 -1 -37 -10 -31 -20 -25 -32 5 -13 20 12 24 10 41 -12 37 -49 37 -140 -2
-275 -25 -88 -84 -256 -111 -315 -45 -98 -151 -234 -212 -271 -22 -14 -25 -19
-12 -19 46 0 183 164 238 285 32 71 129 357 129 381 0 8 4 14 9 14 12 0 41
126 41 178 0 23 -9 62 -20 86 -21 43 -80 109 -80 89z"/>
<path d="M9181 10353 c17 -105 6 -226 -36 -378 -42 -156 -78 -275 -97 -325
-40 -103 -115 -203 -178 -235 -37 -19 -38 -24 -4 -17 40 7 131 108 169 187 55
112 139 406 160 555 10 72 11 115 3 178 -6 45 -14 82 -18 82 -4 0 -3 -21 1
-47z"/>
<path d="M9546 10381 c-3 -5 2 -33 11 -62 12 -37 17 -89 17 -164 -1 -99 -4
-119 -33 -199 -65 -178 -124 -282 -268 -477 -98 -133 -128 -167 -118 -133 4
13 2 11 -6 -4 -15 -27 -5 -40 17 -21 22 18 163 203 222 292 69 103 124 218
168 348 33 100 37 125 37 204 -1 60 -8 111 -21 152 -11 34 -17 65 -14 68 3 3
3 5 -1 5 -3 0 -8 -4 -11 -9z"/>
<path d="M8460 10355 c0 -8 4 -15 8 -15 5 0 16 -17 25 -37 59 -134 48 -339
-34 -658 -47 -184 -50 -197 -46 -202 5 -5 67 211 86 302 35 164 41 211 41 330
0 132 -12 201 -44 263 -17 34 -36 43 -36 17z"/>
<path d="M9664 10345 c15 -38 19 -221 7 -287 -28 -165 -142 -427 -261 -603
-78 -114 -195 -206 -174 -137 4 13 3 13 -6 -1 -17 -26 0 -40 33 -28 29 11 123
100 155 147 52 76 152 268 196 379 52 128 72 206 81 310 7 88 -7 212 -26 229
-9 8 -10 6 -5 -9z"/>
<path d="M9882 10313 c21 -75 4 -186 -56 -365 -30 -92 -65 -189 -77 -215 -23
-52 -105 -193 -149 -258 -39 -58 -45 -69 -33 -62 22 14 144 207 182 287 21 47
65 162 96 255 50 149 57 181 58 255 2 87 -7 140 -22 140 -5 0 -5 -16 1 -37z"/>
<path d="M6027 10308 c4 -7 8 -18 8 -24 0 -15 228 -254 241 -254 6 0 -45 57
-113 128 -67 70 -123 128 -123 130 0 2 15 -8 33 -21 99 -74 200 -83 257 -22
13 14 20 25 16 25 -4 0 -16 -10 -25 -22 -13 -15 -32 -22 -73 -26 -64 -5 -123
17 -180 67 -37 32 -55 40 -41 19z"/>
<path d="M6810 10283 c0 -5 29 -9 65 -9 92 -2 227 -69 318 -159 76 -75 171
-213 226 -328 60 -126 109 -285 96 -308 -6 -8 -4 -10 4 -5 17 11 7 69 -30 180
-49 145 -145 314 -246 434 -94 111 -262 201 -375 202 -32 0 -58 -3 -58 -7z"/>
<path d="M8310 10258 c0 -18 2 -20 10 -8 15 24 37 -42 66 -200 20 -105 22
-420 4 -518 -16 -82 -36 -150 -56 -179 -8 -13 -10 -23 -5 -23 13 0 24 21 46
85 29 88 45 215 45 375 0 138 -6 193 -36 360 -13 77 -74 166 -74 108z"/>
<path d="M9256 10244 c-3 -8 -2 -12 4 -9 17 11 21 -60 6 -137 -18 -94 -74
-238 -169 -431 -40 -81 -70 -147 -67 -147 17 0 173 317 212 430 28 81 48 175
48 223 0 72 -19 111 -34 71z"/>
<path d="M9998 10238 c-3 -7 -6 -44 -7 -83 -9 -339 -245 -755 -506 -894 -47
-25 -31 -27 50 -5 33 9 82 15 108 15 136 -5 412 214 516 408 29 56 41 121 22
121 -5 0 -7 -9 -4 -19 3 -10 -4 -39 -15 -64 -59 -134 -255 -328 -407 -404 -46
-23 -115 -38 -115 -25 0 5 26 25 58 45 63 39 187 161 252 247 52 69 134 238
150 308 14 61 6 122 -15 122 -8 0 -15 -7 -15 -16 0 -8 5 -12 10 -9 20 12 10
-90 -15 -159 -53 -145 -135 -265 -273 -398 -67 -65 -108 -95 -166 -123 -43
-20 -79 -35 -82 -32 -2 2 12 17 33 33 133 100 265 282 354 489 18 42 48 153
58 215 24 146 29 284 9 228z"/>
<path d="M6677 10223 c-3 -5 29 -9 72 -10 152 -5 271 -77 417 -255 83 -100
195 -302 260 -468 18 -47 33 -77 34 -68 1 52 -127 323 -213 452 -71 106 -193
237 -263 282 -70 45 -164 74 -240 74 -35 0 -65 -3 -67 -7z"/>
<path d="M5929 10176 c79 -28 135 -95 226 -273 32 -62 61 -111 63 -108 6 6
-67 156 -111 230 -57 94 -140 166 -191 164 -15 0 -12 -4 13 -13z"/>
<path d="M6581 10138 c-13 -4 -19 -13 -15 -19 5 -8 9 -8 14 1 5 8 38 11 111 8
87 -2 113 -7 160 -29 112 -53 208 -174 331 -419 37 -74 67 -128 68 -120 0 22
-92 208 -149 303 -101 167 -205 252 -341 277 -61 12 -145 11 -179 -2z"/>
<path d="M6498 10049 c-10 -5 -18 -15 -18 -21 0 -6 7 -5 17 3 20 18 138 17
213 -1 137 -32 216 -106 420 -393 41 -58 76 -104 78 -102 2 2 -25 45 -59 97
-150 223 -269 354 -353 387 -99 38 -257 55 -298 30z"/>
<path d="M5824 9999 c-4 -7 0 -9 14 -5 58 19 228 -111 290 -223 27 -48 19 -52
-51 -22 -33 14 -50 29 -62 55 -21 44 -105 122 -154 142 -45 19 -133 15 -139
-6 -4 -12 -2 -13 9 -2 19 17 78 15 124 -7 53 -24 99 -64 137 -119 25 -37 28
-44 12 -38 -10 4 -48 12 -84 17 -36 5 -76 11 -90 15 -16 3 -21 2 -15 -4 6 -5
46 -15 90 -22 44 -8 109 -25 145 -38 36 -13 73 -26 83 -29 9 -3 17 -8 17 -12
0 -3 15 -6 33 -7 17 0 66 -4 108 -8 74 -7 77 -8 88 -39 l11 -32 -5 32 c-6 47
17 47 61 1 104 -107 234 -172 434 -217 89 -20 99 -21 104 -13 2 4 -3 8 -12 8
-39 1 -242 59 -300 85 -129 58 -254 167 -294 257 -10 23 -27 86 -38 140 -10
53 -18 83 -19 65 -2 -65 32 -203 61 -244 16 -24 15 -39 -3 -39 -4 0 -14 19
-24 43 -39 100 -141 228 -180 226 -20 0 -20 0 1 -9 33 -13 107 -105 142 -174
18 -36 32 -68 32 -73 0 -9 -117 0 -165 12 -12 3 -30 26 -44 58 -58 124 -281
283 -317 226z"/>
<path d="M6460 9940 c0 -44 51 -148 99 -202 69 -78 271 -219 312 -218 8 1 -2
9 -22 19 -63 31 -172 108 -240 170 -78 70 -129 158 -129 220 0 23 -4 41 -10
41 -5 0 -10 -14 -10 -30z"/>
<path d="M6547 9933 c-23 -35 97 -129 280 -218 64 -32 108 -62 149 -103 49
-48 55 -52 38 -23 -26 45 -98 98 -227 165 -129 66 -224 137 -229 169 -2 15 -6
18 -11 10z"/>
<path d="M6666 9899 c2 -3 29 -9 60 -12 38 -4 73 -16 108 -37 91 -55 230 -173
265 -225 20 -30 30 -40 26 -25 -10 32 -35 67 -77 106 -47 44 -186 148 -228
170 -33 17 -163 37 -154 23z"/>
<path d="M5663 9725 c15 -8 60 -41 100 -73 127 -105 208 -143 258 -123 21 8
18 10 -19 10 -60 1 -114 30 -227 121 -54 44 -108 80 -119 80 -18 0 -17 -2 7
-15z"/>
<path d="M6246 9643 c10 -17 15 -35 10 -40 -20 -21 -251 4 -285 31 -11 9 -13
8 -9 -4 8 -26 203 -59 273 -46 28 6 35 12 35 30 0 13 -9 31 -21 42 l-21 19 18
-32z"/>
<path d="M10250 9591 c0 -48 -174 -188 -335 -269 -77 -38 -184 -74 -204 -67
-19 5 -49 -11 -38 -21 26 -26 308 94 427 182 118 87 185 163 162 186 -9 9 -12
7 -12 -11z"/>
<path d="M5660 9569 c-101 -28 -166 -67 -145 -87 3 -3 5 0 5 6 0 15 61 45 133
66 31 9 57 19 57 21 0 6 -7 5 -50 -6z"/>
<path d="M6340 9553 c-128 -43 -196 -53 -353 -53 -96 0 -146 -4 -142 -10 9
-15 249 -12 336 5 64 12 255 70 268 81 13 11 -43 -1 -109 -23z"/>
<path d="M5637 9470 c-47 -30 -93 -85 -129 -153 -10 -22 -17 -42 -14 -45 7 -6
5 -10 36 53 30 61 121 155 149 155 12 0 21 5 21 10 0 16 -13 12 -63 -20z"/>
<path d="M6346 9456 c-103 -88 -325 -105 -506 -40 -41 14 -81 31 -87 36 -9 7
-13 7 -13 0 0 -32 201 -91 312 -92 74 0 193 22 243 45 38 19 102 71 95 78 -3
3 -22 -9 -44 -27z"/>
<path d="M10287 9473 c23 -9 -4 -39 -69 -80 -103 -64 -281 -142 -338 -147 -42
-4 -70 -15 -70 -27 0 -14 21 -11 90 12 166 54 376 163 399 208 16 28 14 41 -6
40 -11 0 -13 -3 -6 -6z"/>
<path d="M5799 9308 c-30 -34 -96 -107 -147 -162 -118 -124 -173 -198 -227
-307 -65 -128 -113 -308 -88 -332 8 -8 33 11 33 25 0 7 -5 6 -13 0 -11 -9 -12
-1 -6 46 16 131 99 305 215 450 27 34 54 62 60 62 6 0 16 -11 22 -25 7 -14 18
-28 25 -30 8 -4 -14 -33 -58 -78 -75 -76 -132 -173 -195 -332 -65 -161 -108
-345 -81 -345 6 0 11 17 11 40 0 98 98 364 189 515 38 62 176 219 303 346 67
67 149 110 220 117 42 4 54 1 65 -14 14 -18 15 -18 11 1 -3 17 -12 20 -62 23
-94 5 -167 -36 -287 -159 -53 -55 -101 -99 -107 -99 -6 0 -20 13 -31 28 l-20
29 60 59 c71 70 174 193 167 199 -3 3 -29 -23 -59 -57z"/>
<path d="M5683 9320 c-70 -35 -147 -100 -169 -141 -20 -39 -4 -36 21 3 26 42
105 103 180 138 33 16 53 29 44 30 -9 0 -43 -14 -76 -30z"/>
<path d="M6215 9257 c-44 -23 -88 -41 -98 -39 -9 2 -20 -4 -23 -13 -4 -8 -27
-30 -53 -47 -67 -46 -141 -108 -141 -120 0 -5 21 8 48 29 59 49 112 86 112 79
0 -4 -4 -14 -10 -24 -45 -80 -263 -582 -306 -706 -58 -165 -58 -166 -47 -166
5 0 26 48 45 108 49 144 103 278 185 457 38 83 83 179 99 215 53 117 69 145
89 155 99 50 205 117 183 115 -2 0 -39 -20 -83 -43z"/>
<path d="M5625 9200 c-3 -5 -1 -10 4 -10 6 0 11 5 11 10 0 6 -2 10 -4 10 -3 0
-8 -4 -11 -10z"/>
<path d="M6132 9083 c-52 -124 -70 -186 -183 -633 -52 -207 -79 -284 -112
-327 -14 -17 -16 -24 -6 -21 32 11 74 113 120 293 133 523 161 621 198 694 12
22 17 41 12 41 -4 0 -18 -21 -29 -47z"/>
<path d="M10013 9025 c-3 -9 -3 -19 1 -22 3 -4 6 -1 6 5 0 25 47 11 83 -25 61
-59 70 -90 70 -234 0 -116 -5 -160 -35 -324 -13 -75 -35 -162 -43 -175 -3 -6
-2 -10 2 -10 34 0 97 372 92 540 -5 132 -28 187 -97 231 -52 33 -70 36 -79 14z"/>
<path d="M5777 8948 c-46 -65 -120 -206 -200 -383 -81 -179 -97 -216 -97 -220
0 -2 -11 -29 -25 -60 -14 -30 -28 -69 -30 -87 -7 -40 -4 -35 60 117 26 61 59
137 74 170 16 33 41 89 57 125 48 109 134 272 176 333 54 80 41 84 -15 5z"/>
<path d="M9800 8958 c30 -43 58 -114 88 -218 16 -60 23 -290 9 -350 l-8 -35
16 34 c24 53 20 250 -6 359 -31 124 -91 252 -119 252 -5 0 4 -19 20 -42z"/>
<path d="M9891 8980 c22 -11 49 -39 66 -67 57 -94 73 -184 74 -421 2 -175 2
-181 11 -97 15 151 -1 340 -38 455 -27 82 -87 151 -131 150 -11 -1 -4 -8 18
-20z"/>
<path d="M6102 8829 c-5 -13 -12 -46 -16 -74 -4 -27 -11 -66 -16 -85 -5 -19
-17 -66 -26 -105 -30 -129 -73 -248 -144 -400 -77 -162 -211 -334 -262 -336
-13 0 -17 -3 -10 -6 35 -14 110 50 184 157 10 14 0 -13 -21 -60 -42 -92 -81
-203 -81 -231 0 -10 5 -21 10 -24 6 -4 10 8 10 30 0 66 117 329 200 450 17 25
30 49 27 52 -3 2 -11 -5 -17 -17 -6 -12 -14 -20 -16 -17 -3 2 8 33 24 68 67
146 152 450 152 541 0 16 5 38 11 50 6 11 8 22 5 25 -3 3 -9 -5 -14 -18z"/>
<path d="M5757 8747 c-13 -138 -75 -304 -196 -522 -53 -95 -162 -256 -177
-262 -8 -3 -14 -9 -14 -15 0 -30 80 64 145 172 66 108 73 120 134 245 92 186
125 302 119 410 -3 60 -3 60 -11 -28z"/>
<path d="M10249 8778 c23 -46 26 -68 29 -173 4 -116 -16 -319 -37 -393 -5 -18
-6 -30 -2 -28 30 19 68 377 52 489 -9 65 -45 157 -60 157 -5 0 4 -24 18 -52z"/>
<path d="M10353 8665 c33 -120 42 -215 28 -325 -18 -148 -22 -199 -12 -165 17
58 31 176 31 269 0 92 -22 211 -42 231 -7 7 -8 3 -5 -10z"/>
<path d="M5890 8621 c-5 -11 -22 -52 -36 -93 -53 -148 -156 -342 -289 -548
-56 -87 -90 -151 -67 -125 5 6 51 75 103 155 102 158 227 397 255 488 10 31
26 76 35 100 19 43 18 58 -1 23z"/>
<path d="M5878 8393 c-135 -190 -338 -607 -338 -693 0 -14 14 16 30 65 54 161
219 480 328 633 24 35 42 65 40 67 -3 3 -30 -30 -60 -72z"/>
<path d="M10022 8280 c0 -14 2 -19 5 -12 2 6 2 18 0 25 -3 6 -5 1 -5 -13z"/>
<path d="M10012 8178 c21 -34 55 -135 68 -203 12 -63 9 -302 -4 -345 -6 -19
-5 -21 3 -10 8 11 11 -26 11 -138 0 -154 10 -208 41 -228 8 -4 5 5 -6 21 -19
28 -20 47 -21 350 0 205 -4 339 -12 373 -15 68 -71 202 -84 202 -6 0 -4 -10 4
-22z"/>
<path d="M10145 8085 c3 -38 6 -149 6 -245 2 -156 3 -167 11 -100 9 77 2 277
-13 365 -7 45 -8 42 -4 -20z"/>
<path d="M10260 8024 c0 -33 -5 -87 -11 -120 -14 -77 -37 -202 -44 -234 l-6
-25 12 25 c13 29 33 123 48 230 17 123 19 157 10 171 -5 9 -9 -8 -9 -47z"/>
<path d="M6735 7850 c-69 -18 -121 -42 -177 -82 -50 -35 -29 -38 23 -3 70 46
139 72 234 89 67 12 73 14 35 15 -25 0 -77 -8 -115 -19z"/>
<path d="M6998 7863 c-39 -10 -14 -18 60 -19 47 -1 92 -8 115 -18 20 -9 37
-13 37 -8 0 10 -53 29 -105 37 -74 12 -90 13 -107 8z"/>
<path d="M8441 7839 c26 -49 59 -208 59 -283 0 -85 12 -41 26 91 16 158 17
193 4 193 -6 0 -10 -33 -11 -77 0 -43 -4 -87 -9 -98 -8 -18 -9 -17 -9 7 -2 58
-44 188 -61 188 -7 0 -7 -7 1 -21z"/>
<path d="M7300 7845 c0 -3 20 -14 45 -25 25 -11 45 -25 45 -31 0 -7 3 -9 6 -6
11 10 -17 37 -54 53 -38 16 -42 16 -42 9z"/>
<path d="M8581 7762 c-7 -48 -20 -116 -28 -151 -7 -35 -12 -65 -10 -68 3 -2
12 29 21 69 32 147 45 223 38 230 -4 4 -14 -32 -21 -80z"/>
<path d="M7803 7816 c28 -42 57 -148 58 -210 0 -50 2 -57 10 -37 22 55 -37
271 -74 271 -5 0 -2 -11 6 -24z"/>
<path d="M7502 7814 c34 -18 83 -88 114 -162 13 -32 23 -48 24 -36 1 58 -108
215 -148 214 -12 -1 -9 -5 10 -16z"/>
<path d="M7613 7803 c26 -29 77 -132 77 -158 0 -8 5 -15 10 -15 15 0 13 10
-14 75 -25 62 -70 125 -88 125 -7 0 0 -12 15 -27z"/>
<path d="M7713 7819 c42 -98 58 -148 66 -205 l8 -69 2 60 c1 61 -15 129 -43
183 -16 31 -45 58 -33 31z"/>
<path d="M7441 7788 c32 -32 79 -117 79 -143 0 -8 4 -15 9 -15 30 0 -63 173
-98 183 -17 4 -15 0 10 -25z"/>
<path d="M6755 7788 c-72 -31 -165 -96 -174 -122 -11 -27 -36 -48 -59 -50 -20
-1 -142 -94 -142 -108 0 -5 29 13 64 41 61 49 84 62 71 41 -12 -19 4 -10 50
30 43 37 178 110 204 110 6 0 11 5 11 10 0 6 -2 10 -4 10 -9 0 -103 -41 -138
-61 -21 -11 -38 -18 -38 -15 0 12 100 72 170 103 41 18 66 33 55 33 -11 -1
-42 -10 -70 -22z"/>
<path d="M8663 7798 c-4 -7 -16 -35 -26 -63 -53 -143 -62 -212 -19 -142 13 20
28 34 33 31 6 -3 19 6 30 20 29 37 160 121 221 142 34 12 46 19 34 22 -26 5
-171 -68 -226 -114 -28 -24 -38 -29 -25 -14 43 54 100 110 112 110 7 0 13 5
13 10 0 25 -33 4 -94 -61 -42 -44 -65 -76 -62 -85 3 -8 2 -12 -3 -9 -5 3 -17
-5 -25 -17 -22 -32 -20 -23 18 86 33 90 38 113 19 84z"/>
<path d="M6915 7789 c-22 -5 -44 -15 -50 -20 -7 -8 -4 -9 10 -5 98 29 218 29
194 0 -7 -9 -8 -14 -1 -14 6 0 14 5 17 10 10 17 91 11 150 -11 30 -11 53 -25
50 -30 -4 -5 -1 -9 5 -9 7 0 10 6 8 13 -7 22 -96 59 -155 63 -164 12 -191 12
-228 3z"/>
<path d="M7293 7786 c58 -16 80 -36 102 -96 16 -45 16 -45 11 -8 -9 70 -64
119 -133 117 -21 0 -16 -4 20 -13z"/>
<path d="M8932 7761 c-106 -59 -284 -201 -251 -201 8 0 30 16 49 35 41 43 158
124 236 165 31 17 48 30 38 30 -11 0 -43 -13 -72 -29z"/>
<path d="M6885 7756 c-69 -15 -95 -25 -95 -36 0 -4 19 -1 43 7 55 20 183 30
173 14 -4 -6 -1 -11 8 -11 17 0 22 15 8 24 -20 12 -83 13 -137 2z"/>
<path d="M9288 7754 c-15 -15 -8 -25 11 -15 18 10 321 -11 342 -24 5 -4 9 -2
9 3 0 5 -26 14 -57 20 -77 14 -296 26 -305 16z"/>
<path d="M8995 7727 c-105 -45 -276 -160 -261 -175 4 -3 19 6 34 20 61 58 247
158 292 158 11 0 20 5 20 10 0 15 -30 11 -85 -13z"/>
<path d="M9170 7740 c-14 -4 -46 -14 -72 -21 -26 -7 -45 -16 -42 -20 2 -4 32
2 67 12 34 11 80 18 102 17 22 -1 40 2 40 7 0 13 -63 16 -95 5z"/>
<path d="M6503 7687 c-56 -46 -101 -97 -84 -97 5 0 14 6 18 14 9 15 85 81 123
108 16 11 20 17 10 17 -8 0 -38 -19 -67 -42z"/>
<path d="M5475 7712 c-10 -7 -21 -29 -45 -87 -6 -16 -14 -71 -17 -120 -4 -71
-3 -93 9 -102 9 -8 18 -9 28 -1 13 8 12 9 -2 5 -21 -7 -28 12 -28 72 0 60 25
155 52 198 20 34 21 48 3 35z"/>
<path d="M7023 7713 c-7 -5 15 -7 51 -5 46 3 74 0 97 -12 34 -17 51 -14 31 6
-14 14 -162 23 -179 11z"/>
<path d="M9326 7711 c-5 -7 11 -11 51 -11 70 -1 191 -15 217 -26 12 -5 17 -4
13 3 -16 26 -267 57 -281 34z"/>
<path d="M6795 7693 c-29 -10 -43 -18 -33 -20 9 -3 26 1 37 6 11 6 54 11 96
11 48 0 74 4 70 10 -9 15 -114 11 -170 -7z"/>
<path d="M9160 7678 c-76 -22 -170 -60 -170 -69 0 -5 -10 -9 -21 -9 -25 0
-173 -69 -166 -77 3 -2 40 12 83 33 61 29 90 37 143 39 36 2 92 8 124 15 33 6
61 9 64 7 2 -3 -11 -8 -29 -12 -54 -11 -68 -16 -68 -25 0 -10 135 30 165 49
17 10 9 11 -45 7 -36 -3 -87 -11 -115 -18 -27 -8 -63 -11 -80 -8 l-30 6 40 13
c119 37 203 52 209 37 3 -7 7 -7 14 2 6 10 23 11 63 6 61 -8 223 -58 256 -80
26 -16 33 -17 33 -6 0 5 -10 14 -22 21 -19 9 -5 10 71 8 79 -3 96 -6 108 -23
15 -19 15 -19 11 1 -5 29 -104 49 -176 37 -45 -8 -63 -6 -106 10 -122 47 -267
62 -356 36z"/>
<path d="M5543 7652 c3 -13 -1 -39 -9 -59 -26 -61 -54 -186 -54 -240 0 -76 15
-65 17 12 3 90 64 292 84 279 5 -3 9 -1 9 5 0 15 -18 23 -26 10 -4 -8 -9 -7
-16 2 -7 10 -8 8 -5 -9z"/>
<path d="M8928 7635 c-72 -22 -145 -54 -93 -41 76 18 215 64 195 64 -14 0 -60
-10 -102 -23z"/>
<path d="M6675 7626 c-72 -26 -175 -84 -175 -98 0 -5 15 0 33 12 39 26 105 57
171 80 26 10 44 20 40 23 -5 3 -36 -5 -69 -17z"/>
<path d="M5636 7629 c-10 -35 -27 -98 -37 -139 -13 -53 -22 -300 -11 -317 4
-6 8 50 9 124 1 132 9 188 40 286 9 26 13 50 10 54 -4 3 -8 0 -11 -8z"/>
<path d="M5742 7593 c-5 -15 -13 -37 -17 -48 -11 -31 -35 -234 -35 -293 0 -33
4 -51 10 -47 6 3 10 45 10 93 0 91 20 236 39 286 7 16 10 31 8 33 -3 2 -9 -9
-15 -24z"/>
<path d="M9300 7611 c8 -5 46 -12 84 -16 38 -4 86 -13 107 -21 43 -15 51 -11
17 7 -22 12 -163 39 -203 38 -16 0 -17 -1 -5 -8z"/>
<path d="M9305 7550 c159 -14 205 -21 205 -30 0 -5 6 -7 13 -5 6 3 63 2 125
-3 61 -4 112 -4 112 -1 0 4 -21 9 -47 12 -184 21 -254 27 -373 31 -131 5 -132
5 -35 -4z"/>
<path d="M10163 7400 c-1 -130 -5 -165 -22 -215 -12 -33 -28 -66 -37 -75 -15
-14 -16 -12 -10 25 4 28 3 34 -4 20 -5 -11 -8 -42 -8 -70 0 -27 3 -39 5 -25 3
14 11 29 19 33 23 13 52 87 88 224 13 51 20 90 15 87 -5 -3 -15 -26 -22 -52
-12 -46 -12 -45 -18 78 l-5 125 -1 -155z"/>
<path d="M6422 7463 c-29 -19 -51 -38 -48 -40 4 -4 116 66 116 73 0 10 -19 0
-68 -33z"/>
<path d="M9510 7490 c-10 -7 20 -10 94 -10 116 0 173 -12 206 -42 11 -10 20
-14 20 -9 0 21 -42 48 -91 59 -61 14 -208 16 -229 2z"/>
<path d="M5771 7407 c-3 -107 33 -367 51 -367 5 0 7 4 4 8 -14 23 -36 215 -36
312 0 116 -15 154 -19 47z"/>
<path d="M9625 7435 c64 -17 133 -53 165 -87 11 -12 20 -17 20 -11 0 14 -62
68 -101 89 -17 8 -57 18 -88 20 l-56 4 60 -15z"/>
<path d="M7080 7376 c-118 -19 -248 -89 -354 -190 -39 -36 -39 -37 -6 -14 19
14 44 24 55 22 22 -3 26 -5 156 -68 52 -25 117 -50 143 -55 58 -11 185 4 341
39 51 11 212 76 229 91 20 18 -12 8 -109 -34 -56 -24 -133 -49 -175 -57 -41
-7 -91 -16 -110 -21 -52 -13 -54 -12 -24 24 15 17 33 46 41 64 15 37 17 140 4
176 l-10 25 53 -12 c30 -7 89 -34 132 -61 128 -78 165 -98 170 -92 3 3 -9 13
-27 23 -18 9 -58 33 -89 54 -107 72 -162 92 -258 96 -48 1 -121 -3 -162 -10z
m179 -27 c26 -76 6 -173 -50 -231 -32 -33 -41 -38 -83 -38 -38 0 -52 5 -81 33
-42 38 -73 133 -50 152 7 5 22 28 33 50 18 37 24 41 78 51 33 6 78 12 101 13
38 1 42 -2 52 -30z m-253 -41 c-14 -24 -26 -37 -26 -30 0 6 -5 12 -11 12 -7 0
-9 -10 -5 -27 4 -16 11 -45 15 -65 5 -20 16 -49 25 -63 10 -15 16 -28 14 -30
-2 -2 -56 22 -121 54 l-117 57 48 37 c46 35 193 110 200 102 2 -2 -8 -23 -22
-47z"/>
<path d="M7169 7327 c-15 -23 -41 -69 -59 -102 -18 -33 -39 -68 -48 -78 -8 -9
-12 -20 -8 -25 10 -9 28 16 79 111 23 43 49 86 59 97 10 11 18 24 18 30 0 21
-16 9 -41 -33z"/>
<path d="M7128 7328 c-33 -45 -101 -168 -95 -174 6 -7 20 13 62 91 20 39 44
78 53 88 8 9 13 20 10 23 -3 3 -17 -10 -30 -28z"/>
<path d="M7030 7298 c-31 -55 -35 -68 -22 -68 4 0 13 15 21 33 8 17 23 44 33
60 11 15 15 27 9 27 -6 0 -24 -24 -41 -52z"/>
<path d="M7196 7310 c-14 -22 -26 -41 -26 -44 0 -2 -18 -34 -41 -71 -22 -36
-39 -71 -37 -77 2 -6 29 31 60 84 31 52 63 107 73 122 10 14 13 26 7 26 -5 0
-21 -18 -36 -40z"/>
<path d="M7093 7328 c-18 -24 -83 -136 -83 -143 0 -4 7 -2 15 5 8 7 15 16 15
21 0 5 16 34 37 64 20 31 34 58 31 60 -3 3 -10 0 -15 -7z"/>
<path d="M7216 7267 c-14 -19 -26 -37 -26 -41 0 -4 -16 -30 -35 -58 -19 -29
-32 -54 -30 -57 8 -7 19 8 75 98 53 87 61 118 16 58z"/>
<path d="M7216 7192 c-39 -64 -45 -82 -21 -62 8 7 15 16 15 21 0 5 12 27 26
49 15 22 25 43 22 46 -3 3 -22 -22 -42 -54z"/>
<path d="M9714 7343 c35 -9 98 -54 103 -74 5 -19 23 -27 23 -10 0 32 -82 92
-124 90 -20 -1 -20 -2 -2 -6z"/>
<path d="M8865 7309 c-38 -12 -89 -30 -112 -40 -43 -19 -156 -100 -169 -121
-9 -14 5 -5 87 53 62 45 176 96 187 84 3 -3 0 -20 -6 -38 -7 -19 -12 -59 -12
-90 0 -48 4 -61 28 -86 l27 -29 108 109 c60 60 103 109 96 109 -6 0 -58 -45
-114 -101 l-102 -100 -17 34 c-24 52 -19 151 8 141 6 -2 29 14 51 36 21 22 46
40 54 40 8 0 -15 -28 -52 -63 -37 -34 -67 -66 -67 -70 0 -5 35 24 78 63 77 71
77 71 122 65 74 -11 144 -40 201 -83 79 -60 146 -122 131 -122 -7 0 -31 -9
-55 -19 -55 -26 -197 -73 -208 -69 -4 2 8 28 27 58 37 59 46 129 20 163 -20
26 -27 20 -10 -10 7 -16 14 -32 14 -38 0 -9 -57 -48 -73 -49 -4 -1 -36 -27
-71 -58 -46 -42 -73 -58 -93 -58 -70 0 -289 49 -346 77 -16 8 -31 12 -34 9 -8
-8 73 -43 143 -61 102 -26 244 -46 348 -47 102 -1 167 15 286 70 19 8 49 18
67 21 l32 6 -94 80 c-99 84 -159 118 -241 136 -90 21 -164 20 -239 -2z m45
-34 c-18 -19 -36 -33 -38 -30 -10 10 9 54 26 58 42 11 44 5 12 -28z m260 -133
c0 -4 -23 -32 -50 -61 -28 -30 -48 -57 -44 -60 3 -3 19 10 35 29 16 19 29 30
29 25 -1 -6 -11 -23 -24 -38 -20 -25 -28 -28 -76 -25 l-54 3 39 37 c44 41 62
42 24 1 -42 -46 -4 -16 52 42 52 52 69 64 69 47z"/>
<path d="M8961 7234 c-39 -37 -77 -76 -83 -88 -6 -11 22 10 63 48 41 38 83 78
94 88 11 10 14 18 8 18 -6 0 -43 -30 -82 -66z"/>
<path d="M5243 7250 c-98 -59 -129 -216 -103 -510 10 -112 17 -147 60 -305 15
-55 33 -129 40 -165 6 -36 15 -85 20 -110 5 -25 11 -66 14 -91 3 -25 13 -68
21 -95 18 -52 112 -204 127 -204 5 0 -13 33 -40 73 -53 79 -92 170 -92 218 0
17 -4 49 -9 72 -5 23 -15 71 -21 107 -12 72 -18 96 -54 220 -44 155 -51 215
-51 430 l0 205 29 58 c46 95 120 122 193 73 57 -39 182 -166 224 -228 22 -31
43 -60 49 -63 44 -27 -65 123 -151 207 -129 127 -186 151 -256 108z"/>
<path d="M8965 7186 c-49 -46 -88 -86 -85 -89 3 -3 30 18 60 46 31 29 76 69
100 89 25 21 38 38 30 38 -8 0 -55 -38 -105 -84z"/>
<path d="M9780 7243 c1 -11 70 -42 70 -32 0 5 -13 15 -30 24 -33 17 -40 18
-40 8z"/>
<path d="M9022 7147 c-50 -51 -92 -96 -92 -102 0 -8 192 172 198 188 12 25
-25 -5 -106 -86z"/>
<path d="M9050 7131 c-47 -43 -82 -82 -79 -85 6 -7 177 143 178 157 2 18 -20
2 -99 -72z"/>
<path d="M8396 7130 c3 -36 9 -81 14 -100 4 -19 13 -69 20 -110 6 -41 16 -95
21 -120 11 -51 69 -203 76 -197 2 3 -6 29 -18 58 -32 81 -38 104 -60 229 -48
277 -60 332 -53 240z"/>
<path d="M5228 7113 c-8 -10 -19 -30 -25 -44 -14 -33 -28 -195 -17 -202 5 -3
10 16 11 41 7 130 25 193 59 206 24 9 91 -69 170 -200 37 -60 112 -170 167
-244 56 -74 103 -137 104 -139 2 -2 5 -2 8 1 5 5 -11 27 -129 187 -38 52 -101
147 -140 212 -110 181 -166 231 -208 182z"/>
<path d="M5757 7073 c-8 -22 5 -85 42 -200 17 -52 19 -79 14 -166 -4 -76 -3
-106 6 -111 9 -6 11 23 9 121 -3 99 -9 144 -27 198 -12 39 -26 95 -30 125 -5
43 -9 50 -14 33z"/>
<path d="M10214 7024 c-88 -59 -164 -123 -164 -137 0 -6 15 3 33 19 75 70 203
154 234 154 39 0 46 -32 51 -238 5 -215 -14 -414 -50 -535 -12 -37 -18 -70
-15 -73 9 -9 46 121 58 206 7 41 14 188 16 326 4 209 2 257 -11 288 -22 53
-61 50 -152 -10z"/>
<path d="M10021 6973 c1 -32 5 -69 9 -83 5 -16 7 5 6 57 0 46 -4 83 -8 83 -5
0 -8 -26 -7 -57z"/>
<path d="M5305 6981 c-27 -45 -80 -551 -59 -564 5 -3 9 16 10 41 2 131 43 459
64 510 9 22 -3 32 -15 13z"/>
<path d="M10319 6928 c-8 -13 -21 -36 -29 -52 -8 -16 -49 -65 -90 -110 -90
-97 -170 -206 -170 -232 0 -12 10 -2 27 26 36 61 74 110 162 205 40 44 84 102
98 128 25 51 27 75 2 35z"/>
<path d="M9990 6932 c0 -28 33 -142 42 -142 5 0 5 7 0 18 -6 9 -13 37 -17 62
-7 46 -24 88 -25 62z"/>
<path d="M9996 6771 c-5 -7 -4 -16 1 -20 5 -3 17 -31 26 -61 17 -54 17 -54 12
-12 -7 60 -29 110 -39 93z"/>
<path d="M5857 6700 c-3 -19 -8 -78 -11 -130 l-5 -95 14 115 c14 112 16 181 2
110z"/>
<path d="M10221 6720 c-3 -15 32 -392 39 -430 9 -45 9 -45 4 10 -2 30 -9 125
-14 210 -6 85 -14 169 -19 185 -5 17 -10 28 -10 25z"/>
<path d="M9975 6613 c3 -10 11 -43 17 -73 12 -66 32 -106 23 -45 -14 87 -27
135 -37 135 -6 0 -7 -8 -3 -17z"/>
<path d="M5871 6579 c-13 -37 -13 -115 -1 -179 7 -35 8 -27 4 37 -3 46 0 99 6
123 14 50 7 64 -9 19z"/>
<path d="M5721 6450 c-19 -66 -33 -139 -34 -172 0 -50 5 -65 51 -142 84 -139
80 -178 -9 -90 -53 52 -86 59 -151 30 -35 -15 -38 -19 -38 -59 1 -40 39 -132
40 -95 0 9 -4 20 -10 23 -5 3 -10 28 -10 55 0 48 2 50 36 65 58 24 76 19 129
-35 27 -27 57 -50 67 -50 30 0 22 58 -17 125 -87 149 -89 163 -40 333 15 51
25 100 23 110 -2 9 -18 -35 -37 -98z"/>
<path d="M9976 6479 c-11 -37 -14 -80 -8 -115 6 -34 8 -28 12 41 6 79 5 101
-4 74z"/>
<path d="M5910 6460 c-18 -34 -22 -113 -12 -270 l9 -145 2 110 c1 64 8 126 16
150 18 49 11 59 -10 14 -16 -34 -16 -33 -11 44 2 43 10 85 17 93 6 8 9 17 6
20 -3 3 -11 -4 -17 -16z"/>
<path d="M7511 6374 c-51 -106 -71 -159 -71 -188 1 -56 122 -166 182 -166 17
0 27 4 23 10 -3 6 -19 10 -34 10 -16 0 -45 13 -67 30 -103 81 -108 121 -34
271 28 57 49 107 47 112 -2 6 -22 -30 -46 -79z"/>
<path d="M8668 6352 c33 -31 73 -84 90 -117 17 -33 31 -54 32 -46 1 28 -65
133 -111 176 -70 66 -80 55 -11 -13z"/>
<path d="M9945 6280 c7 -49 -4 -187 -12 -162 -11 29 -20 -1 -12 -40 4 -24 8
-56 8 -73 0 -26 -2 -28 -10 -10 -8 17 -8 15 -4 -7 3 -16 1 -28 -3 -28 -5 0
-12 -33 -16 -72 -6 -72 -17 -100 -30 -79 -4 6 -13 11 -19 11 -7 0 -6 -4 3 -10
11 -6 16 -32 19 -91 4 -96 -8 -98 -33 -7 -18 66 -41 107 -53 94 -4 -4 -3 -10
3 -14 11 -8 26 -45 45 -114 7 -27 17 -48 22 -48 5 0 5 -10 2 -21 -5 -16 -4
-19 5 -14 10 6 12 1 8 -19 -3 -14 -2 -26 3 -26 16 0 29 174 15 217 -4 12 -2
24 3 27 5 4 13 31 16 61 8 61 25 75 25 20 0 -19 3 -35 8 -35 4 0 6 46 4 102
-3 97 5 155 30 202 11 21 -11 186 -25 186 -5 0 -6 -23 -2 -50z"/>
<path d="M5290 6190 c0 -9 12 -40 33 -90 19 -43 79 -113 131 -155 80 -64 77
-54 -10 32 -78 76 -98 105 -125 186 -12 34 -29 50 -29 27z"/>
<path d="M8802 6139 c-1 -22 -10 -51 -19 -66 -20 -30 -110 -73 -153 -73 -17 0
-30 -4 -30 -8 0 -5 25 -5 56 0 59 9 127 45 143 77 16 28 24 98 14 104 -6 4
-10 -12 -11 -34z"/>
<path d="M10247 6119 c-9 -21 -17 -44 -17 -49 0 -15 -34 -115 -90 -265 -63
-172 -64 -174 -65 -290 0 -74 -4 -108 -17 -131 -31 -57 -106 -71 -153 -28 -15
14 -30 22 -34 19 -9 -10 45 -54 75 -61 35 -9 103 24 125 61 15 24 19 51 19
136 0 97 6 136 30 194 24 59 90 235 99 265 44 147 53 181 50 185 -3 2 -12 -14
-22 -36z"/>
<path d="M5927 6061 c-3 -49 -2 -102 3 -118 6 -19 9 9 9 90 1 64 -1 117 -3
117 -1 0 -6 -40 -9 -89z"/>
<path d="M7668 6113 c-14 -2 -32 -11 -38 -18 -11 -13 -8 -13 20 -4 46 17 157
5 240 -25 88 -32 114 -45 192 -100 67 -46 162 -76 182 -56 7 7 2 10 -15 10
-48 0 -116 27 -170 67 -112 84 -303 142 -411 126z"/>
<path d="M8566 6035 c-43 -18 -108 -52 -145 -74 -37 -23 -79 -41 -94 -41 -15
0 -27 -4 -27 -10 0 -18 35 -10 100 25 120 64 215 108 245 115 22 4 26 8 14 12
-9 4 -51 -9 -93 -27z"/>
<path d="M5971 6022 c-19 -36 -22 -119 -11 -332 24 -473 34 -546 81 -571 11
-5 19 -18 19 -28 0 -10 6 -24 14 -30 12 -10 12 -6 0 35 -18 61 -19 240 -1 248
6 3 3 4 -8 3 -19 -2 -20 -10 -20 -110 1 -63 -3 -103 -8 -98 -26 26 -50 271
-28 285 4 3 11 54 15 113 7 116 20 217 31 246 4 9 3 17 -3 17 -12 0 -19 -36
-38 -190 -8 -69 -12 -138 -9 -155 6 -29 5 -29 -10 -10 -15 17 -16 48 -13 242
2 122 2 220 0 218 -3 -2 -8 -30 -12 -62 l-7 -58 -2 75 c0 41 6 99 13 128 15
54 14 65 -3 34z"/>
<path d="M7702 5918 c-33 -72 -44 -118 -37 -145 3 -14 10 -22 14 -17 17 18 83
155 78 160 -3 3 -22 -29 -44 -72 -46 -95 -55 -75 -14 32 33 84 35 114 3 42z"/>
<path d="M7676 5939 c-50 -146 -65 -200 -46 -168 16 27 61 171 56 176 -3 3 -8
0 -10 -8z"/>
<path d="M7771 5897 c-42 -93 -51 -117 -46 -117 5 0 45 77 68 133 24 57 5 44
-22 -16z"/>
<path d="M7796 5854 c-26 -53 -45 -98 -43 -100 2 -3 25 39 51 92 27 52 46 97
44 100 -3 2 -26 -39 -52 -92z"/>
<path d="M7582 5920 c-7 -11 -12 -25 -12 -31 0 -5 -16 -44 -35 -86 -38 -82
-41 -113 -4 -42 23 47 70 171 66 175 -2 2 -8 -6 -15 -16z"/>
<path d="M7631 5919 c-5 -13 -23 -59 -40 -103 -18 -43 -30 -80 -28 -82 2 -2
11 13 19 33 9 21 28 67 42 102 15 35 24 66 22 69 -3 3 -10 -6 -15 -19z"/>
<path d="M7438 5893 c-24 -56 -78 -223 -78 -243 0 -9 -33 -46 -73 -82 -50 -45
-82 -84 -105 -128 -32 -63 -41 -97 -21 -85 6 4 8 9 5 12 -12 12 57 122 106
170 70 68 151 116 252 147 117 37 228 49 328 36 45 -5 160 -10 255 -10 95 0
173 -3 173 -7 0 -5 10 -9 23 -9 159 -11 176 -14 272 -46 78 -27 135 -60 215
-121 75 -59 185 -168 211 -212 11 -17 19 -23 19 -14 0 32 -160 195 -263 267
-93 65 -195 107 -307 126 l-65 11 -26 85 c-32 98 -38 88 -10 -13 l20 -67 -38
0 c-37 0 -39 2 -65 60 -15 32 -31 62 -36 65 -15 9 -12 -1 16 -56 28 -57 26
-68 -11 -51 -25 11 -31 33 -26 90 1 15 -2 21 -8 17 -14 -8 -14 -61 -1 -86 9
-16 7 -19 -14 -19 -19 0 -25 6 -30 34 -4 18 -3 41 0 51 6 13 4 16 -5 10 -9 -5
-12 -21 -7 -52 5 -39 4 -44 -12 -41 -14 3 -17 13 -15 53 l2 50 -10 -40 c-5
-21 -7 -45 -5 -52 5 -13 -15 -18 -26 -8 -3 4 -2 24 4 47 5 22 7 43 4 45 -3 3
-7 -6 -11 -21 -3 -14 -7 -37 -10 -51 -4 -17 -12 -25 -25 -25 -25 0 -25 11 0
60 11 22 20 45 20 52 -1 20 -49 -74 -50 -96 0 -18 -7 -19 -133 -13 -202 10
-311 -7 -446 -69 -29 -14 -56 -23 -58 -20 -3 3 6 38 20 78 l25 73 2 -60 3 -60
7 61 c5 33 18 82 31 108 12 26 19 50 15 53 -3 3 -17 -18 -30 -48 -30 -65 -35
-51 -6 17 11 26 19 51 18 56 -2 5 -11 -8 -20 -29z"/>
<path d="M7840 5870 c-35 -69 -52 -110 -45 -110 7 0 86 162 81 167 -3 3 -19
-23 -36 -57z"/>
<path d="M8493 5905 c4 -8 15 -53 27 -101 11 -47 24 -93 30 -102 12 -22 13 -3
1 34 -6 16 -17 64 -26 107 -10 42 -22 77 -27 77 -6 0 -8 -7 -5 -15z"/>
<path d="M7868 5858 c-30 -64 -42 -98 -35 -98 9 0 68 133 64 144 -2 6 -15 -15
-29 -46z"/>
<path d="M7922 5844 c-18 -36 -31 -68 -29 -70 6 -7 69 115 65 127 -2 5 -18
-20 -36 -57z"/>
<path d="M8436 5883 c4 -16 11 -38 15 -51 5 -13 9 -33 9 -45 1 -12 7 -35 15
-52 l15 -30 -6 35 c-2 19 -9 53 -14 75 -5 22 -11 52 -15 68 -3 15 -10 27 -15
27 -6 0 -8 -11 -4 -27z"/>
<path d="M7518 5883 c-18 -22 -60 -124 -53 -131 2 -3 9 7 14 21 6 14 22 49 36
76 27 54 28 62 3 34z"/>
<path d="M8548 5864 c11 -22 26 -65 33 -96 8 -32 17 -58 20 -58 18 0 -40 181
-60 188 -8 3 -6 -9 7 -34z"/>
<path d="M7336 5811 c-37 -77 -66 -157 -65 -180 0 -9 12 18 27 59 15 41 42
101 59 133 17 31 27 57 22 57 -5 0 -24 -31 -43 -69z"/>
<path d="M7982 5853 c-28 -41 -54 -93 -50 -103 2 -5 20 22 41 60 39 72 43 91
9 43z"/>
<path d="M8384 5858 c4 -13 14 -48 22 -78 8 -30 20 -59 26 -65 8 -7 9 -3 4 15
-4 14 -11 41 -15 60 -11 46 -29 90 -37 90 -3 0 -3 -10 0 -22z"/>
<path d="M8005 5825 c-15 -25 -25 -49 -21 -52 3 -3 9 3 13 13 3 10 16 31 27
46 11 15 17 30 14 34 -4 3 -18 -15 -33 -41z"/>
<path d="M8611 5828 c1 -24 5 -72 9 -108 7 -62 7 -59 8 43 1 66 -2 107 -8 107
-5 0 -9 -19 -9 -42z"/>
<path d="M8664 5755 c0 -60 1 -84 3 -52 2 32 2 81 0 110 -2 29 -3 3 -3 -58z"/>
<path d="M8301 5800 c10 -21 19 -43 19 -49 0 -5 4 -12 9 -16 6 -3 6 5 1 22
-15 53 -30 83 -39 83 -5 0 -1 -18 10 -40z"/>
<path d="M6101 5812 c-32 -59 -55 -284 -35 -336 7 -18 34 -22 34 -5 0 5 -4 8
-9 5 -37 -23 -10 292 27 322 12 9 13 15 5 23 -8 8 -14 6 -22 -9z"/>
<path d="M7294 5816 c-3 -9 -10 -14 -14 -11 -21 13 -106 -162 -135 -275 -10
-40 11 -1 31 56 20 60 84 197 90 192 2 -2 -15 -50 -37 -107 -22 -56 -39 -107
-37 -113 3 -7 17 24 32 68 16 43 42 105 58 138 16 32 27 60 24 63 -3 3 -8 -2
-12 -11z"/>
<path d="M8717 5803 c5 -16 8 -66 7 -113 0 -54 2 -74 6 -55 16 66 8 195 -11
195 -5 0 -6 -12 -2 -27z"/>
<path d="M10085 5807 c-22 -12 -46 -35 -53 -50 -21 -44 -32 -87 -21 -87 5 0 9
7 9 15 0 34 39 91 74 108 20 9 36 21 36 27 0 12 4 13 -45 -13z"/>
<path d="M8787 5803 c-4 -3 -6 -47 -5 -97 l2 -91 5 95 c7 105 7 103 -2 93z"/>
<path d="M7182 5758 c-7 -7 -12 -18 -12 -25 0 -8 -7 -16 -15 -19 -8 -4 -15
-14 -15 -23 0 -10 -9 -53 -21 -97 -32 -118 -49 -205 -48 -239 0 -16 9 8 18 55
30 143 52 221 83 289 29 64 31 80 10 59z"/>
<path d="M8851 5770 c-2 -5 -5 -31 -16 -127 -3 -28 -8 -60 -11 -70 -5 -13 -4
-15 4 -8 7 6 15 39 18 74 9 86 23 58 25 -49 1 -75 2 -81 12 -52 7 22 7 57 1
108 -7 50 -6 78 1 85 7 7 5 8 -7 4 -12 -5 -18 0 -21 17 -2 13 -5 21 -6 18z"/>
<path d="M6162 5723 c-21 -72 -24 -89 -32 -193 -5 -58 -14 -132 -20 -165 -25
-125 21 -480 54 -426 4 6 3 11 -3 11 -27 0 -59 377 -37 436 6 16 8 16 22 -2
15 -18 15 -18 6 1 -23 49 -3 286 28 345 12 23 13 30 2 30 -5 0 -14 -17 -20
-37z"/>
<path d="M6252 5693 c-23 -77 -47 -242 -39 -272 3 -11 1 -38 -4 -58 -27 -114
-38 -187 -29 -202 7 -12 9 -7 10 20 0 45 32 189 37 172 3 -7 9 -13 14 -13 5 0
4 11 -2 24 -8 16 -8 30 -1 41 8 15 11 12 22 -21 7 -21 17 -43 23 -49 7 -7 7
-4 2 10 -19 49 -24 128 -9 157 8 16 10 28 4 28 -5 0 -10 21 -10 48 1 51 29
119 48 115 7 -2 12 2 12 8 0 6 -8 9 -17 7 -29 -5 -55 -73 -62 -163 -4 -46 -10
-87 -15 -92 -23 -21 17 213 49 290 4 9 3 17 -3 17 -5 0 -19 -30 -30 -67z"/>
<path d="M9781 5722 c-1 -42 27 -142 40 -142 12 0 11 7 -2 31 -6 12 -17 48
-24 82 -10 48 -14 54 -14 29z"/>
<path d="M5432 5698 c5 -24 14 -63 19 -88 13 -56 28 -73 92 -100 46 -20 63
-22 140 -16 94 6 116 14 160 54 42 40 32 48 -13 9 -44 -37 -85 -47 -194 -47
-107 1 -176 50 -176 126 0 33 -21 104 -30 104 -4 0 -3 -19 2 -42z"/>
<path d="M8912 5650 c0 -36 4 -92 8 -125 7 -49 8 -40 5 45 -4 95 -3 102 10 75
7 -16 23 -70 35 -118 13 -48 25 -86 28 -83 6 7 -18 124 -30 149 -5 10 -7 21
-5 24 9 8 36 -51 48 -103 6 -27 14 -80 19 -119 l7 -70 1 55 c1 55 -16 152 -36
201 -6 15 -22 39 -36 55 -39 44 -42 49 -49 64 -3 8 -5 -14 -5 -50z"/>
<path d="M9700 5708 c0 -2 11 -25 25 -53 14 -27 28 -66 32 -87 7 -45 23 -61
23 -23 0 29 -52 149 -69 159 -6 4 -11 6 -11 4z"/>
<path d="M6377 5668 c-9 -12 -24 -77 -35 -143 -11 -66 -30 -147 -42 -180 -43
-118 -63 -294 -36 -330 12 -16 13 -12 8 33 -5 54 7 134 44 287 l7 30 7 -30 c6
-24 8 -17 9 30 1 33 7 72 15 87 10 19 11 28 3 31 -14 4 9 142 30 175 8 13 12
26 10 29 -3 2 -12 -6 -20 -19z"/>
<path d="M7072 5623 c-38 -121 -52 -210 -51 -321 l2 -107 8 125 c8 124 38 280
65 332 16 31 17 38 5 38 -4 0 -18 -30 -29 -67z"/>
<path d="M6607 5673 c-9 -15 -35 -127 -42 -183 -4 -30 -15 -91 -25 -135 -21
-92 -37 -280 -24 -288 5 -3 9 20 9 51 1 99 18 230 26 202 6 -20 7 -17 8 17 1
55 19 168 41 263 17 70 19 93 7 73z"/>
<path d="M7022 5638 c-10 -24 -24 -63 -31 -88 -7 -25 -17 -58 -23 -75 -5 -16
-10 -70 -12 -120 -2 -49 -2 -70 0 -45 9 107 52 276 86 338 10 17 13 32 7 32
-5 0 -18 -19 -27 -42z"/>
<path d="M9651 5660 c0 -8 6 -24 14 -34 8 -10 24 -49 36 -85 12 -36 24 -60 26
-54 3 7 -2 34 -11 60 -18 54 -65 136 -65 113z"/>
<path d="M6439 5634 c-34 -85 -54 -304 -29 -319 6 -4 8 -9 6 -13 -2 -4 -11
-49 -20 -100 -17 -99 -21 -182 -8 -182 4 0 6 17 4 38 -3 34 43 300 54 311 2 2
4 -13 5 -35 1 -29 5 -18 15 41 19 112 34 183 50 233 16 49 17 64 4 41 -16 -27
-37 -101 -51 -174 -7 -38 -17 -76 -23 -84 -6 -8 -17 -26 -24 -40 -22 -47 -6
163 18 238 21 64 20 99 -1 45z"/>
<path d="M6972 5637 c-27 -35 -75 -296 -61 -333 5 -13 8 -7 8 23 1 23 6 66 11
95 30 156 46 211 61 202 5 -3 9 -1 9 5 0 16 -17 22 -28 8z"/>
<path d="M9520 5645 c0 -3 9 -24 21 -47 24 -46 50 -128 44 -138 -6 -9 13 -35
20 -28 9 9 -22 113 -51 170 -22 43 -34 58 -34 43z"/>
<path d="M9600 5599 c12 -30 31 -74 43 -99 21 -45 21 -45 25 -16 2 19 -2 32
-11 38 -8 4 -23 31 -33 59 -10 27 -24 55 -32 61 -8 7 -5 -9 8 -43z"/>
<path d="M6747 5558 c-8 -29 -20 -80 -26 -113 -7 -33 -17 -79 -22 -102 -5 -23
-9 -50 -8 -60 1 -32 16 14 29 92 13 72 47 212 56 227 3 4 1 8 -5 8 -5 0 -16
-24 -24 -52z"/>
<path d="M6683 5588 c-19 -25 -62 -197 -75 -298 -5 -41 -7 -121 -4 -177 5 -96
5 -103 -13 -103 -24 0 -31 -18 -38 -100 -3 -36 -10 -74 -16 -85 -6 -11 -14
-33 -18 -50 -5 -18 -7 13 -5 80 2 105 13 148 40 168 7 6 6 7 -4 4 -8 -2 -23
-18 -33 -35 -15 -25 -18 -52 -18 -146 0 -110 11 -168 43 -246 6 -14 13 -67 16
-118 2 -51 8 -94 11 -96 9 -6 -3 187 -13 202 -14 22 -24 144 -17 192 l8 45 7
-40 c16 -85 27 -115 41 -115 8 0 20 -20 29 -47 l14 -48 -6 45 c-4 25 -7 80 -7
123 0 42 -3 77 -7 77 -5 0 -8 -31 -8 -70 0 -67 -10 -89 -25 -52 -11 27 -18
204 -11 256 10 63 29 55 37 -15 7 -65 23 -99 47 -99 16 1 16 1 0 11 -10 5 -22
26 -28 47 -13 47 -13 209 0 217 6 3 10 13 10 22 0 13 -2 13 -16 2 -15 -12 -16
-8 -11 51 14 171 62 382 91 402 8 5 7 8 0 8 -6 0 -16 -6 -21 -12z"/>
<path d="M9460 5598 c1 -18 98 -236 103 -231 4 3 7 -58 7 -137 0 -99 3 -141
10 -134 15 15 9 290 -7 287 -6 -1 -30 45 -53 102 -23 58 -46 108 -51 111 -5 3
-9 4 -9 2z"/>
<path d="M9054 5325 c0 -132 1 -235 2 -230 2 6 15 67 29 137 25 130 34 265 15
253 -5 -3 -10 -48 -11 -98 0 -51 -7 -110 -15 -132 -7 -22 -12 -29 -9 -15 12
72 17 270 7 270 -6 0 -12 12 -14 28 -2 15 -3 -81 -4 -213z"/>
<path d="M9400 5542 c0 -6 4 -14 10 -17 5 -3 25 -34 44 -68 35 -62 59 -141 70
-227 l6 -45 -17 40 c-23 53 -33 66 -42 61 -4 -3 -13 12 -20 32 -29 85 -54 142
-63 142 -5 0 -6 -5 -2 -12 4 -6 22 -53 39 -104 22 -64 35 -90 42 -83 8 8 16
-6 29 -43 15 -44 18 -87 19 -260 0 -194 1 -207 19 -212 16 -4 18 -11 12 -45
-7 -48 -30 -117 -60 -183 -18 -41 -23 -46 -38 -34 -14 11 -15 20 -7 72 25 152
23 184 -9 152 -7 -7 -8 -17 -1 -29 6 -12 6 -34 -1 -62 -5 -24 -12 -62 -14 -84
-3 -22 -11 -53 -17 -69 -7 -16 -14 -40 -15 -53 -2 -13 -8 -29 -15 -35 -9 -8
-10 -2 -6 24 17 105 18 131 3 203 -9 42 -16 125 -16 184 0 84 -5 120 -20 163
-31 83 -69 160 -78 160 -5 0 4 -26 20 -57 56 -115 71 -183 65 -285 -3 -51 -9
-104 -12 -118 -5 -18 -4 -21 3 -11 8 11 13 5 21 -25 17 -60 13 -165 -10 -270
-23 -107 -59 -201 -66 -171 -4 14 -8 16 -19 6 -17 -14 -19 -33 -2 -23 17 11 4
-80 -24 -164 -13 -39 -20 -68 -15 -65 18 11 57 143 57 193 0 17 4 30 9 30 10
0 61 114 61 136 0 8 8 24 19 35 10 11 26 44 35 74 10 29 24 61 31 71 14 18 14
18 15 -1 0 -11 -8 -32 -17 -45 -16 -24 -16 -24 0 -11 9 7 17 9 17 3 0 -17 -28
-89 -61 -159 -56 -116 -59 -124 -47 -117 20 13 122 238 125 277 1 21 11 51 21
65 36 53 82 191 82 248 0 17 12 58 26 90 55 124 82 306 51 333 -14 11 -27 5
-27 -13 0 -6 5 -4 10 4 15 24 12 -135 -5 -203 -19 -80 -25 -82 -25 -9 0 60
-15 112 -32 112 -5 0 -3 -10 3 -22 16 -30 17 -207 1 -235 -7 -13 -18 -23 -25
-23 -17 0 -14 249 3 290 17 40 -2 249 -30 327 -27 79 -110 202 -110 165z"/>
<path d="M9760 5481 c0 -6 4 -11 9 -11 29 0 37 -110 16 -225 -5 -28 -4 -28 9
5 18 43 20 177 3 209 -13 26 -37 40 -37 22z"/>
<path d="M9712 5335 c0 -84 3 -128 8 -110 4 17 8 66 8 110 0 44 -4 94 -8 110
-5 18 -8 -26 -8 -110z"/>
<path d="M9121 5351 c-13 -112 -12 -271 0 -271 4 0 9 -8 11 -17 2 -10 14 26
27 80 13 53 27 100 32 103 12 7 11 34 -1 34 -5 0 -12 -12 -16 -27 -3 -16 -10
-39 -15 -53 -7 -19 -7 -15 -3 15 12 73 20 185 12 177 -8 -8 -31 -186 -32 -249
0 -30 -3 -38 -9 -27 -9 16 7 298 19 328 3 9 2 16 -4 16 -5 0 -15 -49 -21 -109z"/>
<path d="M9330 5441 c0 -6 4 -12 10 -16 5 -3 13 -20 19 -38 5 -18 20 -62 34
-99 13 -36 23 -79 21 -95 -4 -23 -3 -25 5 -8 8 19 9 19 14 -5 13 -56 26 -158
27 -215 1 -33 5 -109 9 -170 l8 -110 1 124 c2 152 -15 344 -35 391 -8 19 -26
67 -39 105 -36 100 -56 145 -66 145 -4 0 -8 -4 -8 -9z"/>
<path d="M7116 5393 c-26 -80 -45 -157 -49 -209 -3 -27 -3 -40 0 -29 19 91 56
223 67 246 8 16 11 31 6 34 -5 3 -15 -16 -24 -42z"/>
<path d="M6985 5410 c-3 -5 -8 -56 -10 -112 -3 -94 -3 -97 4 -28 4 41 11 92
16 113 7 36 3 48 -10 27z"/>
<path d="M7717 5409 c-32 -4 -101 -22 -154 -39 -53 -17 -130 -36 -172 -41 -90
-12 -162 -26 -141 -28 42 -3 247 35 330 62 85 27 112 31 255 35 154 4 383 -8
550 -29 114 -15 417 -71 515 -95 16 -4 21 -3 15 3 -10 10 -66 24 -165 42 -30
6 -93 18 -140 27 -254 50 -750 85 -893 63z"/>
<path d="M9605 5403 c16 -40 25 -92 25 -155 0 -40 5 -70 12 -74 8 -5 10 15 5
82 -8 100 -23 164 -39 164 -6 0 -7 -7 -3 -17z"/>
<path d="M9668 5328 c4 -126 9 -135 11 -20 0 56 -2 102 -7 102 -4 0 -6 -37 -4
-82z"/>
<path d="M6373 5358 c-12 -16 -27 -74 -49 -192 -12 -63 -15 -117 -11 -190 6
-105 12 -136 29 -136 7 0 7 4 1 13 -6 6 -13 59 -16 117 -3 66 -2 97 3 83 5
-13 12 -23 14 -23 3 0 1 12 -5 28 -13 32 5 178 31 260 18 55 19 60 3 40z"/>
<path d="M7859 5344 c-17 -43 -39 -154 -39 -195 0 -45 10 -53 84 -68 88 -17
114 -14 142 14 30 30 32 31 36 3 4 -28 47 -40 113 -32 70 9 104 29 112 64 3
17 7 30 8 30 1 0 18 -6 37 -14 33 -14 87 -10 118 9 6 4 21 -2 33 -13 34 -30
65 -37 87 -17 24 21 38 121 20 138 -9 9 -11 6 -10 -13 5 -58 -1 -100 -16 -114
-31 -32 -103 28 -105 89 -1 26 -3 24 -12 -15 -12 -53 -20 -60 -67 -60 -55 0
-78 22 -82 78 l-3 47 -8 -60 c-5 -33 -10 -70 -13 -82 -7 -34 -54 -53 -133 -53
l-69 0 -7 68 c-8 88 -12 106 -14 59 -1 -50 -24 -103 -51 -117 -32 -17 -168 8
-182 34 -12 22 4 134 28 200 17 44 10 63 -7 20z"/>
<path d="M9310 5355 c0 -11 15 -63 34 -115 19 -52 39 -122 45 -156 11 -59 14
-171 4 -146 -13 32 -19 6 -10 -49 8 -49 7 -63 -4 -70 -13 -8 -6 -13 14 -10 4
0 7 -32 8 -71 0 -51 3 -67 9 -52 9 22 6 358 -3 409 -5 28 -25 86 -76 225 -11
30 -21 46 -21 35z"/>
<path d="M6497 5328 c-16 -35 -32 -103 -42 -181 -3 -26 -13 -59 -21 -75 -25
-48 -10 -227 22 -261 10 -11 10 -4 -1 34 -9 29 -15 86 -14 144 1 53 3 88 6 79
2 -10 8 -18 13 -18 4 0 6 9 3 19 -6 24 21 182 41 241 18 53 14 65 -7 18z"/>
<path d="M7646 5324 c-11 -29 -6 -106 9 -139 9 -18 27 -37 41 -44 35 -16 89
-14 104 4 11 13 8 13 -20 4 -26 -10 -39 -9 -66 4 -47 23 -68 68 -61 134 6 54
4 65 -7 37z"/>
<path d="M9260 5302 c0 -6 5 -14 10 -17 15 -9 60 -101 82 -165 l19 -55 -6 43
c-6 47 -63 170 -89 191 -10 8 -16 9 -16 3z"/>
<path d="M7468 5241 c-10 -95 -18 -99 -117 -56 -45 20 -87 35 -93 33 -10 -4 5
-13 87 -48 28 -12 58 -26 67 -31 10 -5 25 -9 33 -9 8 0 23 -4 33 -9 30 -15
114 -39 247 -72 179 -43 421 -57 580 -35 61 8 146 20 190 26 165 23 211 37
295 92 87 57 103 81 18 28 -29 -18 -68 -42 -86 -53 -37 -22 -137 -46 -194 -47
-31 0 -38 4 -38 19 0 11 -5 23 -10 26 -7 4 -9 -2 -4 -18 5 -23 2 -27 -33 -36
-21 -6 -51 -11 -67 -11 -28 0 -28 1 -23 40 3 23 1 38 -4 34 -5 -3 -9 -23 -9
-44 0 -38 -1 -39 -44 -45 -48 -8 -66 -2 -66 21 0 8 -5 14 -10 14 -7 0 -7 -6 0
-20 10 -20 8 -20 -141 -20 -146 0 -151 1 -146 20 3 11 1 20 -4 20 -5 0 -9 -7
-9 -15 0 -18 -5 -18 -87 -4 l-63 11 -1 37 -1 36 -10 -32 c-12 -37 -16 -38 -78
-19 -37 11 -45 18 -45 37 0 13 4 30 9 37 16 23 -9 12 -41 -18 -28 -26 -35 -29
-57 -19 -33 15 -65 83 -68 144 l-3 50 -7 -64z m32 -103 c0 -10 -12 -10 -28 0
-7 5 -10 16 -6 26 6 15 7 15 20 -1 7 -10 14 -21 14 -25z m117 -45 c-3 -3 -11
-2 -17 2 -9 6 -9 10 1 16 14 8 27 -7 16 -18z"/>
<path d="M6996 5248 c-3 -13 -5 -50 -4 -83 1 -59 1 -58 8 20 7 84 6 100 -4 63z"/>
<path d="M6675 5247 c-7 -18 -7 -105 0 -247 6 -132 11 -160 26 -160 8 0 7 5
-1 15 -10 12 -12 49 -8 148 3 73 3 121 -1 107 l-7 -25 -6 30 c-6 30 3 102 16
123 3 6 2 13 -4 17 -6 3 -13 0 -15 -8z"/>
<path d="M8683 5210 c-14 -57 -26 -72 -52 -63 -13 5 -14 3 -3 -8 27 -29 76 35
70 93 -3 28 -4 25 -15 -22z"/>
<path d="M9196 5219 c-2 -8 -9 -32 -15 -54 -6 -22 -18 -67 -27 -100 -14 -48
-19 -56 -25 -40 l-8 20 -1 -20 c-3 -34 -7 -68 -14 -115 -5 -31 3 -14 28 55 42
120 79 256 72 263 -3 3 -7 -1 -10 -9z"/>
<path d="M9285 5153 c58 -124 66 -139 59 -113 -11 45 -69 173 -80 177 -5 2 4
-27 21 -64z"/>
<path d="M9743 5137 c-1 -39 -7 -94 -14 -122 -7 -27 -12 -52 -12 -55 1 -3 -11
-36 -25 -75 -14 -38 -26 -84 -27 -100 -3 -36 -51 -139 -73 -157 -13 -12 -14
-9 -8 25 4 21 9 46 12 55 3 9 -2 4 -10 -13 -8 -16 -24 -68 -37 -115 -12 -47
-30 -101 -41 -120 l-18 -35 20 24 c12 13 30 57 42 97 12 40 26 70 31 67 10 -6
30 18 61 77 52 99 116 343 116 441 0 91 -14 96 -17 6z"/>
<path d="M6744 5175 c-12 -30 2 -295 16 -308 10 -10 11 -7 6 13 -14 55 -19
269 -7 284 8 10 9 16 1 21 -5 3 -13 -1 -16 -10z"/>
<path d="M9691 5135 c-1 -65 -21 -182 -40 -229 -6 -16 -10 -31 -8 -33 3 -2 14
20 25 49 28 70 47 214 34 248 -9 21 -11 16 -11 -35z"/>
<path d="M6817 5156 c-11 -40 16 -281 33 -291 4 -2 3 15 -2 38 -5 23 -12 96
-16 162 -5 87 -9 112 -15 91z"/>
<path d="M6214 5135 c-3 -8 -3 -56 0 -107 3 -51 6 -106 5 -123 -7 -200 5 -345
27 -322 3 3 1 14 -5 25 -15 28 -15 283 0 262 11 -16 10 -1 -12 125 -6 33 -8
81 -5 108 5 47 1 61 -10 32z"/>
<path d="M7026 5134 c-4 -9 -4 -19 -1 -22 2 -3 7 3 11 12 4 9 4 19 1 22 -2 3
-7 -3 -11 -12z"/>
<path d="M6882 4968 c-1 -81 1 -149 6 -151 4 -3 6 41 4 96 -4 184 -8 204 -10
55z"/>
<path d="M8072 5050 c0 -14 2 -19 5 -12 2 6 2 18 0 25 -3 6 -5 1 -5 -13z"/>
<path d="M6944 4960 c1 -58 6 -113 12 -123 12 -21 9 43 -6 163 -8 60 -9 57 -6
-40z"/>
<path d="M6988 5054 c-21 -20 0 -256 24 -279 8 -7 9 -4 3 10 -5 11 -11 78 -14
148 -3 71 -9 125 -13 121z"/>
<path d="M7268 5033 c11 -16 30 -37 42 -48 13 -11 64 -72 115 -136 84 -104
100 -119 158 -147 110 -52 138 -57 337 -57 102 -1 226 -5 276 -9 146 -14 254
10 364 79 36 23 72 44 80 47 32 12 129 100 165 150 37 51 80 148 66 148 -3 0
-21 -30 -39 -67 -17 -38 -49 -86 -70 -108 -56 -59 -120 -115 -130 -115 -12 0
-44 -17 -100 -53 -88 -57 -161 -67 -465 -62 -303 4 -372 12 -466 57 -72 35
-75 38 -179 168 -78 98 -154 180 -166 180 -4 0 1 -12 12 -27z"/>
<path d="M9199 5034 c-11 -14 -10 -15 7 -12 14 2 25 -9 44 -47 22 -44 25 -65
28 -183 2 -73 1 -145 -3 -160 -8 -26 -8 -25 -20 18 -7 25 -13 37 -14 28 -1
-10 -6 -18 -11 -18 -7 0 -7 -7 0 -21 16 -29 11 -285 -6 -328 -16 -38 -18 -65
-5 -57 9 6 -40 -147 -61 -189 -7 -15 -4 -13 12 5 18 22 21 22 16 5 -5 -22 -25
-122 -33 -170 -3 -16 -3 -27 1 -24 12 11 35 116 41 186 6 65 21 123 50 188 54
121 91 260 80 302 -3 12 -13 23 -22 25 -16 3 -17 19 -14 168 3 157 1 168 -22
220 -30 69 -49 87 -68 64z m80 -509 c-2 -101 -17 -113 -18 -15 0 65 2 90 9 80
5 -8 9 -37 9 -65z m28 -22 c-2 -16 -4 -5 -4 22 0 28 2 40 4 28 2 -13 2 -35 0
-50z m-37 -158 c-16 -42 -20 -26 -7 25 8 28 13 37 15 24 2 -11 -2 -33 -8 -49z"/>
<path d="M6042 4923 c3 -123 23 -192 58 -201 13 -3 12 -1 -1 10 -27 22 -40 82
-42 197 -1 61 -6 111 -10 111 -5 0 -7 -53 -5 -117z"/>
<path d="M9189 4936 c-3 -4 7 -34 23 -67 16 -34 30 -75 30 -91 1 -16 4 -24 8
-18 4 7 4 27 0 44 -10 45 -54 139 -61 132z"/>
<path d="M6146 4891 c-8 -23 0 -207 10 -243 3 -10 10 -18 15 -18 6 0 7 5 2 13
-4 6 -10 71 -13 142 -3 90 -8 123 -14 106z"/>
<path d="M6416 4800 c6 -128 14 -199 22 -204 9 -5 -4 194 -17 254 -7 36 -8 26
-5 -50z"/>
<path d="M9140 4835 c0 -4 9 -19 20 -34 10 -15 28 -50 39 -77 12 -29 20 -40
20 -28 1 24 -44 117 -64 134 -8 7 -15 9 -15 5z"/>
<path d="M6376 4813 c-14 -36 14 -225 37 -248 7 -7 8 -3 3 10 -18 51 -27 121
-24 185 3 68 -3 88 -16 53z"/>
<path d="M9106 4808 c4 -13 21 -57 39 -100 20 -46 29 -81 24 -89 -6 -10 -10
-9 -15 6 -13 36 -64 105 -87 116 -17 9 -15 4 9 -22 50 -53 78 -117 65 -145 -9
-21 -8 -24 9 -24 15 0 20 7 20 27 0 15 10 38 23 51 16 18 17 24 6 19 -16 -5
-27 16 -71 151 -6 17 -15 32 -20 32 -5 0 -6 -10 -2 -22z"/>
<path d="M6270 4701 c0 -106 12 -171 32 -171 7 0 6 5 -1 13 -6 8 -14 67 -17
131 -6 96 -5 120 7 127 11 7 11 9 -3 9 -16 0 -18 -12 -18 -109z"/>
<path d="M6679 4783 c-11 -28 -7 -153 6 -185 4 -10 12 -18 18 -18 7 0 7 4 -1
12 -8 8 -12 46 -12 103 0 57 4 95 12 103 9 9 9 12 0 12 -7 0 -17 -12 -23 -27z"/>
<path d="M6760 4791 c-13 -25 -13 -171 0 -206 6 -17 14 -23 22 -19 9 6 9 9 0
12 -17 5 -17 203 0 220 9 9 9 12 0 12 -6 0 -16 -9 -22 -19z"/>
<path d="M6836 4794 c-9 -22 -7 -197 2 -211 4 -6 7 43 7 108 0 65 -1 119 -1
119 -1 0 -5 -7 -8 -16z"/>
<path d="M6323 4753 c-8 -19 14 -214 25 -225 4 -4 2 41 -6 100 -10 78 -11 112
-3 125 8 11 8 17 1 17 -6 0 -13 -7 -17 -17z"/>
<path d="M6936 4754 c-9 -23 -7 -222 2 -227 4 -3 7 51 7 119 0 68 -1 124 -1
124 -1 0 -5 -7 -8 -16z"/>
<path d="M6974 4714 c-10 -67 2 -194 19 -211 13 -13 13 -8 1 38 -16 62 -18
157 -4 193 5 15 6 26 0 26 -5 0 -12 -21 -16 -46z"/>
<path d="M9032 4642 c19 -21 45 -62 58 -90 13 -29 30 -52 38 -52 13 0 14 -18
9 -117 -3 -68 -12 -137 -21 -162 -19 -53 -20 -61 -3 -36 42 62 60 335 22 335
-6 0 -22 22 -34 48 -24 51 -74 112 -93 112 -6 0 5 -17 24 -38z"/>
<path d="M8982 4573 c32 -34 88 -129 88 -148 0 -8 5 -15 10 -15 13 0 13 -97 1
-136 -5 -16 -12 -42 -16 -59 -7 -29 -8 -29 -26 25 -10 30 -19 62 -19 70 0 26
-89 130 -110 130 -11 0 -20 -4 -20 -10 0 -5 6 -7 14 -4 15 6 98 -95 102 -124
1 -10 11 -45 22 -79 20 -62 17 -96 -11 -141 -6 -8 -4 -12 5 -10 7 2 18 12 25
23 10 17 12 13 18 -30 4 -28 8 -54 10 -60 6 -18 3 79 -4 110 -4 17 3 63 16
115 25 97 30 195 10 207 -7 4 -26 31 -41 58 -31 55 -74 105 -90 105 -5 0 2
-12 16 -27z"/>
<path d="M6466 4557 c-5 -15 -5 -58 -2 -95 16 -160 23 -185 49 -164 12 10 16
8 21 -13 4 -14 11 -25 17 -25 6 0 7 5 3 11 -13 22 -34 154 -34 217 0 40 -4 61
-10 57 -13 -8 -13 -60 1 -145 7 -38 8 -77 4 -87 -14 -35 -28 27 -34 152 -5 87
-9 112 -15 92z"/>
<path d="M7038 4558 c-9 -7 -18 -29 -21 -48 -10 -73 -40 -215 -47 -220 -21
-15 -27 -55 -25 -145 3 -98 13 -147 34 -159 6 -4 4 9 -4 28 -8 20 -15 50 -15
67 l0 31 20 -23 c15 -19 21 -21 28 -11 6 9 12 -11 16 -57 4 -39 12 -74 18 -77
8 -5 9 -1 5 10 -4 10 -8 63 -8 119 -1 56 -4 91 -6 78 -3 -13 -13 -33 -24 -44
-18 -20 -18 -20 -29 8 -6 15 -8 37 -4 48 4 13 2 17 -5 13 -7 -5 -11 9 -11 43
0 27 5 53 10 56 6 3 10 -3 10 -14 0 -12 5 -21 11 -21 5 0 8 4 5 9 -9 14 11
153 23 161 6 3 12 32 12 64 1 44 6 62 22 77 23 21 10 26 -15 7z"/>
<path d="M6135 4520 c12 -61 23 -226 24 -358 0 -79 2 -146 5 -150 3 -5 -1 -61
-9 -125 -14 -118 -9 -235 13 -302 16 -50 52 -137 78 -190 51 -103 212 -290
536 -620 80 -82 166 -174 191 -202 70 -84 353 -340 443 -400 21 -15 45 -33 52
-40 7 -7 16 -13 19 -13 12 0 -26 36 -83 79 -99 74 -251 210 -355 317 -689 710
-758 792 -839 999 -50 126 -58 203 -43 370 14 144 0 557 -21 615 -9 25 -14 34
-11 20z"/>
<path d="M6590 4485 c0 -63 19 -206 29 -217 4 -4 1 38 -7 95 -7 56 -11 119
-10 140 2 20 0 37 -4 37 -5 0 -8 -25 -8 -55z"/>
<path d="M8906 4533 c-3 -3 4 -11 17 -17 12 -7 44 -41 71 -76 58 -77 83 -93
36 -24 -55 82 -108 132 -124 117z"/>
<path d="M9178 4528 c27 -27 8 -268 -28 -364 -6 -15 -9 -28 -7 -30 6 -7 42 74
39 89 -1 4 3 6 9 5 6 -2 14 3 17 11 3 9 0 11 -8 6 -10 -6 -11 1 -6 31 23 147
16 264 -16 264 -9 0 -9 -3 0 -12z"/>
<path d="M6657 4523 c-20 -19 5 -250 29 -271 4 -4 4 4 0 18 -16 63 -26 208
-17 233 10 25 3 36 -12 20z"/>
<path d="M7122 4505 c-7 -14 -12 -37 -12 -50 0 -13 -5 -36 -11 -52 -11 -29
-25 -423 -15 -412 5 5 11 144 15 357 1 13 5 20 11 17 6 -4 10 11 11 37 1 48 4
73 14 106 10 30 1 28 -13 -3z"/>
<path d="M6727 4513 c-19 -35 -10 -199 13 -243 5 -9 1 -24 -9 -40 -23 -32 -61
-134 -61 -163 0 -18 2 -19 10 -7 5 8 10 24 10 35 0 11 17 55 39 98 21 42 35
77 31 77 -15 0 -32 112 -28 182 4 68 3 75 -5 61z"/>
<path d="M6798 4491 c-5 -18 -7 -84 -7 -145 l2 -111 9 110 c4 61 7 126 6 145
l-3 35 -7 -34z"/>
<path d="M6943 4453 c-22 -53 -43 -139 -42 -171 0 -15 9 6 20 48 10 41 26 94
33 118 18 52 11 55 -11 5z"/>
<path d="M6864 4380 c0 -52 1 -74 3 -47 2 26 2 68 0 95 -2 26 -3 4 -3 -48z"/>
<path d="M7171 4397 c-12 -70 -13 -122 -1 -67 4 19 12 54 18 78 5 23 6 44 2
47 -4 3 -13 -24 -19 -58z"/>
<path d="M6395 4333 c3 -87 9 -131 20 -153 9 -18 18 -30 21 -27 2 2 -2 17 -11
33 -8 16 -15 54 -16 84 -1 30 -5 84 -9 120 -7 51 -8 39 -5 -57z"/>
<path d="M7048 4328 c4 -180 9 -195 10 -35 1 81 -1 147 -5 147 -5 0 -7 -51 -5
-112z"/>
<path d="M7133 4394 c-8 -22 4 -243 16 -279 8 -24 8 -17 3 30 -3 33 -6 106 -7
162 0 57 -1 103 -3 103 -1 0 -5 -7 -9 -16z"/>
<path d="M7995 4333 c-9 -21 -34 -176 -35 -211 0 -13 4 -20 10 -17 6 3 10 25
11 48 0 23 6 76 14 117 13 76 13 95 0 63z"/>
<path d="M8893 4323 c21 -15 47 -42 58 -60 11 -18 25 -33 31 -33 6 0 2 12 -7
28 -26 39 -85 92 -104 92 -9 0 0 -11 22 -27z"/>
<path d="M7918 4308 c-37 -58 -44 -98 -53 -293 -8 -150 21 -300 61 -315 31
-12 48 -92 41 -184 -4 -46 -3 -66 3 -56 5 8 10 34 10 57 0 23 5 43 11 45 9 3
9 9 0 25 -6 12 -11 33 -11 47 0 14 -4 27 -9 30 -4 3 -11 25 -14 48 -4 24 -9
59 -12 78 -3 22 3 10 18 -30 16 -47 28 -66 42 -68 18 -2 18 -2 3 8 -24 15 -66
180 -46 180 5 0 2 7 -6 16 -16 16 -22 78 -10 109 5 13 9 14 15 4 10 -17 23 -4
16 16 -9 22 -34 19 -40 -5 -3 -11 -13 -20 -24 -20 -17 -1 -17 -1 -1 -14 15
-11 18 -34 21 -140 7 -211 -30 -162 -57 77 -5 45 -4 48 14 42 11 -4 20 -2 20
4 0 6 -4 11 -9 11 -5 0 -9 10 -9 23 0 12 -3 40 -7 63 -6 32 -3 44 11 59 13 13
15 20 6 23 -27 9 -5 105 34 152 19 22 22 30 11 30 -8 0 -21 -10 -29 -22z"/>
<path d="M8360 4320 c0 -9 4 -20 9 -25 14 -15 51 -135 51 -166 0 -15 5 -31 10
-34 15 -9 9 33 -26 170 -8 30 -43 74 -44 55z"/>
<path d="M7205 4311 c-3 -5 -4 -66 -3 -134 l3 -125 33 101 c18 55 37 106 44
114 6 7 9 16 6 18 -9 9 -28 -22 -47 -75 l-18 -51 -6 50 c-3 27 -2 64 3 80 8
29 -1 43 -15 22z"/>
<path d="M7741 4298 c-32 -50 -71 -131 -90 -185 -22 -62 -44 -243 -32 -256 5
-5 11 34 13 85 7 116 41 217 113 336 14 23 22 42 18 42 -5 0 -15 -10 -22 -22z"/>
<path d="M7847 4218 c-21 -55 -35 -103 -32 -106 2 -3 8 4 12 14 4 10 21 56 39
101 18 46 29 85 25 87 -4 3 -24 -41 -44 -96z"/>
<path d="M8474 4299 c24 -85 46 -178 46 -199 0 -14 9 -44 19 -67 15 -32 16
-41 5 -36 -20 7 -17 -4 7 -28 18 -18 21 -30 17 -90 -3 -59 -2 -66 9 -46 18 33
16 15 -8 -50 -12 -32 -28 -63 -35 -69 -19 -15 -18 -24 2 -24 17 0 17 -38 -1
-195 -4 -33 -2 -30 10 15 8 30 14 76 15 101 0 25 9 63 19 85 11 22 23 53 27
69 7 28 7 28 15 7 14 -38 36 -24 68 41 17 35 31 69 31 75 0 6 4 13 8 16 4 2 6
-12 4 -32 -3 -20 -1 -34 3 -30 4 4 9 24 11 45 2 21 8 57 15 81 6 23 9 45 7 48
-3 3 -11 -18 -18 -45 -7 -31 -17 -51 -26 -51 -8 0 -14 -7 -14 -16 0 -28 -61
-145 -71 -138 -7 4 -9 37 -6 83 4 67 2 82 -21 126 -14 28 -29 68 -33 90 l-6
40 -2 -38 c-1 -26 9 -57 28 -91 26 -47 27 -54 12 -64 -14 -10 -14 -11 2 -11
13 -1 17 -6 13 -19 -3 -10 -12 -42 -20 -72 -8 -30 -22 -71 -30 -90 -23 -53
-20 -5 4 58 22 57 26 92 10 92 -5 0 -10 13 -10 30 0 23 4 28 16 23 11 -4 5 16
-21 67 -20 40 -38 82 -39 94 -13 93 -46 225 -59 233 -6 4 -8 -3 -3 -18z"/>
<path d="M7821 4297 c-19 -23 -85 -177 -75 -177 3 0 21 35 40 78 20 42 43 85
51 95 9 9 11 17 6 17 -6 0 -16 -6 -22 -13z"/>
<path d="M8054 4290 c17 -66 18 -158 1 -232 -17 -77 -35 -96 -35 -37 0 17 -4
28 -9 25 -5 -3 -7 -14 -5 -24 2 -9 15 -77 29 -150 14 -74 30 -141 36 -150 9
-15 10 -14 4 3 -4 11 -11 44 -15 73 -5 30 -12 62 -15 73 -4 10 -4 19 -2 19 2
0 15 -28 27 -62 23 -64 59 -128 73 -128 9 0 9 -4 -7 82 -8 40 -26 104 -40 142
-15 39 -24 76 -21 84 3 8 0 10 -6 6 -9 -5 -10 4 -4 32 4 21 11 41 16 45 12 7
12 37 0 128 -6 41 -15 79 -22 85 -9 8 -10 5 -5 -14z m26 -360 c29 -86 52 -172
46 -177 -6 -6 -40 61 -55 110 -7 20 -16 37 -21 37 -14 0 -20 60 -8 80 7 10 13
18 14 17 1 -1 11 -31 24 -67z"/>
<path d="M8280 4287 c0 -7 8 -17 18 -23 15 -10 24 -34 48 -126 3 -10 -3 -21
-15 -27 -11 -6 -23 -21 -27 -33 -4 -13 -10 -25 -14 -28 -4 -3 -1 -39 7 -80 7
-41 17 -106 23 -145 l9 -70 -4 83 c-3 56 -1 82 7 82 6 0 3 9 -7 20 -26 29 -26
121 0 150 18 20 20 20 26 3 6 -13 8 -10 8 12 1 40 -26 144 -45 173 -16 24 -34
29 -34 9z"/>
<path d="M8859 4261 c64 -64 82 -154 65 -319 -4 -34 -10 -59 -15 -56 -9 5 -29
-28 -29 -48 0 -10 3 -9 11 2 12 16 6 -103 -7 -149 -5 -15 -3 -22 3 -18 5 3 15
46 22 94 7 48 17 105 22 126 6 21 9 93 8 161 0 68 3 132 9 142 19 34 35 -24
38 -141 2 -60 4 -111 4 -113 0 -1 10 3 22 9 18 10 24 8 35 -7 18 -24 9 -113
-18 -168 -22 -46 -22 -46 -10 -46 15 0 41 77 47 139 8 72 -7 105 -42 98 -24
-4 -24 -4 -24 88 0 123 -22 192 -54 166 -12 -10 -22 -4 -59 34 -25 25 -50 45
-56 45 -6 0 7 -18 28 -39z"/>
<path d="M7670 4275 c-7 -8 -18 -15 -26 -15 -25 0 -123 -166 -125 -212 0 -13
1 -129 1 -258 1 -177 5 -241 16 -261 15 -30 40 -43 50 -27 4 6 3 8 -3 5 -16
-10 -42 25 -48 64 -5 33 -1 29 17 -20 5 -13 11 -22 13 -19 3 3 -2 22 -11 43
-11 27 -17 86 -21 201 -7 184 5 218 25 71 7 -51 22 -122 32 -158 11 -35 20
-83 20 -107 0 -46 20 -105 40 -117 7 -4 6 2 -3 16 -8 13 -18 40 -21 59 -7 33
-6 34 9 16 19 -25 20 -4 0 33 -8 16 -11 31 -8 34 3 4 0 13 -7 21 -14 18 -25
61 -45 176 -16 92 -12 127 13 133 10 3 0 4 -21 4 -20 0 -39 2 -42 4 -10 11 19
78 39 88 20 10 20 11 -4 8 -18 -1 -24 2 -22 13 5 27 53 115 82 150 26 32 25
28 -11 -44 -21 -43 -39 -85 -39 -93 0 -8 20 26 45 76 25 49 57 99 72 111 17
13 21 20 11 20 -9 0 -21 -7 -28 -15z"/>
<path d="M7770 4270 c-37 -37 -112 -206 -88 -198 6 2 12 11 14 21 4 28 53 129
80 164 28 37 25 44 -6 13z"/>
<path d="M8011 4253 c-6 -21 -13 -67 -16 -103 -4 -64 -4 -64 5 -15 5 28 16 74
23 103 8 28 10 52 6 52 -4 0 -13 -17 -18 -37z"/>
<path d="M8085 4260 c4 -18 20 -64 36 -104 21 -49 31 -92 33 -141 3 -53 2 -62
-5 -39 -5 17 -16 37 -24 44 -16 13 -21 0 -6 -15 11 -11 43 -123 61 -210 7 -33
14 -64 16 -70 9 -24 -9 115 -22 164 -7 29 -11 58 -7 64 4 6 5 35 4 65 -2 39 2
59 14 72 16 17 16 23 2 67 -8 26 -20 67 -26 91 -7 23 -16 42 -21 42 -6 0 -6
-9 0 -22 20 -49 41 -161 32 -170 -8 -8 -72 138 -72 167 0 8 -5 17 -11 21 -8 4
-9 -3 -4 -26z"/>
<path d="M8207 4264 c9 -14 27 -60 39 -103 17 -57 23 -68 23 -44 1 32 -33 137
-52 161 -18 23 -27 12 -10 -14z"/>
<path d="M8540 4279 c0 -24 58 -215 59 -194 1 11 -8 54 -20 95 -12 41 -22 80
-23 87 -3 19 -16 28 -16 12z"/>
<path d="M6851 4264 c0 -11 3 -14 6 -6 3 7 2 16 -1 19 -3 4 -6 -2 -5 -13z"/>
<path d="M7385 4255 c-3 -16 -11 -43 -16 -59 -13 -42 -11 -104 4 -109 9 -3 11
-43 9 -168 -1 -94 2 -187 9 -219 11 -54 34 -94 50 -85 4 3 11 -4 14 -16 14
-44 13 -10 -1 45 -19 75 -24 268 -6 273 6 3 12 9 12 15 0 6 -9 3 -20 -7 -17
-15 -20 -31 -20 -102 0 -46 5 -104 11 -128 6 -23 9 -51 7 -61 -4 -16 -7 -14
-18 11 -17 38 -25 272 -10 290 8 9 8 15 0 20 -11 7 -13 66 -4 103 4 12 14 22
23 22 13 0 14 2 1 9 -8 6 -18 7 -22 5 -4 -3 -8 -2 -8 2 0 13 62 123 82 144 11
12 18 23 16 26 -10 10 -55 -48 -83 -105 -45 -95 -58 -79 -29 36 9 35 14 69 11
75 -2 7 -8 0 -12 -17z"/>
<path d="M7356 4254 c-3 -8 -10 -12 -16 -9 -11 7 -47 -67 -75 -157 -12 -37
-22 -55 -31 -51 -27 10 -44 -52 -44 -161 0 -95 2 -107 20 -118 15 -10 20 -24
20 -56 0 -60 61 -175 111 -210 18 -12 16 -6 -10 23 -49 57 -94 157 -89 200 3
27 0 36 -13 40 -23 8 -34 75 -26 164 6 76 15 103 31 98 14 -5 36 17 36 35 0
13 38 121 59 168 l11 25 -5 -28 c-3 -15 -12 -64 -21 -109 -8 -44 -23 -92 -32
-106 -26 -39 -24 -284 1 -309 17 -17 18 -17 7 11 -20 53 -15 223 9 294 11 35
23 80 26 100 10 65 28 126 43 150 8 12 10 22 4 22 -5 0 -13 -7 -16 -16z"/>
<path d="M7551 4241 c-32 -44 -81 -153 -81 -178 0 -14 6 -23 15 -23 8 0 15 5
15 11 0 5 -4 7 -10 4 -5 -3 -10 -1 -10 5 0 21 67 155 89 177 11 12 17 24 12
28 -5 3 -19 -8 -30 -24z"/>
<path d="M6601 4195 c-19 -31 -31 -58 -29 -61 3 -3 14 10 25 29 11 19 28 46
38 60 9 15 13 27 8 27 -5 0 -24 -25 -42 -55z"/>
<path d="M8631 4236 c-1 -15 -4 -16 -16 -6 -11 9 -7 -8 11 -56 14 -38 28 -71
30 -73 8 -9 3 25 -11 64 -22 63 -10 52 24 -21 17 -37 34 -65 36 -62 3 3 -12
43 -34 89 -22 46 -40 76 -40 65z"/>
<path d="M8836 4186 c26 -36 52 -66 56 -66 12 0 -77 123 -92 128 -6 2 10 -26
36 -62z"/>
<path d="M8730 4236 c0 -34 64 -146 84 -146 9 0 4 11 -14 30 -15 16 -34 50
-41 75 -7 25 -17 45 -21 45 -4 0 -8 -2 -8 -4z"/>
<path d="M6774 4168 c-52 -82 -64 -111 -64 -157 0 -42 20 -60 40 -36 8 10 7
13 -7 11 -15 -1 -18 6 -16 36 3 40 28 98 75 166 16 23 25 42 21 42 -5 0 -27
-28 -49 -62z"/>
<path d="M8711 4204 c-1 -17 3 -44 8 -60 5 -16 12 -41 15 -56 4 -16 10 -28 15
-28 8 0 0 40 -29 145 l-8 30 -1 -31z"/>
<path d="M6894 4148 c-11 -21 -19 -66 -22 -125 -5 -95 1 -143 19 -143 6 0 5 8
-2 22 -16 29 -4 200 16 241 8 16 13 32 11 35 -3 2 -12 -11 -22 -30z"/>
<path d="M6808 4143 c-6 -16 -11 -66 -11 -113 0 -95 20 -160 49 -160 16 0 17
1 1 13 -26 20 -37 63 -37 148 0 52 5 90 15 109 9 18 11 30 5 30 -6 0 -16 -12
-22 -27z"/>
<path d="M7758 4075 c-3 -14 -2 -45 2 -68 4 -23 10 -62 13 -87 3 -25 15 -70
27 -100 17 -43 21 -67 16 -109 -9 -79 3 -153 25 -158 15 -4 19 -15 19 -49 0
-23 4 -45 8 -48 5 -3 7 23 5 57 -6 99 -13 146 -25 153 -8 5 -9 1 -4 -12 5 -10
10 -36 13 -58 5 -30 3 -38 -8 -34 -11 4 -14 33 -14 140 0 75 -3 132 -6 126
-10 -16 -19 60 -20 172 -1 79 -3 95 -9 65 -4 -21 -6 -57 -3 -80 4 -35 3 -38
-8 -20 -7 11 -13 46 -13 77 -1 60 -10 76 -18 33z"/>
<path d="M8380 4085 c0 -2 12 -39 26 -82 27 -83 27 -125 -2 -205 -19 -55 -11
-60 10 -7 14 33 47 179 46 199 0 3 -7 -3 -14 -13 -12 -16 -15 -13 -30 32 -9
27 -16 57 -16 65 0 9 -4 16 -10 16 -5 0 -10 -2 -10 -5z"/>
<path d="M8818 4015 c3 -48 -1 -75 -17 -110 -11 -25 -15 -43 -10 -39 22 13 39
75 39 138 0 36 -3 67 -7 69 -5 3 -7 -23 -5 -58z"/>
<path d="M8870 4065 c-9 -10 -9 -15 -1 -15 6 0 11 -12 11 -26 0 -37 -31 -125
-46 -131 -7 -2 -10 -11 -7 -19 3 -9 -12 -32 -40 -58 -25 -25 -41 -48 -37 -52
5 -5 1 -46 -10 -93 -10 -46 -14 -79 -9 -74 12 12 39 116 39 151 1 23 49 92 65
92 10 0 5 -152 -6 -172 -15 -28 -3 -35 13 -6 8 14 14 62 15 128 1 77 7 121 22
164 31 86 25 152 -9 111z"/>
<path d="M9097 4073 c-12 -11 -8 -25 5 -17 8 5 9 -7 5 -47 -17 -147 -18 -164
-7 -141 14 33 25 212 13 212 -5 0 -13 -3 -16 -7z"/>
<path d="M7121 4042 c-24 -45 -6 -237 24 -262 12 -10 12 -8 1 16 -20 40 -31
192 -17 228 14 34 7 47 -8 18z"/>
<path d="M8195 4045 c10 -29 30 -111 45 -180 15 -73 30 -115 41 -115 4 0 10
-8 12 -17 2 -10 2 2 0 27 -2 25 -4 80 -5 122 -2 44 -6 72 -11 65 -4 -7 -6 -50
-3 -97 l5 -85 -14 60 c-8 33 -22 92 -31 132 -9 40 -23 80 -31 90 -14 17 -14
17 -8 -2z"/>
<path d="M8372 3999 c10 -30 6 -144 -9 -233 -4 -26 -3 -37 4 -33 11 7 28 151
25 202 -4 57 -13 95 -22 95 -5 0 -4 -14 2 -31z"/>
<path d="M8674 4004 c-4 -10 -10 -23 -12 -29 -3 -5 1 -4 10 2 13 11 13 2 -3
-70 -21 -97 -21 -97 -11 -97 13 0 45 191 33 203 -7 7 -12 4 -17 -9z"/>
<path d="M7330 3970 c-16 -30 -10 -284 7 -301 10 -10 11 -6 3 22 -11 38 -14
228 -4 254 5 13 8 14 15 3 7 -10 9 -10 9 2 0 8 -4 21 -9 29 -7 11 -11 9 -21
-9z"/>
<path d="M7660 3986 c0 -3 10 -16 23 -29 22 -24 34 -60 57 -165 12 -52 11 -67
-9 -167 -12 -60 -14 -162 -3 -168 4 -3 7 27 7 66 0 40 5 90 10 112 l9 40 6
-60 7 -60 1 80 c3 148 -51 355 -93 355 -8 0 -15 -2 -15 -4z"/>
<path d="M8490 3908 c-7 -40 -16 -89 -21 -108 -11 -44 -11 -60 0 -60 4 0 11
19 14 43 8 61 25 156 32 178 4 10 2 19 -3 19 -5 0 -15 -33 -22 -72z"/>
<path d="M7644 3938 c19 -84 26 -159 28 -282 1 -125 2 -132 8 -61 3 44 2 130
-2 190 -12 157 -14 169 -27 173 -8 3 -10 -4 -7 -20z"/>
<path d="M8950 3858 c-6 -40 -15 -89 -20 -107 -12 -43 -4 -54 10 -16 13 34 34
184 27 191 -3 3 -10 -28 -17 -68z"/>
<path d="M6044 3848 c-40 -56 -84 -148 -84 -176 0 -9 -6 -34 -14 -55 -11 -32
-25 -45 -76 -74 -65 -37 -139 -107 -243 -228 -72 -84 -229 -234 -304 -291 -53
-40 -175 -106 -221 -119 -13 -4 -55 -25 -93 -46 -38 -22 -74 -37 -79 -34 -6 3
-10 -1 -10 -10 0 -9 -4 -14 -9 -11 -5 3 -16 -4 -24 -17 -8 -12 -75 -91 -148
-174 -122 -137 -193 -219 -316 -364 -24 -27 -43 -54 -43 -58 0 -5 13 -14 29
-19 16 -6 56 -34 88 -64 32 -29 83 -66 114 -81 38 -18 76 -49 118 -97 35 -38
67 -70 73 -70 5 0 -23 36 -62 79 -50 56 -87 87 -126 105 -29 14 -80 50 -113
80 -32 30 -68 57 -80 61 -12 4 -21 11 -19 17 2 6 40 51 85 102 45 50 116 132
160 183 199 234 259 301 266 302 4 1 26 12 48 27 64 40 100 59 164 84 65 26
157 77 219 122 53 38 240 220 301 293 82 99 178 188 232 218 l51 27 -5 -42
c-3 -24 -16 -79 -30 -123 -40 -124 -42 -253 -8 -391 14 -60 32 -136 40 -169
64 -280 83 -355 130 -515 25 -85 59 -222 76 -305 42 -202 40 -195 50 -195 5 0
5 10 0 23 -5 12 -21 85 -36 162 -25 127 -51 232 -104 415 -18 61 -29 105 -65
263 -8 34 -36 149 -62 255 -56 234 -57 305 -5 463 17 53 31 106 31 117 0 12
14 72 30 133 22 78 41 127 68 167 48 71 54 82 49 82 -3 0 -22 -23 -43 -52z"/>
<path d="M9250 3813 c-5 -77 -4 -762 1 -883 l4 -95 -68 -136 c-112 -226 -436
-690 -528 -758 -45 -33 -130 -71 -161 -71 -23 0 -29 -6 -38 -39 l-10 -38 -78
-7 c-42 -3 -106 -2 -142 4 -90 13 -115 11 -55 -6 30 -8 101 -14 175 -15 170
-1 220 -10 395 -75 50 -18 108 -38 131 -44 22 -5 54 -21 70 -35 16 -14 34 -25
40 -25 13 0 46 36 104 114 25 32 64 73 87 90 44 32 58 55 22 36 -36 -20 -97
-80 -136 -134 -20 -28 -45 -61 -56 -73 l-20 -22 -29 24 c-16 13 -61 34 -99 45
-39 12 -83 29 -99 38 l-28 18 34 37 c35 38 84 56 154 57 49 0 184 43 229 73
75 50 116 171 197 572 16 81 19 255 4 255 -6 0 -10 -41 -10 -102 0 -71 -8
-141 -25 -223 -14 -66 -28 -133 -31 -150 -18 -102 -62 -233 -97 -293 -35 -59
-141 -103 -297 -123 -36 -4 -92 -13 -125 -19 -75 -13 -213 -31 -241 -31 -12 0
-30 4 -41 8 -18 7 -19 11 -6 41 9 23 20 32 36 32 28 0 134 52 167 82 51 47
273 338 330 433 13 22 40 63 60 90 52 71 100 158 170 309 31 67 32 73 25 152
-9 110 -9 836 0 897 4 28 3 47 -2 47 -5 0 -11 -26 -13 -57z m-506 -2054 l-30
-30 -59 15 c-32 9 -60 17 -62 19 -5 5 170 34 176 30 3 -2 -9 -17 -25 -34z"/>
<path d="M8686 3761 c-4 -5 -1 -11 6 -13 9 -3 8 -18 -1 -64 -23 -100 -23 -136
-1 -64 20 69 26 150 11 150 -6 0 -12 -4 -15 -9z"/>
<path d="M7840 3740 c0 -5 5 -10 11 -10 5 0 7 5 4 10 -3 6 -8 10 -11 10 -2 0
-4 -4 -4 -10z"/>
<path d="M8054 3590 c0 -74 1 -105 3 -67 2 37 2 97 0 135 -2 37 -3 6 -3 -68z"/>
<path d="M8622 3684 c-1 -20 -9 -65 -18 -100 -19 -79 -12 -97 9 -22 21 73 30
145 19 152 -5 3 -9 -11 -10 -30z"/>
<path d="M8185 3633 c0 -32 -4 -87 -8 -123 -5 -44 -5 -60 2 -49 13 21 27 229
15 229 -5 0 -9 -26 -9 -57z"/>
<path d="M8364 3678 c-4 -7 -3 -8 4 -4 8 4 16 -4 23 -21 10 -26 8 -84 -6 -178
-5 -32 -4 -36 5 -22 17 26 25 189 11 215 -13 24 -26 28 -37 10z"/>
<path d="M8126 3671 c-4 -5 -1 -11 6 -13 9 -3 9 -28 2 -101 -6 -62 -6 -93 1
-86 13 13 20 209 7 209 -6 0 -13 -4 -16 -9z"/>
<path d="M8265 3633 c-3 -27 -12 -78 -19 -115 -15 -80 -4 -92 12 -15 13 61 25
177 18 177 -3 0 -8 -21 -11 -47z"/>
<path d="M8323 3567 c0 -67 3 -102 7 -87 11 35 12 188 1 194 -4 3 -8 -45 -8
-107z"/>
<path d="M8476 3648 c3 -18 -1 -69 -9 -113 -16 -83 -15 -107 3 -60 16 41 25
205 12 205 -7 0 -9 -13 -6 -32z"/>
<path d="M7792 3565 c0 -44 3 -89 7 -100 4 -11 6 18 4 65 -6 116 -11 131 -11
35z"/>
<path d="M9338 3374 c70 -59 84 -97 88 -247 2 -72 6 -132 9 -135 11 -11 3 254
-8 283 -21 52 -48 90 -81 113 -50 34 -56 25 -8 -14z"/>
<path d="M9434 2813 c-14 -96 -9 -271 10 -363 23 -114 78 -287 116 -365 6 -11
24 -63 41 -115 17 -52 63 -155 102 -229 39 -74 79 -155 88 -180 9 -25 31 -77
49 -116 51 -109 158 -360 197 -465 20 -52 47 -124 61 -160 13 -36 28 -78 33
-95 4 -16 29 -102 54 -190 26 -88 51 -176 56 -195 6 -19 14 -48 19 -65 20 -72
48 -149 49 -134 1 9 -7 42 -18 75 -28 89 -58 194 -71 244 -32 124 -91 322
-101 335 -4 6 -18 44 -32 85 -39 114 -56 159 -83 217 -13 30 -24 56 -24 58 0
2 -13 33 -29 67 -15 35 -32 74 -36 88 -4 14 -25 61 -46 105 -20 44 -47 105
-59 135 -20 52 -47 107 -128 260 -18 36 -45 99 -59 140 -14 41 -46 131 -73
200 -93 243 -114 349 -107 530 3 69 8 140 12 158 4 19 3 32 -2 32 -6 0 -14
-26 -19 -57z"/>
<path d="M9494 2832 c3 -5 19 -12 36 -15 20 -4 39 -20 57 -47 16 -22 50 -70
76 -106 27 -36 62 -95 79 -132 17 -37 51 -99 76 -137 44 -70 49 -74 172 -144
19 -11 91 -47 160 -80 76 -36 164 -88 225 -133 55 -41 127 -89 160 -107 33
-17 79 -49 102 -70 l42 -38 -20 -73 c-24 -92 -24 -114 1 -165 21 -42 74 -87
145 -119 22 -10 94 -53 160 -96 141 -91 215 -134 215 -126 0 3 -33 27 -72 52
-40 26 -111 72 -158 103 -46 31 -103 64 -125 74 -83 37 -133 77 -155 123 -22
43 -22 46 -5 119 10 46 23 79 33 85 15 9 10 16 -33 55 -27 25 -86 68 -131 94
-44 27 -119 77 -167 112 -92 68 -119 84 -262 149 -158 72 -220 115 -270 186
-24 36 -55 88 -67 117 -27 65 -175 285 -203 302 -26 16 -78 29 -71 17z"/>
<path d="M4590 2680 c-36 -10 -99 -30 -140 -45 -41 -14 -136 -48 -210 -74 -74
-27 -162 -58 -195 -70 -99 -36 -344 -118 -440 -146 -49 -15 -133 -39 -185 -55
-251 -75 -560 -160 -685 -189 -49 -11 -119 -27 -155 -35 -36 -8 -104 -29 -152
-46 -78 -27 -212 -65 -378 -105 -177 -44 -420 -145 -346 -145 8 0 16 5 18 10
6 19 220 92 413 140 105 26 231 62 280 79 93 33 144 47 375 101 292 68 1016
285 1270 380 47 18 128 47 180 65 52 18 119 42 148 54 29 12 99 35 155 51 56
17 106 35 111 40 6 6 8 10 6 9 -3 -1 -34 -9 -70 -19z"/>
<path d="M7561 2096 c14 -8 61 -18 105 -21 89 -8 175 -33 249 -73 41 -22 62
-45 117 -127 36 -55 71 -101 78 -103 12 -4 -56 103 -113 179 -56 73 -165 119
-332 137 -49 6 -99 13 -110 17 -12 4 -10 1 6 -9z"/>
<path d="M7318 2032 c-46 -30 -126 -97 -368 -307 -69 -60 -150 -130 -180 -155
-30 -25 -93 -78 -140 -119 -90 -79 -192 -148 -250 -171 -49 -19 -63 -31 -51
-43 7 -7 17 -5 30 7 10 9 45 31 77 47 62 32 111 68 184 133 25 23 84 73 130
111 46 39 107 90 135 115 29 25 90 77 136 117 46 40 123 106 171 147 129 110
164 128 246 127 37 -1 85 -6 107 -11 22 -5 63 -10 90 -10 70 0 158 -23 203
-52 35 -23 72 -41 72 -34 0 12 -119 81 -153 88 -48 10 -194 26 -312 34 -76 5
-82 4 -127 -24z"/>
<path d="M7397 1938 c11 -13 28 -41 37 -63 10 -22 24 -53 32 -69 8 -16 14 -33
14 -37 0 -4 -33 -26 -72 -48 -40 -22 -86 -51 -103 -65 l-30 -24 -38 19 c-21
11 -71 28 -111 38 -41 10 -80 22 -86 26 -8 5 -11 3 -8 -5 2 -7 41 -23 85 -35
45 -12 99 -29 121 -39 l39 -18 64 45 c35 24 109 66 164 93 l100 49 140 3 c87
2 169 -2 218 -11 42 -7 77 -10 77 -5 0 4 -1 8 -2 8 -2 1 -39 7 -83 15 -44 8
-132 15 -195 15 -98 0 -125 -4 -184 -25 -37 -14 -72 -22 -77 -19 -5 3 -21 31
-35 62 -31 67 -61 112 -76 112 -7 0 -2 -10 9 -22z"/>
<path d="M9220 1951 c0 -5 11 -12 25 -15 31 -8 111 -88 157 -157 39 -60 115
-243 148 -359 33 -111 86 -245 132 -330 75 -137 97 -156 120 -104 9 20 7 47
-10 137 -20 105 -35 191 -46 262 -12 81 -45 247 -50 252 -11 12 -6 -35 19
-163 13 -71 31 -169 40 -219 8 -49 22 -125 30 -167 12 -61 13 -83 4 -100 l-12
-22 -21 27 c-28 35 -109 196 -139 277 -14 36 -45 129 -70 208 -79 243 -164
389 -265 453 -48 30 -62 35 -62 20z"/>
<path d="M4900 1830 l35 -18 -30 -7 c-16 -4 -66 -16 -110 -27 -84 -21 -159
-38 -260 -58 -33 -6 -80 -19 -105 -27 -25 -8 -87 -28 -139 -43 -73 -22 -101
-36 -124 -61 -27 -30 -28 -36 -22 -88 7 -54 21 -95 100 -286 35 -84 75 -194
146 -395 37 -106 56 -157 107 -290 60 -155 107 -286 132 -368 13 -40 25 -70
28 -67 10 10 -47 180 -173 510 -26 68 -98 268 -154 430 -26 74 -44 118 -137
340 -37 87 -42 143 -20 197 14 33 17 35 193 85 98 29 214 59 258 67 44 9 121
27 170 41 50 13 100 25 111 25 12 0 27 6 33 14 10 12 7 18 -18 30 -16 9 -36
16 -43 16 -7 -1 3 -9 22 -20z"/>
<path d="M10780 1758 c3 -3 88 -38 190 -77 102 -40 235 -92 295 -116 61 -24
135 -52 165 -61 30 -9 73 -25 95 -34 22 -10 68 -29 102 -43 64 -26 169 -94
283 -182 36 -28 84 -64 107 -79 24 -16 67 -56 97 -90 73 -84 214 -273 222
-299 9 -29 54 -100 60 -95 2 3 -14 40 -37 83 -71 138 -240 348 -329 410 -30
21 -75 55 -100 75 -146 119 -310 208 -488 265 -40 13 -193 71 -340 129 -242
95 -336 128 -322 114z"/>
<path d="M6181 1734 c-1 -23 8 -73 39 -209 26 -114 87 -409 95 -455 3 -19 14
-75 24 -125 23 -110 36 -192 56 -355 16 -127 23 -162 24 -124 1 30 -49 392
-64 459 -3 17 -10 48 -15 70 -5 22 -14 69 -20 105 -22 131 -58 304 -79 390 -5
19 -17 78 -26 130 -9 52 -21 104 -25 115 -8 20 -9 20 -9 -1z"/>
<path d="M1595 1710 c-49 -10 -176 -56 -230 -82 -101 -50 -285 -271 -339 -408
-49 -121 -55 -157 -66 -350 -10 -182 6 -630 22 -630 4 0 8 15 8 33 0 17 3 43
7 56 4 15 2 22 -4 18 -23 -14 -32 485 -12 647 22 179 106 348 248 498 98 103
120 118 232 159 119 42 195 59 210 45 8 -8 10 -7 7 4 -5 18 -30 21 -83 10z"/>
<path d="M1821 1671 c92 -49 207 -186 299 -356 24 -44 62 -114 85 -155 87
-155 245 -521 296 -685 35 -116 49 -156 60 -177 20 -37 19 -12 0 38 -11 27
-33 92 -49 144 -71 227 -199 514 -367 825 -116 213 -253 364 -355 389 -14 4 0
-7 31 -23z"/>
<path d="M7361 1548 c24 -50 186 -218 209 -218 9 0 21 5 28 12 9 9 20 2 48
-30 20 -23 55 -55 77 -71 85 -58 191 -174 241 -261 112 -197 132 -216 192
-181 34 20 50 22 196 22 97 -1 168 -5 180 -12 12 -6 58 -24 102 -39 45 -14 89
-30 99 -34 9 -5 17 -4 17 0 0 11 -33 25 -125 54 -38 12 -75 26 -81 31 -6 5
-89 10 -185 11 -151 2 -178 0 -199 -15 -13 -9 -32 -17 -40 -17 -21 0 -61 43
-93 100 -94 169 -144 231 -262 325 -27 22 -72 62 -98 89 -45 47 -50 49 -77 39
-27 -10 -32 -7 -114 77 -47 48 -93 104 -101 124 -8 20 -20 36 -25 36 -6 0 -1
-19 11 -42z"/>
<path d="M8960 1531 c-5 -11 -22 -52 -36 -92 -15 -40 -53 -126 -86 -190 -40
-79 -62 -136 -69 -180 -13 -81 -26 -299 -18 -299 3 0 9 48 13 108 13 199 22
236 92 372 35 69 77 164 92 213 29 87 32 104 12 68z"/>
<path d="M12110 1162 c0 -6 24 -13 53 -17 85 -12 109 -27 169 -106 63 -84 82
-120 91 -166 10 -50 35 -81 75 -94 62 -20 93 -49 125 -117 33 -71 46 -155 46
-317 1 -68 7 -121 20 -165 11 -36 20 -55 20 -43 1 12 -4 34 -10 50 -6 15 -15
111 -19 213 -7 158 -11 193 -31 240 -33 82 -65 120 -123 145 -63 28 -81 48
-91 100 -6 35 -49 117 -79 148 -6 7 -24 29 -39 49 -33 45 -51 55 -114 68 -27
5 -58 12 -70 16 -13 4 -23 2 -23 -4z"/>
<path d="M11300 1050 c0 -6 7 -10 16 -8 22 4 58 -110 78 -251 9 -63 19 -117
21 -121 3 -4 14 -63 25 -131 11 -68 25 -140 30 -159 6 -19 19 -77 29 -128 11
-51 22 -96 25 -99 12 -12 5 29 -25 154 -17 70 -39 178 -49 238 -10 61 -25 155
-34 210 -34 206 -65 305 -97 305 -10 0 -19 -5 -19 -10z"/>
<path d="M8111 727 c0 -16 -5 -47 -10 -70 -5 -23 -19 -98 -31 -167 -29 -161
-70 -350 -82 -372 -5 -10 -5 -18 0 -18 16 0 39 90 91 370 35 190 43 245 38
265 -3 15 -5 13 -6 -8z"/>
<path d="M8760 687 c0 -16 84 -140 147 -217 62 -75 96 -147 124 -262 13 -54
27 -98 31 -98 4 0 6 6 4 13 -3 6 -14 53 -27 102 -29 118 -56 176 -120 255 -29
36 -77 100 -106 143 -29 43 -53 72 -53 64z"/>
<path d="M8534 645 c2 -16 25 -100 50 -185 26 -85 51 -173 57 -195 6 -22 16
-53 22 -70 12 -37 57 -98 65 -91 3 4 -4 16 -15 29 -22 24 -41 72 -72 189 -17
65 -78 261 -102 328 -8 24 -9 23 -5 -5z"/>
<path d="M8630 612 c0 -7 4 -20 9 -30 25 -46 112 -387 115 -444 1 -40 16 -54
16 -15 0 22 -21 130 -39 197 -5 19 -13 46 -16 60 -36 135 -84 267 -85 232z"/>
<path d="M12362 579 c42 -34 95 -217 113 -396 4 -35 11 -63 16 -63 10 0 7 23
-18 180 -25 154 -73 276 -114 288 -9 3 -8 0 3 -9z"/>
<path d="M6421 401 c0 -25 3 -70 9 -100 31 -174 41 -226 47 -231 3 -3 3 13 -1
35 -10 55 -25 154 -41 255 -10 68 -13 76 -14 41z"/>
</g>
</svg>
