<?xml version="1.0" standalone="no"?>
<!DOCTYPE svg PUBLIC "-//W3C//DTD SVG 20010904//EN"
 "http://www.w3.org/TR/2001/REC-SVG-20010904/DTD/svg10.dtd">
<svg version="1.0" xmlns="http://www.w3.org/2000/svg"
 width="804.000000pt" height="1138.000000pt" viewBox="0 0 804.000000 1138.000000"
 preserveAspectRatio="xMidYMid meet">
<metadata>
Created by potrace 1.16, written by Peter Selinger 2001-2019
</metadata>
<g transform="translate(0.000000,1138.000000) scale(0.100000,-0.100000)"
fill="#000000" stroke="none">
<path d="M4920 11326 c0 -9 8 -12 25 -9 39 8 109 -39 134 -90 12 -24 21 -50
21 -58 0 -8 5 -21 11 -29 7 -11 9 0 7 40 -2 34 -9 60 -18 67 -12 10 -6 12 34
13 58 0 119 -26 160 -69 37 -39 75 -119 70 -148 -3 -13 0 -23 6 -23 19 0 10
70 -14 119 -47 92 -128 145 -224 144 -34 0 -65 4 -68 8 -21 35 -144 65 -144
35z"/>
<path d="M4620 11295 c-10 -12 -10 -19 -2 -27 9 -9 12 -8 12 5 0 28 39 20 71
-14 15 -17 31 -47 34 -67 10 -57 18 -71 23 -37 12 93 -91 197 -138 140z"/>
<path d="M4250 11271 c0 -6 10 -11 22 -11 37 0 170 -41 246 -75 76 -36 98 -34
34 3 -98 55 -302 111 -302 83z"/>
<path d="M4300 11171 c0 -5 9 -19 20 -32 l20 -24 -6 29 -7 29 52 -29 c29 -16
68 -44 88 -61 40 -37 43 -38 43 -19 0 17 -60 66 -117 95 -43 21 -93 28 -93 12z"/>
<path d="M4850 11171 c0 -5 12 -11 28 -14 15 -4 51 -20 80 -37 43 -25 52 -35
47 -50 -7 -23 13 -28 21 -6 10 26 -15 54 -78 85 -61 31 -98 39 -98 22z"/>
<path d="M3617 11161 c-18 -6 -18 -8 -2 -21 12 -10 21 -11 33 -4 30 20 260
-48 319 -94 22 -16 20 -17 -62 -15 -47 0 -87 -3 -91 -8 -6 -11 -11 -10 91 -13
79 -3 185 -36 185 -57 0 -5 5 -9 10 -9 28 0 4 31 -38 52 -27 13 -53 32 -58 43
-25 55 -320 150 -387 126z"/>
<path d="M3990 11151 c0 -16 34 -27 126 -41 106 -16 157 -37 151 -61 -3 -11
-1 -19 4 -19 5 0 9 11 9 25 0 36 -35 54 -152 75 -57 10 -111 22 -120 25 -11 4
-18 3 -18 -4z"/>
<path d="M4516 11101 c-4 -5 3 -13 15 -16 48 -16 171 -231 204 -360 20 -80 20
-243 -1 -273 -13 -19 -13 -22 -1 -22 26 0 42 60 41 150 -3 143 -53 294 -142
425 -46 68 -104 116 -116 96z"/>
<path d="M5592 11088 c2 -6 22 -16 44 -23 62 -19 122 -53 171 -98 69 -64 156
-199 174 -272 l7 -30 1 35 c2 71 -107 249 -191 311 -52 38 -109 65 -166 77
-30 7 -42 7 -40 0z"/>
<path d="M3173 11083 c-23 -9 -14 -25 10 -19 64 16 148 -48 203 -156 18 -34
29 -47 32 -36 4 20 -30 90 -70 140 -44 56 -128 90 -175 71z"/>
<path d="M4000 11080 c0 -14 14 -19 97 -34 45 -8 110 -29 153 -50 41 -20 88
-36 105 -36 38 0 85 -29 119 -72 35 -47 89 -166 121 -270 15 -49 31 -88 36
-88 12 0 1 52 -34 150 -70 202 -147 300 -236 300 -16 0 -66 18 -111 39 -50 25
-103 42 -138 46 -31 4 -69 10 -84 15 -16 5 -28 5 -28 0z"/>
<path d="M3450 11070 c0 -5 15 -10 33 -10 75 -1 147 -59 147 -120 0 -13 4 -19
11 -14 14 8 5 56 -17 88 -8 14 -35 34 -58 46 -44 21 -116 27 -116 10z"/>
<path d="M3641 11064 c6 -8 27 -14 47 -14 27 0 42 -8 68 -35 18 -19 34 -45 37
-57 3 -21 4 -22 12 -4 12 27 -20 80 -59 99 -17 9 -50 18 -74 21 -36 3 -41 2
-31 -10z"/>
<path d="M2944 11039 c-2 -5 8 -11 23 -15 128 -27 193 -48 225 -70 21 -15 35
-30 32 -35 -3 -5 2 -9 10 -9 50 0 -29 74 -105 99 -61 20 -179 39 -185 30z"/>
<path d="M4770 11041 c0 -14 22 -26 41 -23 23 4 75 -63 99 -125 28 -75 44
-213 37 -327 -5 -75 -4 -97 5 -88 17 17 23 227 9 307 -7 36 -21 92 -33 122
-25 68 -95 143 -133 143 -14 0 -25 -4 -25 -9z"/>
<path d="M5067 11043 c-13 -13 -7 -35 8 -29 19 7 52 -37 98 -129 47 -95 85
-220 104 -340 20 -133 13 -419 -16 -605 -49 -317 -117 -659 -145 -722 -5 -11
-4 -18 2 -18 39 0 168 654 193 977 20 260 -13 486 -101 688 -23 52 -60 115
-82 140 -40 45 -49 51 -61 38z"/>
<path d="M5473 11043 c-21 -8 -15 -23 22 -64 70 -78 99 -167 116 -351 24 -277
-43 -804 -146 -1143 -40 -133 -134 -344 -224 -505 -56 -101 -70 -141 -31 -90
25 31 159 294 195 380 134 318 219 743 231 1150 9 304 -23 460 -118 566 -19
22 -33 45 -31 52 5 13 5 13 -14 5z"/>
<path d="M5611 10986 c-8 -10 -8 -16 3 -25 11 -9 15 -9 19 1 6 17 30 -14 84
-111 50 -91 74 -106 38 -24 -45 100 -99 173 -128 173 -3 0 -10 -6 -16 -14z"/>
<path d="M2832 10979 c2 -6 32 -23 66 -37 34 -15 85 -44 112 -64 31 -23 50
-32 50 -23 0 20 -70 72 -144 105 -70 32 -90 36 -84 19z"/>
<path d="M5930 10957 c8 -7 34 -19 57 -26 48 -13 87 -55 103 -109 16 -55 23
-231 12 -279 -5 -24 -6 -43 -1 -43 27 0 39 201 18 299 -12 58 -56 124 -96 144
-16 8 -46 18 -68 21 -35 7 -38 6 -25 -7z"/>
<path d="M4063 10923 c-7 -2 -13 -11 -13 -19 0 -11 5 -12 18 -5 46 24 143 -44
187 -133 26 -52 35 -39 11 18 -36 87 -146 163 -203 139z"/>
<path d="M2484 10906 c-24 -18 -13 -31 14 -17 46 25 206 7 229 -25 12 -16 13
-16 13 5 0 33 -53 51 -153 51 -56 0 -89 -5 -103 -14z"/>
<path d="M5360 10888 c0 -7 11 -28 25 -48 34 -49 63 -171 76 -318 31 -340 -78
-933 -245 -1337 -41 -97 -68 -147 -99 -182 -11 -13 -16 -23 -10 -23 46 0 150
220 228 481 43 145 107 471 136 689 16 125 13 383 -6 495 -17 100 -45 190 -73
233 -16 24 -32 29 -32 10z"/>
<path d="M3764 10862 c3 -5 34 -13 68 -17 95 -10 138 -24 164 -52 18 -19 24
-22 24 -10 0 23 -35 52 -78 65 -57 16 -186 27 -178 14z"/>
<path d="M2203 10836 c2 -6 23 -15 48 -19 122 -22 174 -52 166 -94 -3 -15 0
-22 7 -20 34 11 6 76 -44 102 -40 21 -182 45 -177 31z"/>
<path d="M2548 10814 c-17 -16 -6 -21 40 -17 44 5 135 -7 175 -22 9 -4 17 -3
17 3 0 6 -15 15 -32 22 -40 14 -190 25 -200 14z"/>
<path d="M3157 10813 c-14 -14 -6 -18 36 -18 50 0 127 -49 165 -105 17 -26 22
-29 22 -14 0 22 -54 78 -114 118 -36 24 -94 35 -109 19z"/>
<path d="M3362 10794 c-32 -22 -27 -37 7 -19 24 12 40 13 85 4 76 -14 195 -55
219 -76 16 -14 19 -15 15 -3 -8 25 -98 68 -189 90 -104 24 -108 24 -137 4z"/>
<path d="M2015 10780 c3 -5 14 -10 23 -10 25 -1 151 -56 175 -77 15 -14 19
-15 15 -3 -6 21 -157 99 -191 100 -16 0 -26 -4 -22 -10z"/>
<path d="M2966 10761 c-3 -4 21 -11 52 -14 32 -2 76 -14 98 -25 44 -22 121
-96 130 -124 5 -18 24 -26 24 -10 0 11 -29 53 -64 91 -41 45 -139 91 -193 91
-23 0 -44 -4 -47 -9z"/>
<path d="M3806 10752 c-3 -3 -6 -17 -6 -31 1 -24 1 -25 15 -8 13 18 15 18 57
-11 66 -45 152 -135 203 -213 90 -135 183 -360 234 -564 41 -166 76 -501 69
-673 -3 -87 2 -112 16 -76 18 47 -7 455 -38 632 -18 96 -83 320 -127 428 -70
178 -148 305 -244 399 -59 58 -168 129 -179 117z"/>
<path d="M6285 10683 c158 -194 184 -458 84 -873 -41 -173 -74 -270 -126 -373
-47 -91 -130 -192 -139 -169 -9 20 -23 14 -17 -8 8 -31 35 -24 80 23 87 89
153 236 213 472 60 237 73 332 68 508 -4 132 -8 162 -32 232 -33 95 -55 134
-115 198 -61 65 -72 59 -16 -10z"/>
<path d="M4302 10718 c-7 -7 -12 -21 -12 -32 0 -20 1 -20 16 2 20 29 32 28 87
-9 55 -36 112 -118 157 -225 57 -137 246 -706 264 -794 31 -154 40 -284 27
-388 -6 -52 -10 -97 -8 -99 3 -2 10 33 17 78 28 178 -6 424 -95 699 -183 562
-251 703 -368 759 -50 24 -68 26 -85 9z"/>
<path d="M5750 10700 c0 -6 7 -21 16 -35 29 -45 46 -180 47 -370 0 -253 -28
-425 -107 -651 -36 -102 -52 -143 -175 -423 -40 -90 -70 -166 -67 -168 6 -6
36 53 131 262 127 279 184 447 220 650 22 122 31 396 16 516 -13 118 -46 229
-66 229 -8 0 -15 -5 -15 -10z"/>
<path d="M2725 10687 c-29 -22 -12 -32 19 -12 22 15 40 16 113 10 111 -9 133
-17 126 -45 -10 -37 21 -57 99 -65 190 -18 295 -109 477 -413 104 -172 246
-462 227 -462 -2 0 -36 54 -76 120 -187 313 -405 538 -673 693 -213 124 -382
128 -611 18 -148 -72 -318 -223 -343 -305 -14 -46 2 -47 17 -2 13 41 149 174
239 233 126 85 305 140 417 129 273 -27 628 -310 887 -706 161 -247 238 -411
253 -545 10 -80 24 -67 20 18 -3 73 -13 106 -113 367 -66 172 -231 483 -331
623 -69 96 -153 177 -219 210 -47 24 -129 43 -213 49 -30 3 -35 7 -38 32 -3
25 -1 28 17 23 12 -3 21 -1 21 3 0 16 -74 31 -185 36 -89 5 -114 3 -130 -9z"/>
<path d="M3620 10663 c124 -73 244 -211 328 -379 140 -280 215 -625 216 -996
1 -148 4 -184 14 -176 31 26 6 462 -39 688 -44 219 -151 492 -248 632 -89 129
-253 268 -315 268 -13 0 4 -14 44 -37z"/>
<path d="M3990 10690 c0 -9 15 -14 34 -11 35 6 184 -129 241 -219 138 -218
303 -767 331 -1099 4 -49 11 -78 17 -74 23 14 -18 294 -77 526 -105 404 -225
662 -373 797 -75 68 -173 114 -173 80z"/>
<path d="M5917 10591 c41 -84 63 -181 63 -276 0 -214 -56 -482 -141 -679 -58
-134 -230 -438 -304 -538 -72 -97 -72 -121 0 -30 106 134 297 477 359 643 72
195 119 534 97 697 -12 89 -41 184 -69 221 -36 48 -38 30 -5 -38z"/>
<path d="M2273 10633 c-40 -9 -73 -19 -73 -24 0 -12 10 -11 108 7 47 9 109 14
138 12 33 -2 53 1 51 7 -6 16 -145 15 -224 -2z"/>
<path d="M1570 10605 c0 -3 15 -11 34 -19 19 -8 74 -44 122 -80 81 -62 158
-106 212 -121 45 -13 19 11 -47 42 -37 18 -105 61 -151 96 -47 35 -95 69 -107
75 -22 12 -63 16 -63 7z"/>
<path d="M3346 10591 c-3 -5 18 -11 47 -13 83 -7 159 -48 242 -131 60 -60 81
-90 123 -177 55 -115 110 -279 147 -434 37 -157 85 -461 90 -565 3 -52 7 -96
9 -98 10 -10 17 85 11 150 -11 127 -65 436 -101 580 -96 380 -220 581 -415
672 -54 25 -142 34 -153 16z"/>
<path d="M2000 10565 c0 -8 18 -19 43 -25 57 -14 127 -47 127 -60 0 -6 5 -8
11 -5 17 11 -29 53 -75 68 -104 35 -106 36 -106 22z"/>
<path d="M6540 10560 c0 -19 4 -25 16 -22 7 1 22 -23 34 -55 19 -51 21 -71 17
-168 -10 -212 -92 -514 -198 -726 -102 -202 -244 -370 -459 -538 -14 -10 -22
-22 -19 -26 11 -10 149 107 261 222 122 126 202 243 265 384 94 215 166 518
167 709 1 107 -1 119 -27 173 -16 31 -35 57 -43 57 -8 0 -14 -4 -14 -10z"/>
<path d="M7020 10566 c0 -3 18 -29 40 -58 88 -116 107 -195 79 -330 -17 -81
-26 -77 -31 14 -7 125 -60 214 -112 190 -25 -11 -54 -52 -38 -52 5 0 17 9 27
20 28 31 42 24 71 -32 54 -106 44 -230 -42 -506 -93 -298 -177 -481 -284 -617
-61 -77 -151 -162 -187 -177 -23 -9 -24 -12 -10 -15 36 -9 181 129 268 254 90
131 186 366 270 662 16 58 33 107 38 111 20 11 54 176 55 260 1 75 -2 91 -28
140 -35 67 -116 162 -116 136z"/>
<path d="M6148 10498 c11 -101 8 -327 -7 -403 -18 -90 -111 -427 -157 -570
-66 -201 -164 -358 -270 -434 -25 -19 -59 -34 -75 -35 -31 -1 -38 -10 -15 -19
62 -24 209 107 285 252 48 92 66 140 130 346 147 475 169 629 126 888 -11 63
-25 42 -17 -25z"/>
<path d="M6694 10527 c-2 -7 2 -33 11 -57 23 -65 45 -203 45 -282 0 -181 -97
-453 -258 -726 -100 -169 -405 -573 -376 -499 3 9 2 17 -4 17 -15 0 -33 -58
-21 -66 17 -10 74 51 186 199 324 429 497 803 496 1077 -1 96 -23 226 -49 289
-11 25 -11 37 -3 47 9 11 8 14 -5 14 -9 0 -19 -6 -22 -13z"/>
<path d="M5067 10513 c-11 -10 -8 -45 2 -38 30 18 76 -123 92 -280 21 -208 -6
-411 -110 -827 -37 -148 -64 -268 -60 -268 9 0 7 -7 63 198 125 454 162 752
121 988 -22 123 -83 252 -108 227z"/>
<path d="M6879 10458 c13 -34 16 -81 16 -228 -1 -161 -4 -197 -24 -275 -74
-287 -281 -711 -443 -912 -55 -67 -137 -136 -177 -148 -22 -7 -23 -5 -17 21 6
24 5 26 -8 15 -9 -8 -16 -22 -16 -33 0 -54 88 -20 181 72 144 141 350 516 453
822 52 153 72 246 81 373 10 134 -20 335 -49 335 -11 0 -10 -8 3 -42z"/>
<path d="M7190 10483 c0 -4 7 -30 15 -57 23 -76 19 -208 -9 -312 -34 -125
-151 -463 -193 -559 -43 -96 -148 -283 -213 -380 -58 -87 -73 -115 -61 -115
16 0 192 280 257 408 55 108 138 340 247 692 18 58 15 208 -6 267 -16 47 -37
78 -37 56z"/>
<path d="M1400 10432 c0 -6 5 -14 10 -17 6 -3 8 -16 4 -29 -4 -17 5 -32 43
-67 27 -25 97 -100 156 -167 106 -119 141 -152 162 -152 12 0 -125 150 -262
286 -97 97 -112 126 -35 67 92 -70 201 -102 283 -83 51 13 119 65 119 91 0 8
-10 1 -21 -14 -43 -58 -127 -78 -216 -52 -80 24 -147 60 -199 107 -24 22 -44
36 -44 30z"/>
<path d="M2591 10378 c0 -13 3 -17 6 -10 13 32 173 2 300 -58 115 -54 194
-112 291 -215 167 -177 313 -434 408 -723 50 -149 56 -176 45 -194 -15 -25 -9
-34 9 -13 30 36 -50 306 -150 507 -142 283 -288 469 -460 585 -124 84 -289
143 -397 143 -49 0 -53 -2 -52 -22z"/>
<path d="M4846 10383 c-3 -3 -5 -20 -5 -37 1 -17 3 -23 6 -13 8 29 20 19 41
-35 58 -146 83 -315 89 -600 6 -265 -6 -420 -42 -564 -24 -95 -58 -174 -75
-174 -6 0 -10 -4 -10 -10 0 -20 28 -10 45 16 9 15 28 58 41 97 109 320 90
1008 -36 1256 -30 61 -42 75 -54 64z"/>
<path d="M6272 10348 c-14 -14 -16 -42 -3 -33 16 9 24 -61 17 -139 -9 -96 -47
-236 -102 -375 -59 -147 -227 -495 -260 -538 -33 -43 -21 -59 12 -18 35 43
245 471 288 586 69 187 80 242 81 381 0 127 -8 161 -33 136z"/>
<path d="M7383 10318 c-6 -7 -13 -71 -16 -143 -16 -370 -164 -735 -425 -1049
-109 -131 -324 -306 -375 -306 -16 0 -18 -3 -9 -12 9 -9 20 -8 48 5 19 10 39
15 44 12 5 -3 39 6 76 19 47 17 70 22 75 14 10 -16 114 -4 183 22 88 34 280
166 376 261 225 222 366 468 290 509 -22 12 -27 1 -9 -17 45 -45 -102 -285
-280 -459 -194 -191 -443 -332 -528 -300 -14 6 -3 15 45 41 124 66 297 230
434 412 63 83 163 276 199 383 23 67 32 215 16 254 -7 18 -8 18 -27 1 -24 -22
-29 -55 -5 -35 22 18 29 -9 21 -86 -12 -121 -94 -314 -201 -473 -64 -96 -211
-258 -308 -342 -59 -50 -116 -86 -203 -129 -67 -33 -127 -60 -134 -60 -7 0 15
20 49 45 298 219 554 632 641 1030 18 85 46 402 36 412 -2 2 -8 -2 -13 -9z"/>
<path d="M2380 10295 c-10 -12 -10 -19 -2 -27 9 -9 12 -8 12 6 0 17 7 18 83
12 236 -19 370 -95 585 -330 139 -151 248 -325 365 -582 35 -77 79 -182 98
-234 18 -52 35 -87 37 -77 7 37 -83 267 -180 460 -71 142 -144 256 -241 377
-154 191 -288 302 -438 360 -125 48 -293 66 -319 35z"/>
<path d="M1206 10241 c-3 -4 14 -12 37 -18 118 -32 211 -142 352 -416 48 -92
89 -166 92 -164 7 8 -52 141 -114 257 -94 178 -165 265 -251 309 -47 24 -111
41 -116 32z"/>
<path d="M2290 10174 c-47 -9 -90 -26 -90 -34 0 -15 22 -23 30 -11 22 36 244
29 366 -11 188 -61 357 -264 550 -658 39 -80 74 -155 78 -167 4 -13 12 -23 17
-23 17 0 2 38 -99 239 -211 422 -362 588 -586 646 -62 16 -223 27 -266 19z"/>
<path d="M2110 10028 c-29 -16 -39 -48 -15 -48 9 0 13 5 10 10 -14 22 51 32
170 26 211 -10 322 -53 440 -171 66 -67 241 -292 391 -504 32 -47 65 -86 73
-89 28 -9 -227 349 -381 534 -112 135 -193 193 -324 229 -81 22 -330 31 -364
13z"/>
<path d="M1103 9963 c-26 -10 -12 -22 20 -17 24 4 52 -4 117 -37 69 -35 103
-61 181 -138 64 -64 106 -117 128 -159 18 -35 31 -65 28 -68 -2 -3 -40 8 -83
24 -75 27 -80 31 -103 78 -36 70 -153 184 -226 219 -94 46 -225 46 -225 -1 0
-12 4 -12 25 2 36 24 118 14 191 -21 35 -17 86 -55 125 -94 61 -61 107 -127
96 -138 -3 -2 -23 1 -45 6 -52 14 -245 41 -251 36 -10 -11 12 -17 108 -31 162
-24 397 -101 395 -129 -2 -17 12 -20 21 -4 5 6 22 8 49 3 22 -4 90 -12 150
-18 l109 -11 19 -50 c17 -46 18 -25 2 32 -4 16 -1 23 15 28 17 5 37 -8 102
-69 141 -133 293 -222 459 -269 128 -37 319 -79 330 -72 16 10 12 28 -4 22
-22 -9 -351 76 -436 112 -107 44 -186 95 -290 185 -101 87 -158 156 -189 228
-22 52 -61 239 -61 293 0 31 -11 51 -22 40 -6 -6 10 -135 27 -220 8 -38 32
-104 54 -147 21 -43 36 -80 33 -83 -16 -16 -34 5 -75 90 -78 162 -198 315
-247 315 -29 0 -25 -13 10 -28 16 -8 58 -49 92 -92 64 -81 174 -275 161 -283
-11 -7 -190 11 -245 24 -31 7 -48 16 -48 26 0 26 -58 127 -109 188 -116 140
-315 258 -388 228z"/>
<path d="M2062 9846 c5 -80 65 -209 134 -285 122 -136 414 -334 488 -331 6 1
-17 14 -52 30 -71 33 -199 122 -321 223 -138 116 -219 244 -229 365 -6 83 -26
82 -20 -2z"/>
<path d="M2186 9862 c-35 -58 131 -195 394 -327 146 -73 241 -141 285 -205 29
-43 54 -55 34 -17 -47 88 -145 164 -317 247 -217 105 -368 216 -381 280 -4 23
-9 31 -15 22z"/>
<path d="M2363 9805 c2 -5 35 -13 73 -16 108 -10 160 -39 375 -205 118 -92
189 -166 224 -233 16 -31 24 -39 24 -26 2 64 -112 188 -299 329 -147 109 -224
147 -322 155 -52 5 -77 3 -75 -4z"/>
<path d="M820 9559 c0 -5 16 -16 36 -24 20 -8 83 -54 140 -102 58 -49 132
-105 166 -126 96 -58 200 -83 238 -57 11 8 8 9 -12 4 -76 -17 -191 43 -381
199 -65 53 -119 97 -120 97 -1 0 -17 4 -35 9 -19 6 -32 6 -32 0z"/>
<path d="M1712 9455 c2 -5 12 -27 23 -48 24 -47 14 -58 -53 -65 -49 -4 -302
31 -350 49 -28 11 -41 4 -25 -12 16 -16 260 -58 338 -59 39 0 81 6 95 13 38
19 38 58 0 99 -17 18 -30 29 -28 23z"/>
<path d="M7761 9349 c-3 -87 -243 -284 -514 -419 -128 -65 -285 -119 -295
-103 -9 13 -72 -4 -72 -19 0 -7 20 -9 63 -5 186 18 539 203 723 379 96 92 123
135 107 170 l-12 23 0 -26z"/>
<path d="M815 9290 c-97 -28 -163 -59 -185 -85 -11 -14 -11 -19 4 -33 16 -16
17 -16 11 0 -9 24 70 73 160 99 39 12 81 24 95 28 13 4 20 10 15 13 -6 3 -50
-7 -100 -22z"/>
<path d="M1977 9314 c-3 -4 -59 -24 -124 -46 -182 -60 -309 -78 -541 -78 -134
0 -193 -3 -186 -10 18 -18 395 -15 496 4 74 14 242 66 383 119 40 16 40 16 9
16 -17 1 -34 -2 -37 -5z"/>
<path d="M830 9164 c-58 -33 -102 -75 -155 -149 -69 -97 -98 -165 -71 -165 9
0 16 7 16 15 0 27 46 107 97 170 57 69 124 124 165 132 36 7 47 23 16 23 -13
0 -43 -12 -68 -26z"/>
<path d="M1914 9158 c-10 -11 -45 -38 -77 -59 -105 -68 -328 -103 -515 -80
-88 11 -302 77 -326 101 -12 12 -36 13 -36 1 0 -12 118 -63 220 -96 152 -48
398 -46 566 6 64 20 175 94 195 130 13 26 -3 24 -27 -3z"/>
<path d="M7800 9161 c0 -6 7 -11 16 -11 11 0 14 -5 10 -16 -3 -9 -6 -17 -6
-19 0 -11 -138 -99 -218 -139 -111 -56 -397 -176 -418 -176 -8 0 -12 5 -9 10
9 15 -1 12 -47 -11 -28 -15 -37 -24 -30 -31 23 -23 261 62 490 174 112 55 156
83 203 128 41 39 60 64 57 76 -3 20 -48 33 -48 15z"/>
<path d="M1043 8892 c-50 -59 -155 -175 -233 -257 -207 -218 -334 -422 -408
-655 -36 -116 -59 -267 -43 -283 12 -12 61 27 61 50 0 8 -11 2 -25 -14 l-25
-28 6 45 c25 203 101 398 232 600 65 101 171 230 189 230 7 0 22 -18 33 -39
11 -22 29 -42 40 -46 18 -6 10 -17 -64 -88 -146 -143 -261 -348 -368 -657 -62
-180 -99 -390 -68 -390 6 0 10 19 10 43 1 147 145 552 274 770 65 109 123 180
229 277 42 40 77 78 77 85 0 8 57 72 128 143 108 111 138 135 202 166 125 60
255 73 267 25 7 -25 23 -24 23 2 0 32 -61 53 -139 45 -133 -12 -278 -108 -434
-286 -110 -124 -119 -130 -152 -94 -14 15 -25 33 -25 40 0 7 -6 14 -12 16 -7
3 36 56 99 124 115 123 233 263 233 276 0 22 -24 -1 -107 -100z"/>
<path d="M930 8951 c-131 -51 -334 -233 -318 -283 3 -7 14 5 26 24 57 91 256
238 343 253 21 4 39 11 39 16 0 14 -41 10 -90 -10z"/>
<path d="M1685 8830 c-90 -51 -124 -66 -137 -59 -13 7 -23 1 -45 -24 -15 -19
-64 -57 -108 -87 -101 -66 -185 -137 -185 -156 0 -20 4 -18 42 17 42 40 145
117 180 135 25 13 23 5 -43 -134 -133 -278 -271 -586 -325 -723 -72 -186 -164
-454 -164 -479 0 -44 20 -5 61 118 95 287 301 773 487 1152 l57 115 149 86
c83 47 152 91 154 97 5 16 14 20 -123 -58z"/>
<path d="M800 8739 c0 -5 5 -7 10 -4 6 3 10 8 10 11 0 2 -4 4 -10 4 -5 0 -10
-5 -10 -11z"/>
<path d="M1571 8592 c-47 -93 -90 -230 -181 -576 -44 -170 -84 -314 -87 -319
-3 -6 -10 -27 -14 -46 -19 -90 -71 -292 -91 -351 -24 -74 -72 -176 -97 -204
-15 -17 -15 -18 3 -15 44 9 117 188 175 429 16 69 54 217 85 330 144 538 175
640 221 731 15 28 25 58 23 67 -3 11 -16 -7 -37 -46z"/>
<path d="M7401 8482 c-18 -33 -12 -49 8 -23 26 33 60 23 126 -40 117 -111 138
-274 84 -654 -21 -146 -73 -407 -89 -450 -5 -14 -6 -25 -1 -25 41 0 141 563
141 796 0 118 -13 184 -51 262 -51 104 -189 189 -218 134z"/>
<path d="M1054 8409 c-65 -86 -108 -164 -239 -432 -181 -371 -325 -709 -325
-762 0 -37 16 -30 23 10 8 48 166 412 305 700 121 252 179 362 244 458 51 75
44 95 -8 26z"/>
<path d="M7036 8442 c-3 -5 4 -18 15 -28 56 -51 124 -208 170 -394 20 -82 23
-120 23 -275 0 -145 -3 -188 -16 -222 -18 -45 -9 -61 10 -19 36 80 42 372 9
496 -37 139 -72 241 -107 315 -38 79 -92 146 -104 127z"/>
<path d="M7169 8433 c-12 -15 -12 -16 4 -10 42 16 125 -60 171 -156 31 -66 60
-185 77 -312 12 -89 6 -517 -7 -595 -5 -25 -3 -32 5 -25 18 17 34 200 34 390
-1 365 -65 588 -202 693 -48 36 -63 39 -82 15z"/>
<path d="M1515 8188 c-7 -18 -18 -69 -25 -113 -18 -125 -78 -378 -121 -507
-138 -416 -427 -888 -545 -888 -12 0 -26 -4 -29 -10 -13 -21 54 -9 93 18 45
30 82 70 161 176 28 38 51 67 51 64 0 -3 -24 -57 -54 -119 -30 -63 -67 -151
-82 -194 -27 -80 -38 -180 -19 -180 5 0 8 8 7 17 -13 78 168 497 300 694 28
41 48 78 44 81 -5 5 -14 -4 -63 -66 -7 -9 9 34 36 94 61 138 156 410 187 535
13 52 35 162 49 244 14 81 30 157 36 167 7 13 6 19 -1 19 -6 0 -17 -15 -25
-32z"/>
<path d="M998 8123 c7 -147 -58 -373 -178 -618 -128 -261 -368 -645 -399 -638
-6 2 -11 -2 -11 -7 0 -24 32 -6 73 43 85 101 196 280 325 527 138 263 204 472
206 649 1 61 -3 106 -9 108 -6 2 -9 -22 -7 -64z"/>
<path d="M7735 8153 c69 -102 89 -283 61 -568 -15 -151 -42 -312 -61 -370 -4
-13 -1 -11 8 5 18 31 33 95 52 225 30 195 37 282 32 410 -3 111 -8 141 -32
205 -28 78 -59 130 -76 130 -5 0 2 -17 16 -37z"/>
<path d="M7913 7949 c60 -257 65 -332 38 -554 -11 -93 -24 -188 -27 -210 -4
-29 -3 -37 5 -29 15 14 50 253 58 394 6 120 -9 245 -42 357 -16 53 -43 89 -32
42z"/>
<path d="M1197 7877 c-8 -13 -29 -61 -45 -108 -99 -278 -245 -565 -432 -844
-88 -131 -134 -214 -125 -223 4 -4 10 -2 12 4 2 6 54 89 116 185 181 280 255
410 342 599 48 105 158 401 151 407 -2 2 -10 -7 -19 -20z"/>
<path d="M1197 7560 c-32 -44 -84 -121 -115 -172 -67 -111 -258 -483 -303
-588 -17 -41 -40 -94 -50 -116 -32 -71 -69 -195 -69 -230 0 -18 5 -44 11 -56
8 -19 6 -34 -10 -71 -11 -26 -32 -89 -45 -140 -48 -176 -57 -307 -21 -307 18
0 18 5 4 28 -17 27 13 196 62 346 43 134 52 152 68 142 6 -4 11 -1 11 8 0 22
-16 28 -30 11 -18 -22 -30 -9 -30 33 0 68 73 255 201 512 160 320 217 422 309
552 76 107 88 128 74 128 -5 -1 -35 -36 -67 -80z"/>
<path d="M7385 7230 c-3 -5 0 -17 8 -25 22 -21 76 -167 100 -270 18 -76 21
-121 21 -295 0 -160 -4 -215 -16 -252 -9 -27 -12 -48 -8 -48 5 0 17 24 27 53
15 44 18 84 18 257 0 234 -10 296 -76 467 -40 101 -61 134 -74 113z"/>
<path d="M7597 7020 c4 -80 7 -245 6 -367 0 -123 2 -223 7 -223 4 0 11 71 15
158 9 171 -10 550 -27 567 -6 7 -7 -39 -1 -135z"/>
<path d="M7778 7002 c4 -56 -47 -421 -69 -492 -5 -19 -12 -42 -14 -50 -2 -8
-7 -26 -11 -39 -5 -16 -4 -22 4 -17 14 9 46 149 76 341 36 231 40 289 23 303
-11 9 -13 2 -9 -46z"/>
<path d="M2522 6719 c-147 -25 -362 -136 -362 -187 0 -12 6 -10 28 10 89 85
314 168 455 168 23 0 49 5 57 10 19 12 -102 11 -178 -1z"/>
<path d="M2853 6723 c-13 -2 -23 -10 -23 -17 0 -8 30 -12 108 -12 103 0 142
-8 235 -49 10 -4 17 -3 17 4 0 15 -70 47 -130 60 -57 12 -178 20 -207 14z"/>
<path d="M5022 6713 c53 -103 98 -300 101 -443 1 -48 5 -86 9 -84 5 3 8 16 8
30 0 13 4 24 8 24 9 0 37 438 29 447 -19 18 -27 -20 -28 -125 -1 -64 -4 -130
-8 -147 -6 -27 -8 -24 -14 25 -16 131 -66 280 -94 280 -8 0 -13 -3 -11 -7z"/>
<path d="M3326 6701 c-8 -12 11 -26 58 -42 21 -8 49 -27 62 -42 21 -25 24 -26
24 -8 0 23 -38 55 -86 73 -19 6 -34 16 -34 20 0 11 -17 10 -24 -1z"/>
<path d="M5246 6588 c-10 -62 -28 -164 -41 -227 -14 -63 -23 -117 -21 -119 11
-10 27 46 54 188 38 192 48 270 35 270 -6 0 -18 -51 -27 -112z"/>
<path d="M4060 6682 c0 -5 11 -30 25 -55 35 -63 76 -228 75 -302 -2 -79 -1
-83 10 -65 30 47 -3 263 -57 369 -25 49 -53 77 -53 53z"/>
<path d="M3755 6669 c-4 -6 -5 -11 -4 -12 36 -19 49 -31 76 -72 18 -27 44 -83
59 -124 32 -88 49 -114 41 -60 -9 63 -67 186 -109 233 -41 47 -52 54 -63 35z"/>
<path d="M3930 6674 c0 -5 16 -39 35 -75 43 -81 64 -172 67 -278 0 -53 5 -78
11 -72 31 31 9 225 -38 329 -25 55 -75 119 -75 96z"/>
<path d="M3590 6660 c0 -5 9 -10 20 -10 52 0 200 -225 200 -303 0 -24 3 -28
12 -19 45 45 -138 342 -210 342 -12 0 -22 -4 -22 -10z"/>
<path d="M2535 6626 c-102 -39 -181 -83 -244 -136 -35 -29 -59 -56 -55 -62 4
-6 -19 -34 -52 -64 -32 -28 -56 -56 -51 -60 4 -4 24 8 45 28 73 70 204 148
298 177 46 15 70 39 33 34 -34 -5 -127 -44 -182 -77 -69 -42 -75 -30 -9 19 65
47 154 94 231 121 36 13 67 28 69 33 5 16 -16 13 -83 -13z"/>
<path d="M3485 6640 c3 -5 13 -10 21 -10 20 0 70 -72 121 -175 31 -64 42 -80
38 -55 -9 52 -71 175 -109 215 -18 19 -43 35 -55 35 -12 0 -19 -4 -16 -10z"/>
<path d="M5373 6638 c-25 -31 -123 -328 -123 -372 0 -24 14 -9 68 72 24 34 45
62 49 62 3 0 0 -6 -6 -13 -6 -8 -8 -17 -4 -20 3 -4 32 17 63 47 91 87 261 188
353 210 15 3 27 11 27 16 0 17 -62 0 -148 -41 -93 -43 -157 -85 -220 -143 -23
-21 -45 -36 -48 -33 -9 9 178 198 192 193 7 -3 15 1 17 9 6 14 -1 25 -16 25
-18 0 -178 -164 -230 -235 -28 -38 -54 -74 -59 -79 -9 -11 58 191 87 262 18
43 16 63 -2 40z"/>
<path d="M2775 6623 c-54 -12 -115 -36 -115 -44 0 -6 8 -8 18 -5 79 23 118 29
187 30 94 1 123 -7 105 -29 -10 -12 -10 -15 2 -15 8 0 19 5 25 11 8 8 42 10
100 7 70 -3 99 -10 145 -32 37 -19 55 -33 51 -42 -6 -16 13 -19 22 -4 29 47
-212 133 -282 101 -17 -8 -28 -8 -32 -2 -17 26 -152 41 -226 24z"/>
<path d="M3250 6620 c0 -5 14 -10 30 -10 36 0 96 -23 124 -48 25 -23 56 -90
56 -124 0 -16 5 -28 11 -28 21 0 1 92 -29 135 -15 22 -47 50 -72 63 -45 22
-120 30 -120 12z"/>
<path d="M5791 6579 c-41 -22 -114 -68 -164 -102 -100 -68 -246 -201 -235
-213 4 -4 31 15 60 43 102 96 394 293 435 293 7 0 13 5 13 10 0 19 -36 9 -109
-31z"/>
<path d="M2725 6570 c-76 -11 -167 -42 -173 -60 -4 -10 0 -11 14 -5 54 22 177
45 244 44 41 0 69 -3 63 -6 -7 -2 -13 -9 -13 -14 0 -12 21 -11 40 1 13 8 13
11 0 24 -19 19 -99 27 -175 16z"/>
<path d="M6307 6556 c-9 -10 -15 -22 -11 -27 3 -5 13 -2 21 7 14 14 31 15 112
9 134 -9 382 -35 404 -41 17 -5 24 10 8 20 -15 10 -255 36 -386 43 -116 5
-133 4 -148 -11z"/>
<path d="M5873 6521 c-115 -46 -264 -138 -368 -229 -56 -50 -40 -58 18 -9 135
114 400 257 448 242 13 -4 19 -1 19 9 0 23 -35 19 -117 -13z"/>
<path d="M6075 6524 c-55 -14 -104 -30 -109 -35 -21 -20 7 -20 71 -1 37 12 99
26 136 33 58 11 70 11 77 -2 7 -10 12 -11 21 -2 39 39 -54 43 -196 7z"/>
<path d="M2154 6486 c-72 -54 -180 -163 -171 -172 4 -4 44 28 90 72 45 44 99
90 120 103 35 21 48 41 28 41 -5 0 -35 -20 -67 -44z"/>
<path d="M550 6478 c-42 -69 -72 -187 -77 -308 -5 -102 -3 -118 13 -138 13
-16 25 -21 37 -17 24 10 22 28 -3 20 -27 -9 -34 26 -27 144 6 106 41 233 76
277 11 15 21 33 21 40 0 24 -20 15 -40 -18z"/>
<path d="M2898 6503 c-45 -11 -8 -18 99 -18 99 0 122 -3 146 -19 15 -10 30
-16 34 -13 11 12 -19 37 -56 47 -35 10 -189 12 -223 3z"/>
<path d="M6377 6503 c-11 -3 -16 -11 -13 -19 5 -14 -28 -19 -89 -15 -69 5
-415 -99 -415 -125 0 -6 -17 -15 -37 -18 -52 -10 -245 -104 -238 -117 4 -6 28
2 58 19 108 61 288 115 303 91 8 -14 47 -10 110 10 76 24 144 35 144 24 0 -5
-31 -17 -70 -27 -63 -17 -93 -36 -55 -36 16 0 222 68 245 81 30 17 -126 8
-220 -12 -52 -12 -104 -21 -115 -20 -11 0 -35 1 -54 1 -54 1 -27 15 103 55
128 38 245 57 232 37 -11 -18 20 -14 35 4 10 12 24 14 63 9 140 -18 377 -97
429 -143 12 -11 21 -12 28 -5 12 12 -24 43 -50 43 -11 0 -12 3 -4 11 17 17
218 6 266 -14 21 -9 36 -21 32 -27 -3 -5 -1 -10 4 -10 6 0 11 9 11 19 0 34
-79 56 -202 56 -68 0 -111 -4 -119 -12 -8 -8 -20 -7 -48 4 -83 35 -232 82
-280 89 -28 4 -51 11 -51 17 0 23 347 -8 375 -34 13 -12 45 -11 45 1 0 15 -44
30 -130 45 -85 15 -266 26 -293 18z"/>
<path d="M2585 6476 c-56 -14 -120 -45 -94 -46 9 0 36 7 60 16 29 11 80 17
151 18 67 1 107 5 105 11 -5 15 -164 16 -222 1z"/>
<path d="M5800 6385 c-137 -40 -200 -64 -200 -77 0 -10 31 -3 72 18 15 8 82
30 149 49 67 19 124 37 127 40 12 12 -41 1 -148 -30z"/>
<path d="M7529 6394 c-8 -19 -12 -105 -13 -249 -1 -189 2 -227 17 -266 10 -26
27 -55 37 -64 25 -23 26 -12 1 23 -11 15 -25 54 -30 86 -13 70 -13 297 -1 411
4 44 6 82 4 84 -2 2 -9 -9 -15 -25z"/>
<path d="M2370 6361 c-90 -33 -154 -65 -196 -97 -17 -13 -35 -20 -38 -16 -4 3
-11 0 -16 -8 -26 -41 -1 -39 66 5 44 30 104 58 274 133 55 24 -16 11 -90 -17z"/>
<path d="M802 6333 c-44 -172 -63 -286 -68 -428 -3 -82 -2 -170 3 -195 7 -34
9 -3 10 120 1 185 19 325 57 445 26 83 28 92 17 100 -4 3 -12 -16 -19 -42z"/>
<path d="M972 6313 c-11 -21 -27 -73 -36 -113 -30 -150 -48 -470 -26 -470 6 0
10 35 10 84 0 167 28 382 62 474 24 64 17 79 -10 25z"/>
<path d="M2063 6304 c-74 -59 -133 -116 -133 -127 0 -4 29 16 64 46 35 30 82
67 105 83 39 28 51 44 31 44 -5 0 -35 -21 -67 -46z"/>
<path d="M6314 6341 c3 -5 36 -12 73 -16 100 -10 224 -35 255 -50 17 -8 30
-10 34 -4 10 17 -79 47 -187 63 -119 18 -183 20 -175 7z"/>
<path d="M6197 6264 c-12 -13 4 -24 26 -19 12 3 107 -1 212 -10 104 -8 193
-15 197 -15 5 0 8 -6 8 -12 0 -10 38 -14 148 -15 81 -2 167 -5 191 -9 33 -4
42 -3 39 8 -3 9 -31 15 -84 19 -43 3 -86 9 -94 12 -18 8 -506 47 -583 47 -29
0 -57 -3 -60 -6z"/>
<path d="M7627 6245 c-4 -11 -7 -117 -6 -236 2 -210 1 -218 -25 -297 -15 -45
-38 -97 -51 -117 -25 -36 -20 -48 8 -17 31 34 67 129 111 297 25 93 43 171 41
174 -6 6 -31 -55 -47 -115 -12 -46 -13 -39 -18 141 -3 110 -8 182 -13 170z"/>
<path d="M2051 6154 c-24 -13 -62 -38 -85 -56 -22 -18 -43 -33 -45 -35 -2 -2
-2 -6 1 -9 5 -4 119 69 177 113 2 2 2 5 0 8 -3 2 -24 -7 -48 -21z"/>
<path d="M6663 6168 c-18 -6 -33 -14 -33 -17 0 -3 57 -5 127 -3 186 5 313 -24
340 -78 11 -22 13 -23 19 -6 11 29 -8 49 -67 73 -94 38 -311 55 -386 31z"/>
<path d="M1021 6018 c-1 -62 3 -162 9 -223 11 -125 48 -315 61 -315 5 0 7 10
4 23 -32 145 -55 361 -55 525 0 56 -4 102 -9 102 -5 0 -9 -51 -10 -112z"/>
<path d="M6730 6093 c0 -6 27 -13 59 -16 32 -4 83 -16 114 -27 64 -24 167 -95
167 -116 0 -7 5 -14 10 -14 22 0 8 35 -30 71 -61 59 -161 101 -247 107 -45 3
-73 1 -73 -5z"/>
<path d="M3025 5998 c-116 -17 -142 -25 -240 -71 -100 -48 -190 -107 -333
-219 -30 -24 -49 -44 -43 -46 6 -2 29 10 50 27 47 37 56 38 123 7 73 -33 222
-106 272 -133 49 -26 162 -48 231 -44 66 3 278 37 385 62 94 22 150 42 255 89
39 18 81 36 95 41 27 11 32 6 -51 53 -19 10 -79 49 -134 85 -159 105 -235 140
-345 156 -111 17 -99 17 -265 -7z m234 -58 c15 -71 14 -168 -4 -226 -18 -58
-85 -141 -132 -160 -45 -19 -100 -17 -148 5 -74 34 -98 74 -131 218 -18 79
-34 108 -34 62 0 -75 73 -269 102 -269 6 0 9 -3 5 -6 -3 -3 -52 19 -109 50
-58 31 -122 62 -144 70 -21 8 -60 24 -87 36 l-47 21 47 38 c27 21 73 54 103
74 62 41 223 111 228 98 1 -4 -13 -34 -33 -66 -37 -62 -40 -71 -26 -79 4 -3
26 29 47 72 21 42 39 78 40 80 4 8 175 29 241 31 l71 1 11 -50z m206 -16 c50
-26 124 -70 165 -99 41 -29 98 -62 125 -74 l50 -23 -61 -28 c-137 -62 -207
-85 -364 -116 -91 -19 -176 -34 -188 -34 -22 0 -21 3 16 45 64 73 76 107 80
221 3 72 0 110 -11 136 l-15 35 57 -9 c34 -5 91 -26 146 -54z"/>
<path d="M3127 5928 c-19 -29 -65 -107 -101 -173 -37 -66 -72 -121 -77 -123
-14 -5 -11 -32 4 -32 13 0 38 39 133 210 31 57 68 114 82 127 22 20 23 43 2
43 -4 0 -24 -24 -43 -52z"/>
<path d="M2948 5929 c-32 -42 -78 -133 -78 -154 0 -26 15 -16 28 18 6 18 28
59 47 92 40 66 42 96 3 44z"/>
<path d="M3057 5921 c-56 -85 -155 -271 -147 -276 11 -6 33 27 114 172 31 56
61 105 66 108 12 8 13 35 1 35 -4 0 -20 -17 -34 -39z"/>
<path d="M3182 5918 c-48 -71 -182 -304 -182 -317 0 -25 21 3 104 142 47 78
95 156 106 174 12 18 17 34 11 37 -5 4 -23 -13 -39 -36z"/>
<path d="M2974 5867 c-57 -86 -96 -165 -84 -172 5 -3 19 14 31 37 12 24 41 74
65 111 24 37 44 72 44 77 0 23 -17 6 -56 -53z"/>
<path d="M3188 5815 c-18 -31 -58 -95 -89 -143 -56 -85 -67 -115 -29 -76 36
37 179 274 165 274 -8 0 -29 -25 -47 -55z"/>
<path d="M3191 5708 c-47 -76 -64 -117 -42 -104 10 7 97 144 107 169 3 10 1
17 -4 17 -6 0 -34 -37 -61 -82z"/>
<path d="M6936 5951 c-3 -4 12 -13 33 -19 50 -16 117 -65 141 -105 17 -28 20
-29 20 -10 0 33 -47 81 -111 114 -62 31 -75 34 -83 20z"/>
<path d="M5675 5883 c-49 -14 -122 -39 -162 -55 -81 -34 -273 -170 -273 -193
0 -14 39 11 160 105 19 15 51 35 70 45 47 24 188 74 193 68 3 -2 -2 -28 -11
-56 -25 -86 -27 -188 -4 -233 26 -50 82 -105 82 -81 0 18 262 287 279 287 6 0
15 9 21 20 9 16 8 20 -6 20 -9 0 -83 -66 -164 -146 -84 -83 -153 -143 -159
-139 -6 3 -21 25 -32 47 -16 32 -20 53 -16 102 5 69 33 175 50 192 14 13 77
27 77 17 0 -4 -23 -31 -52 -60 -28 -29 -49 -56 -45 -60 4 -4 38 23 75 60 37
37 76 67 87 67 14 0 -10 -30 -85 -105 -57 -57 -101 -107 -97 -111 6 -6 217
189 225 209 5 10 42 9 42 -2 0 -6 -37 -41 -83 -80 -86 -74 -161 -155 -155
-170 2 -5 64 49 137 121 l135 129 40 -7 c72 -12 190 -63 247 -106 90 -69 219
-180 219 -190 0 -4 -6 -8 -12 -8 -7 0 -40 -12 -73 -26 -100 -42 -316 -116
-323 -110 -3 3 11 30 30 58 54 79 69 115 75 173 5 43 1 60 -18 94 -12 22 -26
41 -31 41 -12 0 -10 -12 12 -55 23 -46 25 -65 7 -65 -7 0 -32 -16 -56 -36 -23
-20 -45 -34 -48 -31 -7 8 -142 -102 -177 -144 l-27 -32 -77 12 c-42 7 -95 17
-117 22 -22 5 -76 16 -120 25 -96 19 -262 71 -270 84 -9 15 -25 12 -25 -4 0
-60 611 -181 816 -162 69 7 238 59 362 112 54 23 94 34 113 32 34 -5 38 6 8
23 -12 6 -60 45 -108 87 -174 155 -213 177 -371 216 -138 34 -242 34 -365 -1z
m465 -247 c0 -8 -21 -34 -46 -58 -60 -56 -108 -117 -99 -126 3 -4 24 13 45 38
49 58 59 49 14 -13 l-34 -47 -80 0 c-44 0 -80 4 -80 9 0 13 110 114 117 107 4
-3 -9 -22 -27 -41 -19 -19 -28 -35 -21 -35 8 0 54 41 102 90 87 89 109 104
109 76z"/>
<path d="M5899 5773 c-111 -98 -199 -187 -199 -201 0 -7 44 26 98 75 53 48
118 106 145 127 26 21 47 42 47 47 0 21 -31 5 -91 -48z"/>
<path d="M241 5813 c-33 -6 -112 -89 -138 -143 -79 -168 -67 -718 23 -1010 10
-30 19 -59 20 -65 2 -5 15 -48 29 -95 25 -83 86 -404 100 -525 4 -32 19 -90
33 -129 28 -77 151 -269 182 -286 25 -13 26 -3 1 24 -10 12 -46 65 -80 118
-68 106 -107 202 -116 288 -11 97 -86 449 -125 590 -71 255 -92 420 -91 718 1
262 30 370 122 458 26 25 39 29 100 32 66 4 73 2 122 -30 86 -57 254 -226 327
-328 68 -97 100 -132 100 -112 0 32 -152 227 -253 326 -143 139 -202 176 -277
175 -30 -1 -66 -4 -79 -6z"/>
<path d="M7044 5782 c4 -7 13 -12 19 -12 7 0 29 -9 50 -20 41 -22 51 -11 12
14 -32 21 -91 34 -81 18z"/>
<path d="M5900 5635 c-80 -80 -138 -145 -130 -145 13 0 300 274 300 286 0 21
-47 -18 -170 -141z"/>
<path d="M6048 5704 c-46 -38 -218 -204 -218 -210 0 -18 36 10 118 89 54 51
112 103 130 116 31 22 42 41 23 41 -5 0 -29 -16 -53 -36z"/>
<path d="M4960 5673 c0 -21 23 -168 50 -327 46 -266 54 -299 102 -420 29 -72
54 -124 56 -115 1 9 -10 49 -26 90 -16 41 -37 96 -46 123 -19 55 -116 603
-116 654 0 17 -4 32 -10 32 -5 0 -10 -17 -10 -37z"/>
<path d="M7506 5643 c-9 -57 -7 -151 3 -158 6 -3 9 15 8 42 -1 27 2 72 6 101
6 32 5 52 -1 52 -5 0 -12 -17 -16 -37z"/>
<path d="M197 5591 c-34 -41 -66 -168 -67 -271 -2 -109 -2 -110 9 -110 4 0 9
35 10 78 2 86 16 187 32 229 13 34 58 83 76 83 18 0 122 -112 151 -163 141
-244 194 -325 358 -537 27 -36 71 -95 97 -133 27 -37 52 -65 57 -62 10 6 -56
103 -203 299 -57 76 -146 210 -198 298 -53 90 -124 194 -162 239 -60 69 -73
79 -102 79 -24 0 -40 -8 -58 -29z"/>
<path d="M995 5527 c-10 -36 7 -118 53 -259 36 -112 36 -114 37 -287 0 -107 4
-175 10 -178 13 -4 18 369 5 377 -13 8 -78 238 -88 313 -8 54 -10 58 -17 34z"/>
<path d="M7750 5489 c-101 -65 -259 -188 -276 -215 -20 -30 -9 -46 11 -17 16
23 211 172 289 222 82 51 127 39 147 -39 6 -25 13 -167 16 -324 4 -228 2 -304
-12 -410 -26 -200 -52 -345 -75 -410 -23 -68 -23 -66 -11 -66 16 0 60 149 75
255 44 291 46 322 46 600 0 386 -15 445 -105 445 -32 0 -57 -10 -105 -41z"/>
<path d="M7414 5455 c-4 -9 -4 -62 -1 -118 5 -74 11 -105 23 -116 15 -15 16
-14 9 7 -4 13 -8 71 -10 129 -3 104 -9 131 -21 98z"/>
<path d="M312 5375 c-18 -39 -60 -313 -72 -465 -25 -322 -25 -390 0 -375 7 4
6 13 -1 26 -7 15 -5 70 10 207 12 103 23 214 27 247 8 84 50 324 63 358 14 36
-11 38 -27 2z"/>
<path d="M7874 5329 c-6 -8 -26 -42 -44 -77 -20 -38 -72 -104 -129 -165 -163
-173 -276 -329 -268 -370 3 -21 4 -21 12 -2 29 67 160 238 281 368 87 93 171
221 162 248 -2 7 -8 6 -14 -2z"/>
<path d="M7367 5303 c-3 -16 -2 -30 2 -33 5 -3 11 -22 15 -42 12 -67 37 -139
46 -133 5 3 3 26 -5 53 -8 26 -19 77 -25 115 -13 71 -24 85 -33 40z"/>
<path d="M7370 5059 c0 -11 4 -18 9 -15 5 4 17 -29 27 -71 10 -43 22 -82 27
-88 14 -15 1 91 -19 148 -16 48 -44 64 -44 26z"/>
<path d="M1145 4993 c-12 -33 -29 -343 -18 -354 6 -6 13 50 21 163 6 95 14
181 17 191 4 9 3 17 -3 17 -5 0 -13 -8 -17 -17z"/>
<path d="M7726 4885 c5 -114 41 -553 48 -585 8 -33 5 91 -4 175 -5 50 -14 170
-20 268 -13 215 -32 323 -24 142z"/>
<path d="M7344 4844 c3 -8 16 -67 27 -130 12 -63 26 -114 30 -114 5 0 9 9 9
20 0 26 -37 218 -45 230 -10 16 -28 11 -21 -6z"/>
<path d="M1160 4770 c-15 -69 -6 -308 12 -325 7 -7 8 35 3 135 -5 114 -3 155
8 192 14 44 13 58 -3 58 -4 0 -13 -27 -20 -60z"/>
<path d="M975 4715 c-3 -25 -15 -71 -26 -103 -37 -107 -61 -217 -61 -282 -1
-72 18 -127 70 -202 45 -66 93 -163 95 -193 4 -50 -23 -39 -98 39 -72 75 -74
76 -123 76 -28 0 -63 -6 -79 -14 -15 -8 -40 -19 -55 -25 -26 -10 -28 -15 -28
-68 0 -74 14 -125 41 -149 l22 -19 -17 33 c-10 19 -20 64 -23 102 l-6 69 58
26 c94 41 111 37 197 -50 55 -55 81 -75 100 -75 67 0 43 95 -72 280 -51 81
-64 129 -56 205 6 61 14 93 60 249 26 90 33 146 17 146 -5 0 -12 -20 -16 -45z"/>
<path d="M7341 4613 c-13 -45 -13 -160 -1 -188 5 -11 9 -17 9 -13 3 32 7 238
5 238 -2 0 -8 -17 -13 -37z"/>
<path d="M1218 4594 c-18 -40 -23 -72 -26 -181 -3 -98 -1 -133 7 -133 9 0 10
-36 5 -144 -4 -94 -3 -145 3 -149 7 -5 13 51 18 161 6 154 11 194 31 262 7 22
6 24 -9 11 -9 -7 -19 -28 -23 -47 -12 -67 -19 -32 -13 69 4 59 14 120 24 145
25 60 10 66 -17 6z"/>
<path d="M3686 4585 c-4 -11 -39 -85 -78 -165 -57 -117 -72 -157 -75 -205 -5
-56 -3 -64 27 -108 47 -71 143 -144 206 -158 50 -11 98 -8 64 4 -8 3 -31 8
-52 11 -47 8 -153 90 -197 152 -50 71 -42 120 50 306 40 82 69 153 67 164 -5
18 -5 18 -12 -1z"/>
<path d="M5286 4521 c-3 -5 8 -14 25 -21 47 -20 154 -145 200 -235 48 -91 47
-90 55 -83 3 4 -13 44 -35 90 -42 89 -147 215 -202 243 -33 17 -36 18 -43 6z"/>
<path d="M7303 4213 c-1 -118 2 -190 7 -178 5 11 9 33 9 48 1 16 8 35 16 43 8
9 15 27 15 42 0 39 -34 242 -40 242 -3 0 -6 -89 -7 -197z m24 -65 c-3 -7 -5
-2 -5 12 0 14 2 19 5 13 2 -7 2 -19 0 -25z"/>
<path d="M300 4195 c0 -25 33 -116 62 -170 26 -49 106 -155 117 -155 5 0 38
-28 75 -61 37 -34 70 -58 74 -54 4 4 -37 48 -90 99 -111 104 -157 168 -187
259 -12 35 -28 73 -36 83 -14 19 -14 19 -15 -1z"/>
<path d="M5580 4139 c0 -31 -7 -72 -15 -92 -29 -69 -125 -126 -230 -136 -71
-7 -72 -26 -1 -22 54 3 142 38 193 77 62 47 102 167 69 209 -14 19 -15 16 -16
-36z"/>
<path d="M1255 4093 c-12 -123 -10 -292 5 -306 10 -10 11 -3 7 34 -4 25 -2
109 3 185 10 142 -2 212 -15 87z"/>
<path d="M7762 4106 c-13 -29 -30 -81 -38 -115 -8 -35 -23 -84 -33 -109 -35
-87 -170 -457 -183 -502 -7 -28 -13 -104 -13 -200 0 -144 -2 -158 -24 -202
-20 -38 -34 -51 -72 -68 -26 -11 -61 -20 -77 -20 -29 0 -112 52 -112 70 0 6
-4 10 -10 10 -38 0 28 -74 89 -100 29 -12 40 -11 89 6 75 25 98 48 122 116 16
47 20 84 20 200 0 165 0 163 114 466 42 111 88 246 102 300 15 53 33 110 41
125 8 16 13 39 11 52 -2 19 -7 14 -26 -29z"/>
<path d="M7255 4090 c-4 -6 -2 -16 3 -23 5 -7 13 -50 17 -97 6 -80 6 -84 -10
-65 -16 19 -16 18 -11 -22 5 -35 3 -43 -9 -43 -9 0 -14 -4 -10 -9 6 -10 -22
-221 -30 -230 -3 -2 -12 5 -21 17 -8 12 -22 22 -30 22 -20 0 -18 -9 9 -30 20
-16 22 -29 25 -119 3 -74 0 -114 -12 -148 -20 -57 -20 -58 -1 -43 13 11 15 8
15 -18 0 -17 -5 -32 -12 -34 -9 -3 -9 -6 0 -12 21 -13 32 40 36 189 4 102 2
145 -6 145 -6 0 -4 8 5 18 14 15 40 144 48 232 2 25 17 -72 18 -117 1 -24 5
-43 10 -43 11 0 12 263 1 354 -9 69 -22 98 -35 76z"/>
<path d="M3834 4070 c-23 -9 -39 -28 -32 -36 3 -2 20 3 38 12 26 14 53 16 139
11 91 -4 122 -11 216 -45 145 -53 195 -79 285 -148 41 -31 89 -63 106 -70 47
-20 165 -37 177 -25 5 5 -2 11 -20 14 -153 30 -144 26 -304 141 -53 38 -240
119 -326 141 -62 16 -244 19 -279 5z"/>
<path d="M5175 3935 c-82 -41 -177 -90 -210 -110 -33 -19 -79 -37 -102 -41
-46 -7 -59 -24 -19 -24 34 0 93 23 156 60 30 18 117 64 192 102 107 54 144 69
164 64 19 -5 25 -3 22 6 -10 29 -58 16 -203 -57z"/>
<path d="M1321 3949 c-5 -13 -8 -27 -7 -30 0 -3 -4 -12 -11 -20 -7 -9 -15 -68
-19 -144 -5 -107 -4 -137 9 -168 13 -30 16 -75 15 -230 -1 -117 4 -211 11
-240 6 -26 13 -107 15 -180 7 -198 45 -357 87 -357 13 0 21 -12 28 -38 6 -21
18 -46 27 -57 15 -19 15 -19 9 5 -20 75 -25 118 -31 253 -7 135 -6 149 11 161
17 12 17 13 0 20 -10 4 -23 2 -28 -3 -5 -5 -7 -78 -5 -165 2 -101 -1 -155 -7
-153 -30 10 -60 141 -71 315 -7 110 -6 113 15 119 19 5 21 10 15 53 -9 71 24
352 56 470 9 32 -1 63 -13 43 -17 -27 -60 -419 -55 -494 5 -65 -6 -73 -32 -23
-12 24 -15 75 -14 279 1 138 6 282 11 320 6 39 8 74 5 80 -10 16 -20 -35 -21
-102 -1 -34 -6 -65 -12 -69 -18 -11 -5 258 15 321 16 50 14 77 -3 34z"/>
<path d="M3846 3702 c-47 -144 -54 -174 -36 -156 18 18 100 278 91 287 -6 6
-28 -47 -55 -131z"/>
<path d="M3929 3798 c-32 -63 -69 -177 -69 -212 1 -21 13 5 39 82 21 61 46
123 55 137 19 28 20 35 6 35 -5 0 -19 -19 -31 -42z"/>
<path d="M3833 3818 c-10 -13 -123 -300 -123 -313 0 -26 27 27 80 160 57 143
69 186 43 153z"/>
<path d="M4051 3808 c-5 -13 -30 -68 -55 -122 -26 -54 -45 -104 -43 -110 4
-10 127 229 127 247 0 16 -21 5 -29 -15z"/>
<path d="M4120 3819 c0 -6 -29 -72 -65 -147 -36 -74 -65 -140 -65 -147 0 -8
-26 -15 -77 -20 -146 -13 -275 -48 -412 -111 -41 -19 -77 -32 -80 -29 -3 3 27
103 67 222 71 211 86 280 38 171 -28 -64 -126 -372 -126 -397 0 -9 -31 -43
-70 -75 -103 -86 -141 -131 -193 -233 -47 -90 -56 -123 -37 -123 6 0 10 8 10
17 0 9 24 59 52 111 87 157 228 272 432 351 198 77 358 101 541 80 55 -6 220
-12 367 -13 234 -2 270 -5 286 -19 12 -11 22 -13 28 -7 7 7 31 3 73 -11 40
-14 66 -18 72 -12 13 13 136 -9 241 -43 130 -42 236 -95 328 -164 112 -83 320
-292 348 -350 19 -39 22 -42 22 -18 0 30 -41 84 -152 200 -227 239 -427 343
-775 404 -12 2 -24 12 -27 22 -28 101 -70 224 -73 212 -2 -8 10 -62 27 -119
16 -58 28 -107 25 -109 -10 -10 -105 11 -118 26 -8 9 -28 46 -43 82 -38 85
-51 106 -60 98 -4 -4 11 -45 34 -92 22 -46 38 -86 36 -89 -2 -2 -15 -2 -29 0
-41 8 -59 38 -63 109 -2 35 -8 64 -13 64 -17 0 -20 -66 -5 -110 21 -60 21 -62
-16 -58 -29 3 -33 7 -41 43 -4 22 -6 60 -2 85 5 43 5 44 -11 25 -12 -16 -15
-34 -10 -87 5 -56 4 -68 -9 -68 -27 0 -37 36 -25 97 10 58 6 79 -10 53 -10
-15 -15 -60 -13 -112 0 -18 -5 -28 -18 -31 -24 -7 -28 16 -12 83 15 67 16 80
4 80 -5 0 -15 -26 -21 -57 -6 -32 -13 -70 -16 -85 -6 -28 -6 -28 -87 -28 -74
0 -367 20 -375 26 -2 1 29 65 67 143 69 138 81 171 61 171 -5 0 -10 -5 -10
-11z"/>
<path d="M3750 3801 c-5 -11 -22 -52 -36 -93 -15 -40 -42 -104 -61 -141 -19
-38 -32 -74 -30 -80 5 -15 45 63 92 183 21 52 44 107 52 123 15 30 0 38 -17 8z"/>
<path d="M4120 3698 c-55 -117 -66 -148 -51 -148 6 0 11 6 11 13 0 6 25 61 55
121 61 119 59 116 45 116 -6 0 -33 -46 -60 -102z"/>
<path d="M3935 3667 c-71 -145 -73 -149 -44 -117 22 26 119 212 119 230 0 29
-21 -2 -75 -113z"/>
<path d="M5115 3763 c4 -16 20 -83 36 -150 26 -114 45 -170 55 -161 4 5 -64
317 -72 330 -13 20 -26 6 -19 -19z"/>
<path d="M5025 3767 c-4 -8 -2 -24 3 -34 5 -10 20 -66 32 -125 12 -59 29 -116
36 -125 19 -25 18 -15 -16 142 -30 138 -43 174 -55 142z"/>
<path d="M4201 3757 c-20 -25 -81 -170 -80 -192 0 -11 23 27 50 84 47 99 59
142 30 108z"/>
<path d="M4257 3675 c-60 -122 -61 -147 -1 -35 53 97 67 130 56 130 -4 0 -29
-43 -55 -95z"/>
<path d="M3572 3748 c-20 -26 -55 -105 -68 -153 -16 -59 -18 -151 -4 -160 6
-4 10 14 10 47 1 75 16 133 55 211 31 60 34 88 7 55z"/>
<path d="M3663 3752 c-11 -7 -113 -212 -113 -227 0 -3 4 -5 8 -5 5 0 19 26 31
58 13 31 39 85 57 120 19 34 33 62 31 62 -1 0 -7 -4 -14 -8z"/>
<path d="M5178 3754 c-8 -7 3 -44 13 -44 9 0 41 -98 59 -182 11 -55 30 -88 30
-53 0 33 -33 162 -57 223 -24 59 -32 69 -45 56z"/>
<path d="M4337 3669 c-49 -79 -82 -149 -70 -149 12 1 125 200 120 213 -2 6
-24 -23 -50 -64z"/>
<path d="M3377 3638 c-53 -108 -107 -263 -107 -304 1 -18 14 11 36 76 19 58
59 153 88 213 34 67 49 107 41 107 -7 0 -34 -42 -58 -92z"/>
<path d="M4943 3708 c9 -20 35 -108 52 -170 9 -32 20 -58 25 -58 6 0 10 3 10
8 0 16 -51 194 -60 213 -12 21 -35 27 -27 7z"/>
<path d="M5293 3608 c4 -62 7 -137 7 -166 0 -33 4 -51 10 -47 19 12 7 325 -13
325 -7 0 -8 -40 -4 -112z"/>
<path d="M4386 3658 c-18 -29 -36 -63 -40 -75 -12 -39 9 -25 31 20 12 23 32
57 43 75 12 17 17 32 11 32 -6 0 -26 -24 -45 -52z"/>
<path d="M5366 3654 c-10 -74 -7 -262 4 -269 7 -4 10 50 10 154 0 89 -2 161
-4 161 -2 0 -6 -21 -10 -46z"/>
<path d="M4428 3625 c-41 -82 -53 -115 -40 -115 12 0 85 157 79 172 -2 7 -20
-18 -39 -57z"/>
<path d="M4796 3661 c-3 -5 1 -14 8 -21 8 -6 25 -40 38 -76 27 -77 43 -86 21
-11 -25 84 -54 130 -67 108z"/>
<path d="M3315 3636 c-9 -14 -23 -22 -30 -20 -16 7 -54 -50 -97 -145 -36 -78
-108 -277 -107 -294 0 -7 14 24 30 68 36 97 157 350 164 343 3 -3 -4 -27 -16
-54 -43 -99 -100 -269 -97 -289 2 -11 20 30 41 90 21 61 61 157 88 214 48 98
60 142 24 87z"/>
<path d="M5454 3625 c14 -95 17 -184 8 -243 -6 -45 -6 -60 2 -52 17 17 15 289
-2 315 -12 18 -13 16 -8 -20z"/>
<path d="M1516 3628 c-67 -104 -91 -548 -29 -536 9 2 18 9 21 16 2 7 -2 11 -9
10 -29 -7 -36 115 -14 276 16 121 41 219 54 211 11 -6 20 15 14 33 -7 18 -21
15 -37 -10z"/>
<path d="M7524 3626 c-61 -31 -74 -45 -106 -111 -27 -59 -38 -122 -18 -110 6
3 10 15 10 26 0 11 14 46 30 79 25 50 38 64 80 85 28 14 50 32 50 40 0 8 -1
14 -2 14 -2 -1 -22 -11 -44 -23z"/>
<path d="M5556 3608 c-12 -55 -17 -283 -7 -273 12 12 30 284 19 291 -4 3 -10
-5 -12 -18z"/>
<path d="M7057 3614 c-3 -3 3 -20 13 -37 10 -18 30 -70 45 -117 38 -119 37
-117 42 -103 5 15 -32 152 -59 216 -20 45 -28 54 -41 41z"/>
<path d="M3128 3516 c-12 -26 -28 -46 -35 -46 -7 0 -13 -11 -13 -26 0 -31 -20
-115 -31 -129 -10 -14 -66 -244 -79 -329 -8 -48 -8 -72 0 -80 7 -7 10 0 10 22
0 18 4 40 9 50 5 9 19 69 31 132 25 131 91 346 118 381 25 32 33 57 22 64 -6
3 -20 -14 -32 -39z"/>
<path d="M5647 3553 c-4 -3 -7 -31 -7 -62 0 -31 -7 -98 -15 -150 -9 -52 -13
-96 -11 -99 9 -9 23 41 37 133 17 115 27 86 28 -82 1 -68 5 -123 10 -123 24 0
24 199 0 282 -7 25 -5 34 9 45 16 13 15 14 -5 10 -17 -4 -23 0 -23 11 0 22
-15 44 -23 35z"/>
<path d="M1622 3537 c-29 -35 -72 -269 -72 -390 0 -38 -9 -114 -21 -170 -22
-108 -22 -174 0 -397 22 -220 49 -313 81 -276 10 13 10 16 -3 16 -11 0 -19 16
-26 53 -15 73 -31 256 -24 274 3 8 0 19 -8 24 -19 12 -24 139 -9 246 12 83 14
86 28 65 21 -32 33 -27 20 9 -6 17 -8 50 -5 74 2 24 0 46 -5 47 -21 7 26 338
57 400 14 29 5 47 -13 25z"/>
<path d="M1746 3462 c-40 -119 -58 -225 -61 -362 -2 -70 -10 -151 -18 -185
-44 -168 -54 -285 -27 -285 6 0 8 10 5 23 -6 23 37 263 49 275 4 3 13 -3 20
-14 21 -28 29 -12 11 22 -18 35 -18 38 -4 89 l12 40 13 -62 c7 -33 19 -74 28
-90 19 -36 20 -21 1 40 -26 88 -16 227 17 227 4 0 8 5 8 10 0 14 -27 12 -34
-2 -11 -22 3 135 15 176 6 22 24 52 39 68 33 33 24 47 -13 18 -38 -30 -56 -90
-71 -232 -7 -71 -16 -131 -21 -135 -4 -5 -5 37 -2 92 6 100 42 269 72 327 18
38 18 38 1 38 -9 0 -24 -29 -40 -78z"/>
<path d="M7052 3453 c9 -82 38 -175 56 -181 16 -5 15 23 -3 58 -8 16 -21 64
-28 106 -17 99 -37 112 -25 17z"/>
<path d="M495 3493 c4 -10 11 -43 17 -73 28 -159 29 -161 67 -198 74 -75 227
-101 398 -68 77 14 130 42 163 83 38 48 22 59 -22 16 -60 -59 -103 -74 -237
-82 -106 -7 -122 -6 -185 15 -72 24 -118 59 -135 103 -6 14 -14 58 -20 96 -11
80 -26 125 -42 125 -7 0 -8 -7 -4 -17z"/>
<path d="M6930 3465 c0 -3 13 -31 29 -63 28 -57 41 -91 61 -169 14 -54 30 -55
30 -3 0 22 -4 40 -10 40 -5 0 -10 8 -10 19 0 24 -78 181 -91 181 -5 0 -9 -2
-9 -5z"/>
<path d="M5744 3313 c10 -215 27 -260 21 -58 l-4 160 25 -70 c14 -38 36 -117
50 -175 14 -58 29 -109 35 -115 6 -5 9 -5 9 2 0 16 -38 192 -49 232 -17 56 -3
49 23 -11 28 -63 52 -180 62 -298 4 -44 11 -80 16 -80 13 0 1 141 -22 255 -20
101 -62 195 -90 202 -11 3 -22 18 -25 34 -4 16 -13 29 -21 29 -8 0 -14 9 -14
20 0 11 -5 20 -12 20 -8 0 -9 -39 -4 -147z"/>
<path d="M1925 3406 c-17 -25 -35 -106 -65 -286 -20 -127 -27 -150 -64 -242
-32 -80 -59 -267 -54 -374 3 -77 17 -118 35 -101 4 4 1 13 -5 19 -13 13 -17
184 -4 190 4 2 20 68 36 148 31 162 44 205 45 154 1 -17 7 -36 14 -42 9 -8 11
7 9 70 -4 80 17 168 39 168 5 0 9 5 9 11 0 6 -9 8 -21 4 -23 -8 -23 -20 7 153
12 69 23 101 41 123 19 22 21 29 9 29 -8 0 -22 -11 -31 -24z"/>
<path d="M2272 3413 c-18 -33 -51 -186 -67 -308 -9 -66 -22 -138 -30 -160 -17
-53 -47 -325 -43 -394 5 -96 23 -68 23 37 1 130 26 340 36 294 12 -59 19 -47
19 33 0 95 23 255 57 398 24 103 26 140 5 100z"/>
<path d="M2899 3365 c-64 -141 -110 -349 -108 -489 l2 -91 14 125 c22 195 105
490 139 490 19 0 18 16 -2 24 -11 4 -23 -10 -45 -59z"/>
<path d="M2981 3376 c-25 -68 -49 -158 -68 -261 -18 -101 -29 -375 -16 -400 7
-12 12 30 16 146 3 90 13 203 22 252 21 114 63 258 81 278 18 20 18 39 0 39
-8 0 -23 -23 -35 -54z"/>
<path d="M6850 3395 c0 -9 12 -33 26 -55 15 -22 39 -77 54 -122 29 -87 50
-111 50 -59 0 17 -4 31 -8 31 -5 0 -15 19 -22 43 -7 23 -24 64 -39 91 -14 27
-30 57 -36 67 -12 23 -25 25 -25 4z"/>
<path d="M2025 3354 c-53 -125 -84 -403 -52 -464 12 -22 10 -48 -14 -185 -29
-164 -36 -269 -20 -280 5 -3 12 -1 15 4 4 5 1 13 -5 17 -8 4 -9 27 -5 70 6 57
47 288 60 339 3 11 10 37 15 58 14 59 21 56 21 -11 0 -93 16 -82 23 16 7 107
40 279 73 385 14 43 23 81 20 84 -17 18 -81 -204 -101 -349 -4 -31 -11 -48
-20 -48 -12 0 -28 -35 -38 -85 -3 -18 -5 -17 -16 6 -20 40 2 237 40 368 31
107 33 143 4 75z"/>
<path d="M6748 3384 c-4 -3 -1 -16 7 -28 8 -11 30 -62 49 -113 42 -111 63
-153 76 -153 11 0 13 43 4 78 -4 13 -12 21 -19 18 -8 -3 -24 24 -44 77 -33 85
-62 133 -73 121z"/>
<path d="M2815 3347 c-34 -53 -101 -436 -86 -493 5 -20 10 2 20 82 15 132 54
327 75 377 11 28 19 35 32 30 12 -4 15 -2 12 8 -8 24 -36 22 -53 -4z"/>
<path d="M6660 3365 c0 -3 13 -31 29 -63 36 -72 71 -176 71 -213 0 -27 15 -47
27 -35 21 21 -88 316 -117 316 -5 0 -10 -2 -10 -5z"/>
<path d="M2496 3273 c-44 -140 -97 -384 -95 -446 1 -53 13 -8 49 178 29 151
52 243 75 298 4 10 3 17 -3 17 -6 0 -17 -21 -26 -47z"/>
<path d="M2385 3286 c-19 -29 -29 -62 -61 -201 -13 -60 -32 -135 -41 -165 -13
-44 -16 -101 -17 -286 0 -230 0 -230 -22 -226 -29 5 -43 -37 -51 -148 -3 -52
-12 -101 -24 -126 -10 -22 -19 -51 -19 -65 0 -13 -5 -31 -11 -39 -15 -22 -5
286 11 330 7 19 22 45 33 58 18 19 18 22 4 22 -21 0 -45 -36 -63 -97 -21 -67
-20 -299 1 -373 9 -30 23 -84 31 -119 8 -36 19 -71 26 -78 6 -8 13 -75 17
-158 8 -193 27 -212 23 -22 -3 112 -8 151 -23 183 -26 58 -41 204 -29 278 5
32 11 61 14 63 2 3 7 -17 11 -44 17 -133 37 -187 66 -180 15 4 20 -2 25 -32 9
-55 25 -101 34 -101 5 0 5 14 0 30 -5 17 -14 94 -21 171 -11 119 -10 142 1
149 19 12 6 24 -16 16 -15 -6 -16 -19 -11 -111 5 -82 3 -105 -7 -105 -32 0
-57 204 -45 366 7 97 12 114 35 114 10 0 14 -12 14 -37 0 -52 24 -147 44 -178
18 -27 46 -34 46 -10 0 8 -6 12 -14 9 -29 -11 -50 96 -51 249 0 124 2 140 19
152 11 9 16 20 12 30 -9 25 -29 13 -44 -26 -11 -31 -11 -26 -7 46 11 155 17
195 28 188 6 -4 8 0 4 11 -14 36 60 385 94 444 22 38 23 42 9 42 -5 0 -17 -11
-25 -24z"/>
<path d="M6560 3290 c0 -5 4 -10 9 -10 9 0 40 -70 101 -234 23 -59 40 -91 52
-94 17 -4 18 -20 18 -208 0 -129 4 -204 10 -204 10 0 13 82 10 305 -1 114 -9
151 -25 125 -4 -7 -32 52 -65 135 -32 80 -65 157 -74 170 -17 25 -36 33 -36
15z"/>
<path d="M5948 3240 c-2 -8 0 -33 5 -55 17 -72 12 -437 -7 -522 -3 -16 0 -23
10 -23 15 0 13 -24 -7 -77 -5 -12 -4 -25 0 -27 8 -6 37 116 66 284 22 119 31
310 17 310 -8 0 -12 -29 -12 -92 0 -101 -28 -318 -42 -318 -10 0 -10 -2 2 140
13 158 15 306 4 300 -5 -3 -14 18 -20 45 -6 28 -13 43 -16 35z m32 -555 c0 -8
-4 -15 -10 -15 -5 0 -10 7 -10 15 0 8 5 15 10 15 6 0 10 -7 10 -15z"/>
<path d="M6474 3219 c-4 -6 0 -16 9 -20 18 -11 107 -155 131 -213 9 -21 16
-49 16 -62 0 -13 4 -24 9 -24 10 0 36 -198 27 -207 -3 -3 -8 3 -12 13 -18 58
-51 117 -69 124 -14 5 -29 33 -48 91 -39 113 -72 186 -79 174 -3 -6 18 -73 48
-149 30 -77 52 -146 50 -153 -6 -15 10 -18 19 -3 12 19 23 10 39 -32 38 -103
44 -166 43 -460 -1 -157 2 -284 6 -281 16 10 37 -20 37 -52 0 -48 -46 -199
-87 -287 -20 -43 -39 -78 -42 -78 -3 1 -16 9 -29 20 -22 18 -22 19 -7 102 31
171 37 193 51 201 11 6 14 38 14 150 0 259 -32 568 -68 647 -11 25 -41 106
-67 180 -54 155 -71 188 -88 171 -9 -9 -9 -14 1 -20 8 -5 38 -77 68 -162 46
-129 54 -160 48 -196 -6 -44 11 -64 19 -20 3 21 4 21 15 -6 24 -57 48 -272 31
-282 -7 -5 -6 -12 2 -22 9 -10 16 -80 21 -211 8 -197 5 -249 -13 -204 -10 26
-17 27 -44 6 -16 -12 -18 -18 -7 -34 17 -27 15 -72 -7 -162 -10 -43 -16 -79
-14 -82 6 -5 -18 -99 -29 -113 -5 -6 -11 -25 -13 -42 -2 -16 -13 -47 -25 -68
-12 -21 -18 -29 -15 -18 3 10 9 54 12 97 3 42 10 75 14 72 14 -8 11 24 -12
153 -15 81 -24 181 -28 321 -4 133 -10 205 -17 210 -6 4 -15 22 -19 41 -10 48
-72 191 -95 221 -29 38 -33 18 -6 -31 36 -65 87 -199 88 -231 1 -15 7 -29 15
-32 16 -7 18 -247 3 -345 -11 -65 -7 -91 8 -52 6 17 12 2 25 -66 29 -156 -5
-408 -84 -618 -22 -59 -23 -59 -32 -32 -10 32 -27 31 -44 -3 -15 -31 -6 -41
13 -15 13 18 14 14 8 -40 -8 -84 -41 -219 -64 -273 -23 -51 -23 -52 -11 -52
23 0 80 176 96 298 4 28 10 52 15 52 10 0 53 100 76 175 10 33 24 66 32 74 19
19 47 78 67 141 26 80 46 112 62 98 18 -15 16 -25 -12 -62 -30 -39 -33 -56 -5
-31 15 14 20 15 20 4 0 -35 -137 -349 -152 -349 -5 0 -6 -5 -3 -10 3 -6 -4
-24 -16 -41 -22 -31 -22 -31 -1 -20 13 7 47 66 87 149 36 75 77 158 91 185 14
26 21 47 16 47 -19 0 1 85 30 128 65 95 131 292 127 377 -2 31 3 61 13 80 8
17 19 41 23 55 4 14 18 49 32 79 56 121 85 387 49 437 -14 18 -16 18 -32 2
-10 -10 -14 -21 -10 -25 4 -4 11 -2 15 6 25 39 28 -112 6 -239 -8 -47 -21
-105 -29 -129 l-13 -45 -6 95 c-5 91 -26 169 -45 169 -18 0 -21 -14 -7 -30 25
-27 40 -195 25 -277 -12 -68 -36 -123 -55 -123 -6 0 -9 52 -7 153 2 83 -1 170
-6 192 -6 30 -5 49 7 75 9 19 19 37 24 38 12 6 8 76 -13 255 -22 188 -48 264
-134 396 -50 77 -71 98 -82 80z m203 -571 c-3 -8 -6 -5 -6 6 -1 11 2 17 5 13
3 -3 4 -12 1 -19z"/>
<path d="M7025 3129 c-5 -6 -1 -16 8 -21 9 -5 21 -25 27 -46 15 -55 12 -209
-5 -275 -18 -71 -18 -72 -1 -58 24 20 41 111 41 221 0 87 -4 112 -21 144 -22
43 -38 54 -49 35z"/>
<path d="M6081 3078 c-11 -30 -29 -215 -37 -392 -6 -111 -5 -138 5 -131 10 6
11 2 6 -16 -7 -23 -7 -23 8 -4 8 11 13 23 11 27 -2 4 1 10 7 14 9 5 10 0 6
-17 -22 -81 -39 -183 -30 -186 6 -2 1 -30 -12 -66 -13 -38 -19 -72 -15 -87 5
-22 7 -20 13 18 4 23 23 80 42 126 31 76 105 332 105 366 0 35 -20 -12 -45
-105 -47 -179 -66 -236 -75 -230 -5 3 0 36 11 73 11 37 31 114 45 172 13 58
32 118 40 133 9 15 13 35 10 44 -10 26 -26 2 -47 -73 l-19 -69 6 55 c3 30 10
91 15 135 12 103 12 142 0 130 -5 -6 -14 -62 -20 -125 -24 -245 -69 -402 -56
-192 3 53 10 126 15 162 5 36 12 98 15 139 4 40 11 84 15 97 6 15 6 24 0 24
-6 0 -14 -10 -19 -22z m26 -430 c-3 -8 -6 -5 -6 6 -1 11 2 17 5 13 3 -3 4 -12
1 -19z m-10 -50 c-3 -8 -6 -5 -6 6 -1 11 2 17 5 13 3 -3 4 -12 1 -19z"/>
<path d="M6940 2901 c0 -194 11 -265 24 -158 8 68 8 251 0 311 -14 100 -24 36
-24 -153z"/>
<path d="M3050 3021 c-45 -89 -122 -446 -92 -427 7 4 12 20 12 36 0 65 82 364
107 393 12 13 14 20 6 28 -8 8 -17 0 -33 -30z"/>
<path d="M2840 2998 c-16 -47 -27 -303 -12 -294 8 4 12 37 12 84 0 77 14 194
26 226 3 9 2 16 -4 16 -6 0 -15 -15 -22 -32z"/>
<path d="M6786 3022 c-3 -5 1 -23 9 -40 9 -17 20 -87 27 -168 6 -77 15 -143
21 -149 13 -13 2 222 -13 292 -11 51 -33 83 -44 65z"/>
<path d="M3930 3010 c-36 -3 -121 -25 -190 -48 -126 -42 -214 -60 -395 -83
-55 -6 -104 -16 -109 -21 -37 -32 348 30 494 80 147 50 147 50 289 62 119 10
591 -8 771 -29 186 -22 330 -43 390 -56 36 -8 144 -28 242 -45 97 -17 211 -39
254 -50 92 -24 89 -24 75 -6 -16 19 -137 47 -371 86 -102 18 -188 34 -192 36
-11 7 -290 44 -408 55 -285 25 -707 34 -850 19z"/>
<path d="M6873 2999 c4 -13 7 -85 7 -159 0 -92 3 -131 10 -124 7 7 10 65 8
154 -2 112 -6 144 -17 148 -10 3 -12 -1 -8 -19z"/>
<path d="M1896 2873 c-14 -43 -33 -123 -41 -178 -8 -55 -20 -121 -27 -147 -9
-36 -9 -82 0 -195 11 -157 22 -203 47 -203 14 0 14 3 1 23 -10 14 -19 71 -25
167 -13 178 -13 172 5 131 19 -44 26 -36 13 15 -19 68 18 351 56 425 17 33 18
39 6 39 -5 0 -21 -35 -35 -77z"/>
<path d="M4152 2903 c-37 -81 -67 -306 -44 -339 18 -28 135 -54 242 -54 62 0
85 11 110 52 l19 31 6 -29 c10 -46 20 -58 56 -66 54 -13 179 1 229 26 39 18
46 27 59 71 19 63 16 61 41 37 12 -11 36 -23 53 -26 45 -8 134 8 156 28 17 16
19 15 34 -7 23 -35 102 -70 127 -57 33 18 50 54 57 123 7 74 -1 117 -21 117
-12 0 -13 -7 -5 -32 16 -56 -7 -180 -35 -191 -6 -3 -30 4 -53 15 -50 23 -95
85 -93 125 1 15 1 33 0 38 -4 18 -18 -39 -19 -77 -1 -43 -17 -55 -76 -58 -75
-4 -92 0 -119 25 -24 22 -27 32 -25 80 3 80 -8 79 -15 -2 -7 -81 -23 -152 -38
-170 -24 -30 -100 -53 -172 -53 -112 0 -113 1 -121 78 -4 37 -7 93 -6 126 3
76 -14 65 -22 -15 -14 -128 -62 -186 -145 -176 -195 26 -212 34 -212 100 0 65
31 229 51 269 21 40 24 58 11 58 -5 0 -18 -21 -30 -47z"/>
<path d="M6340 2925 c0 -13 14 -59 31 -102 17 -43 40 -102 50 -132 27 -77 59
-289 58 -379 l-1 -77 -10 48 c-6 28 -15 46 -22 44 -6 -3 -10 -10 -8 -18 2 -7
8 -48 15 -92 9 -64 9 -80 -2 -86 -8 -5 -10 -14 -7 -20 4 -6 11 -9 16 -6 12 7
24 -117 16 -165 -3 -23 -2 -40 3 -40 16 0 23 56 20 167 -1 60 1 142 6 183 5
50 3 105 -5 165 -8 50 -14 104 -15 120 -1 17 -4 37 -7 45 -4 8 -14 42 -23 74
-9 33 -34 104 -56 158 -21 54 -39 107 -39 118 0 11 -4 20 -10 20 -5 0 -10 -11
-10 -25z"/>
<path d="M2115 2907 c-21 -33 -51 -155 -66 -272 -8 -66 -18 -104 -28 -111 -12
-9 -16 -38 -19 -116 -6 -156 24 -308 59 -308 8 0 8 4 1 13 -20 25 -34 125 -36
255 -2 129 4 166 19 119 5 -15 10 7 15 68 11 119 46 288 71 336 21 42 9 54
-16 16z"/>
<path d="M3836 2888 c-3 -13 -6 -57 -6 -98 0 -127 55 -190 165 -190 49 0 95
20 95 41 0 6 -10 3 -22 -5 -28 -20 -98 -21 -143 -2 -23 10 -41 28 -56 57 -19
38 -21 54 -17 131 5 83 -3 115 -16 66z"/>
<path d="M6260 2864 c0 -3 11 -20 24 -37 37 -48 91 -163 116 -245 12 -39 26
-72 31 -72 30 0 -59 233 -121 319 -26 36 -50 53 -50 35z"/>
<path d="M3568 2767 c-3 -48 -13 -97 -22 -115 l-16 -32 -52 21 c-28 11 -60 24
-70 30 -53 28 -159 66 -164 58 -10 -16 190 -101 401 -170 72 -23 137 -44 145
-47 8 -3 22 -6 30 -7 8 -1 47 -11 85 -23 152 -46 328 -70 565 -77 237 -6 351
1 530 34 58 11 148 24 200 30 165 18 228 39 337 112 43 29 96 63 118 76 25 14
33 23 22 23 -24 0 -59 -19 -163 -87 -100 -65 -171 -90 -281 -98 -43 -3 -88 -8
-100 -11 -19 -4 -23 0 -23 20 0 31 -9 56 -21 56 -5 0 -6 -17 -3 -38 l6 -38
-80 -19 c-102 -23 -116 -18 -109 38 2 23 8 50 12 61 6 14 4 17 -6 14 -10 -3
-15 -25 -17 -70 l-3 -65 -52 -7 c-96 -11 -115 -8 -119 16 -2 13 -11 24 -23 27
-19 3 -19 3 -2 -16 39 -44 30 -45 -200 -38 -120 4 -222 11 -226 15 -5 4 -3 18
3 30 10 18 9 21 -2 18 -7 -3 -14 -14 -16 -26 -4 -27 -17 -27 -137 -4 l-90 18
2 54 c2 50 1 53 -12 36 -8 -11 -15 -35 -15 -54 0 -33 -1 -33 -32 -27 -125 27
-183 59 -147 80 6 4 8 14 5 22 -4 9 -1 22 5 30 25 29 -3 25 -34 -5 -18 -18
-37 -32 -41 -32 -5 0 -14 -7 -20 -14 -19 -26 -72 6 -108 64 -17 27 -34 50 -37
50 -3 0 -4 38 -2 85 4 111 -14 113 -21 2z m41 -142 c22 -38 15 -43 -29 -20
-25 13 -27 17 -17 39 14 29 19 27 46 -19z m182 -88 c-8 -8 -14 -7 -23 2 -11
10 -9 15 7 27 18 13 20 13 23 -2 2 -9 -1 -21 -7 -27z"/>
<path d="M2860 2776 c-12 -33 -13 -203 -1 -210 8 -5 22 223 14 233 -1 2 -7 -8
-13 -23z"/>
<path d="M2381 2776 c-7 -8 -17 -49 -23 -91 -8 -63 -7 -84 6 -125 12 -36 16
-89 16 -207 0 -122 3 -164 14 -179 8 -10 18 -16 22 -12 4 4 1 15 -6 23 -10 12
-12 56 -7 193 3 97 7 182 9 187 1 6 -1 12 -7 15 -5 3 -12 -6 -15 -20 -6 -22
-7 -20 -13 15 -8 53 8 176 25 186 9 6 10 11 2 19 -8 8 -14 7 -23 -4z"/>
<path d="M5407 2770 c16 -60 -48 -178 -81 -151 -8 7 -17 8 -20 3 -3 -6 1 -16
10 -23 22 -18 64 6 86 51 18 37 24 140 9 140 -5 0 -7 -9 -4 -20z"/>
<path d="M6267 2733 c-10 -10 -8 -45 2 -39 10 7 58 -99 92 -201 22 -67 39 -93
39 -59 0 36 -109 306 -123 306 -2 0 -7 -3 -10 -7z"/>
<path d="M6985 2710 c-4 -6 -1 -18 6 -26 27 -32 -20 -306 -85 -494 -41 -118
-39 -113 -26 -105 14 9 13 4 -15 -71 -28 -75 -77 -165 -100 -184 -8 -7 -15
-17 -15 -23 0 -23 61 50 94 112 44 85 74 174 130 391 37 148 44 191 45 276 1
56 -2 109 -5 118 -7 18 -20 21 -29 6z"/>
<path d="M2483 2668 c-12 -19 -7 -335 7 -417 9 -52 16 -71 27 -71 12 0 13 3 3
15 -26 31 -38 397 -16 463 9 24 -7 31 -21 10z"/>
<path d="M6910 2586 c0 -109 -21 -241 -51 -321 -28 -74 -16 -84 15 -13 42 94
76 315 62 393 -13 66 -26 36 -26 -59z"/>
<path d="M2588 2618 c-9 -76 21 -347 44 -407 16 -45 17 -15 1 79 -8 52 -16
157 -17 232 -1 96 -4 138 -12 138 -7 0 -14 -19 -16 -42z"/>
<path d="M2910 2605 c-6 -15 -13 -32 -16 -36 -3 -5 -1 -9 4 -9 12 0 37 58 29
67 -4 3 -11 -7 -17 -22z"/>
<path d="M1679 2598 c-27 -50 15 -378 52 -413 13 -12 10 16 -17 135 -18 81
-24 241 -11 278 11 29 -8 29 -24 0z"/>
<path d="M2685 2528 c-10 -65 -2 -390 10 -410 7 -11 9 57 7 214 -1 128 -4 233
-6 236 -3 2 -7 -16 -11 -40z"/>
<path d="M4480 2475 c0 -14 5 -25 10 -25 6 0 10 11 10 25 0 14 -4 25 -10 25
-5 0 -10 -11 -10 -25z"/>
<path d="M3240 2480 c0 -5 40 -51 88 -102 49 -51 99 -109 112 -128 13 -19 41
-55 62 -80 22 -25 64 -76 95 -113 51 -63 65 -73 162 -119 184 -86 210 -89
1026 -90 207 0 298 27 469 142 41 27 81 50 88 50 25 0 196 158 244 225 45 63
110 202 99 213 -7 7 -35 -18 -35 -32 0 -26 -61 -136 -109 -196 -59 -74 -198
-199 -221 -200 -9 0 -52 -23 -95 -50 -199 -126 -196 -125 -725 -124 -489 2
-567 9 -695 69 -38 18 -80 35 -91 39 -32 10 -154 146 -257 285 -50 68 -195
221 -209 221 -5 0 -8 -4 -8 -10z"/>
<path d="M2774 2360 c6 -115 20 -218 31 -228 11 -12 12 6 4 58 -5 30 -10 108
-11 172 -2 93 -6 118 -17 118 -12 0 -13 -21 -7 -120z"/>
<path d="M2843 2313 c6 -170 16 -236 38 -257 9 -8 10 -5 5 14 -14 57 -28 260
-23 332 4 66 3 78 -10 78 -14 0 -15 -21 -10 -167z"/>
<path d="M6180 2455 c-6 -8 -9 -19 -5 -26 6 -8 10 -7 16 2 13 20 42 -17 71
-89 21 -52 23 -75 26 -286 2 -142 0 -232 -7 -239 -6 -6 -12 7 -16 39 -9 65
-13 76 -25 69 -6 -4 -8 -15 -5 -26 5 -15 3 -17 -11 -12 -14 5 -16 3 -8 -13 5
-10 10 -120 11 -244 2 -189 0 -233 -14 -275 -10 -27 -16 -54 -15 -58 3 -9 -38
-80 -43 -75 -1 2 6 50 16 108 36 206 16 421 -34 371 -8 -8 -8 -11 1 -11 57 0
29 -392 -42 -585 -7 -18 -5 -17 13 3 11 13 23 39 27 58 3 19 10 34 15 34 5 0
23 19 40 43 18 23 29 33 24 22 -4 -11 -14 -42 -22 -70 -24 -81 -75 -210 -85
-213 -11 -5 -10 -22 2 -22 5 0 19 17 30 38 l20 37 -6 -50 c-3 -27 -17 -96 -30
-153 -26 -113 -29 -141 -14 -126 17 17 61 217 66 304 6 92 25 157 85 290 73
163 125 392 100 446 -8 18 -16 24 -29 20 -22 -7 -44 32 -31 55 9 17 17 469 8
469 -4 0 -16 27 -28 60 -21 56 -63 120 -81 120 -4 0 -13 -7 -20 -15z m111
-778 c-1 -45 -5 -98 -10 -117 -7 -26 -9 0 -10 100 0 99 2 130 10 117 6 -10 10
-55 10 -100z m49 -17 l-8 -55 0 70 c-1 45 2 65 7 55 5 -9 6 -40 1 -70z m-33
-122 c-3 -7 -5 -2 -5 12 0 14 2 19 5 13 2 -7 2 -19 0 -25z m-11 -60 c-6 -46
-34 -133 -35 -108 -1 17 32 150 37 150 2 0 1 -19 -2 -42z"/>
<path d="M1427 2453 c-11 -10 -8 -214 4 -300 6 -43 19 -97 29 -120 19 -43 54
-71 65 -53 3 5 -1 10 -9 10 -40 0 -67 117 -71 314 -2 81 -6 150 -8 152 -2 2
-7 1 -10 -3z"/>
<path d="M6152 2293 c2 -5 15 -30 29 -58 31 -59 71 -183 63 -196 -3 -5 0 -9 5
-9 6 0 11 15 11 33 0 63 -72 237 -98 237 -7 0 -12 -3 -10 -7z"/>
<path d="M1580 2241 c-12 -24 -13 -134 0 -264 10 -104 21 -137 46 -137 13 0
14 2 1 14 -18 19 -26 86 -29 250 -2 95 1 131 10 134 7 2 10 8 6 13 -9 15 -23
10 -34 -10z"/>
<path d="M1983 2224 c-3 -8 -2 -45 1 -82 4 -37 11 -126 16 -199 4 -72 13 -139
19 -150 8 -13 9 4 5 67 -7 122 -13 198 -21 255 -3 28 -7 67 -7 88 -1 41 -4 45
-13 21z"/>
<path d="M1686 2215 c-10 -28 -7 -294 5 -361 10 -61 31 -105 43 -93 3 3 -2 21
-11 40 -14 28 -18 67 -20 227 -1 107 -4 196 -6 198 -3 3 -7 -2 -11 -11z"/>
<path d="M6090 2152 c0 -8 9 -26 20 -42 31 -43 80 -152 80 -177 0 -13 5 -23
10 -23 20 0 9 56 -25 124 -38 75 -85 140 -85 118z"/>
<path d="M1930 2125 c-26 -66 24 -395 60 -395 5 0 2 12 -5 28 -33 66 -60 333
-35 358 5 5 6 15 0 24 -7 11 -11 8 -20 -15z"/>
<path d="M6030 2134 c0 -9 22 -71 49 -137 27 -67 51 -131 53 -142 4 -17 6 -18
12 -4 4 10 -7 54 -29 110 -20 52 -44 115 -53 141 -17 48 -32 63 -32 32z"/>
<path d="M2520 2105 c-19 -23 -28 -148 -19 -261 4 -54 8 -100 9 -101 0 -2 7
-3 15 -3 18 0 20 17 3 22 -19 7 -18 286 1 321 16 31 10 45 -9 22z"/>
<path d="M2615 2068 c-9 -75 -2 -305 10 -317 7 -7 9 52 8 175 0 102 -3 188 -6
191 -3 2 -8 -19 -12 -49z"/>
<path d="M1763 2094 c-9 -24 4 -315 17 -356 11 -37 26 -55 37 -44 3 3 1 11 -5
19 -25 30 -45 377 -22 377 6 0 10 5 10 10 0 16 -30 11 -37 -6z"/>
<path d="M2397 2095 c-43 -42 -29 -335 16 -335 5 0 6 8 2 18 -27 63 -30 277
-4 308 17 20 5 29 -14 9z"/>
<path d="M2770 2035 c-11 -30 -17 -326 -6 -343 17 -29 21 -2 21 155 0 93 4
178 8 191 5 14 5 22 -3 22 -6 0 -15 -11 -20 -25z"/>
<path d="M1850 2035 c-20 -25 4 -313 30 -355 14 -23 20 -6 11 28 -5 17 -15 93
-22 167 -11 126 -11 137 6 155 15 17 16 20 3 20 -9 0 -21 -7 -28 -15z"/>
<path d="M2830 1994 c-9 -25 -11 -80 -8 -168 5 -129 17 -180 44 -190 18 -7 18
-6 -3 35 -14 27 -18 61 -18 169 0 74 3 147 8 163 11 41 -9 33 -23 -9z"/>
<path d="M5960 2005 c0 -3 18 -23 40 -46 22 -23 54 -70 71 -105 31 -62 32 -77
12 -131 -6 -15 -5 -16 9 -5 11 9 18 10 23 2 13 -21 27 3 20 37 -6 31 -2 40 26
69 18 19 29 37 25 41 -4 5 -21 -7 -37 -25 l-29 -32 -30 60 c-30 58 -99 140
-120 140 -5 0 -10 -2 -10 -5z"/>
<path d="M6762 1956 c-6 -13 -24 -75 -41 -139 -41 -151 -67 -227 -88 -249 -9
-10 -14 -21 -11 -24 3 -3 17 10 31 28 27 36 61 134 103 296 25 101 28 136 6
88z"/>
<path d="M5913 1870 c32 -28 60 -69 94 -135 31 -62 53 -94 63 -92 13 2 15 -20
15 -148 0 -152 -17 -258 -52 -327 -7 -16 -9 -28 -4 -28 14 0 51 96 68 178 18
89 21 294 5 334 -7 17 -17 26 -25 22 -9 -3 -26 21 -52 72 -41 83 -110 164
-140 164 -13 0 -5 -12 28 -40z"/>
<path d="M5810 1792 c0 -4 9 -13 19 -19 34 -22 161 -226 161 -259 0 -8 7 -14
15 -14 11 0 15 -12 15 -52 0 -55 -47 -268 -59 -268 -4 0 -17 33 -29 73 -12 39
-26 78 -31 86 -10 16 -31 6 -31 -15 0 -8 4 -13 9 -10 7 5 66 -165 65 -189 -1
-11 -6 -26 -35 -93 l-18 -43 22 7 c24 7 37 22 37 42 0 6 4 12 9 12 9 0 21 -71
21 -134 1 -32 3 -37 11 -24 9 16 -4 179 -16 198 -2 3 5 40 16 81 39 149 59
321 43 363 -3 9 -12 16 -20 16 -7 0 -32 36 -54 80 -45 85 -113 170 -136 170
-8 0 -14 -3 -14 -8z"/>
<path d="M2064 1735 c-8 -34 3 -266 17 -338 5 -28 16 -58 24 -66 13 -14 17
-13 33 3 16 18 16 19 -1 13 -30 -11 -40 37 -45 223 -4 169 -13 224 -28 165z"/>
<path d="M2928 1734 c-28 -15 -34 -28 -41 -99 -3 -22 -14 -86 -26 -143 -11
-56 -21 -116 -21 -132 0 -20 -5 -30 -16 -30 -32 0 -43 -58 -40 -226 2 -135 6
-167 22 -199 27 -56 49 -58 25 -3 -22 51 -36 148 -22 148 5 0 12 -9 16 -19 3
-11 12 -25 20 -31 21 -17 45 4 44 39 0 26 0 26 -11 4 -6 -13 -14 -23 -18 -23
-16 0 -40 80 -33 111 4 21 3 30 -4 26 -23 -14 -31 83 -11 130 l11 28 6 -30 c6
-31 31 -41 39 -16 3 8 0 11 -7 7 -14 -9 -14 -11 5 121 13 84 20 110 31 106 10
-4 13 10 15 63 0 38 0 81 -1 96 -2 20 7 36 31 58 35 32 29 38 -14 14z"/>
<path d="M2127 1713 c-12 -11 -7 -144 8 -247 19 -128 33 -176 51 -183 22 -8
29 4 11 21 -25 25 -64 298 -52 372 6 40 -1 54 -18 37z"/>
<path d="M2253 1563 c7 -166 21 -260 44 -285 14 -16 14 -21 -9 -56 -32 -47
-68 -118 -68 -132 0 -5 5 -10 10 -10 6 0 10 6 10 13 0 6 22 46 50 87 54 82 57
90 35 90 -8 0 -19 16 -24 38 -13 46 -31 243 -31 335 0 44 -4 67 -12 67 -8 0
-9 -39 -5 -147z"/>
<path d="M2339 1650 c-21 -69 17 -351 51 -383 10 -10 11 -7 6 13 -31 114 -50
390 -26 390 6 0 10 5 10 10 0 6 -7 10 -15 10 -8 0 -19 -17 -26 -40z"/>
<path d="M5730 1680 c0 -5 8 -10 18 -10 23 0 76 -56 142 -150 64 -91 59 -85
66 -77 10 9 -92 160 -139 207 -37 38 -87 55 -87 30z"/>
<path d="M3048 1645 c-28 -66 -73 -314 -61 -334 8 -12 8 -42 2 -92 -12 -105
-11 -349 1 -349 6 0 10 40 11 98 0 53 4 149 8 212 5 69 4 121 -2 130 -10 18 9
130 22 130 5 0 11 39 15 87 4 48 12 95 17 105 6 11 9 26 7 36 -2 10 -9 1 -20
-23z"/>
<path d="M2449 1654 c-27 -33 -9 -286 25 -354 11 -23 11 -30 -1 -46 -24 -32
-69 -126 -86 -179 -23 -72 -24 -97 -7 -103 8 -3 12 -1 8 3 -14 15 44 174 95
258 21 35 26 51 18 56 -21 13 -32 75 -38 208 -4 95 -2 137 6 147 7 8 8 17 3
20 -6 3 -16 -2 -23 -10z"/>
<path d="M2566 1638 c-11 -36 -20 -378 -10 -388 5 -5 10 62 12 161 2 94 8 184
13 202 5 17 5 35 0 40 -5 5 -11 -2 -15 -15z"/>
<path d="M2796 1608 c-17 -28 -59 -161 -76 -241 -12 -59 -8 -93 9 -82 6 3 8
11 5 18 -6 18 51 238 75 287 20 43 11 55 -13 18z"/>
<path d="M2656 1463 c-4 -71 -9 -146 -12 -168 -5 -30 -3 -37 5 -29 20 18 40
324 22 324 -5 0 -12 -57 -15 -127z"/>
<path d="M1953 1403 c6 -171 17 -234 45 -265 25 -29 34 -20 11 11 -30 41 -38
95 -39 269 0 107 -3 152 -11 152 -9 0 -10 -45 -6 -167z"/>
<path d="M3127 1495 c-10 -42 -16 -95 -16 -118 l1 -42 8 50 c4 28 15 78 24
111 19 72 19 74 8 74 -5 0 -16 -34 -25 -75z"/>
<path d="M5722 1548 c-7 -7 -12 -19 -12 -27 0 -12 3 -12 12 -3 21 21 34 13 82
-50 65 -88 83 -108 95 -108 14 0 14 17 1 25 -6 3 -35 40 -65 80 -46 62 -79 95
-97 95 -2 0 -9 -5 -16 -12z"/>
<path d="M2933 1383 c4 -91 7 -190 7 -220 0 -29 5 -53 10 -53 6 0 10 54 10
143 0 175 -9 297 -23 297 -7 0 -8 -57 -4 -167z"/>
<path d="M3064 1463 c-12 -80 16 -446 33 -429 3 2 0 54 -6 114 -13 130 -17
308 -7 340 4 13 3 22 -3 22 -5 0 -13 -21 -17 -47z"/>
<path d="M4366 1388 c-17 -40 -46 -238 -45 -306 1 -71 14 -25 29 98 6 58 18
134 26 169 16 72 11 91 -10 39z"/>
<path d="M5670 1411 c0 -4 18 -20 39 -34 21 -14 60 -53 86 -87 42 -54 65 -73
65 -52 0 16 -93 124 -132 152 -42 31 -58 37 -58 21z"/>
<path d="M4255 1352 c-45 -68 -77 -161 -74 -216 1 -28 -3 -69 -9 -91 -16 -56
-8 -359 11 -457 9 -42 25 -95 37 -118 18 -35 25 -41 44 -36 22 5 25 0 46 -81
19 -71 22 -102 17 -177 -3 -50 -8 -100 -12 -111 -6 -19 -6 -19 8 -2 9 11 19
51 22 93 5 48 11 71 18 67 7 -4 8 0 2 13 -4 10 -11 45 -14 76 -4 36 -13 63
-23 70 -11 9 -22 47 -33 116 -17 112 -9 161 12 69 25 -114 66 -182 88 -147 3
5 0 10 -8 10 -15 0 -30 27 -48 92 -7 23 -14 48 -15 53 -28 94 -29 125 -6 125
14 1 13 4 -7 21 -20 16 -26 32 -29 79 -4 58 12 130 29 130 5 0 9 -12 9 -27 0
-19 3 -24 11 -16 5 5 7 22 3 37 -9 39 -40 34 -55 -9 -18 -49 -45 -46 -69 8
-26 56 -26 121 0 147 24 24 26 40 4 40 -14 0 -16 8 -11 56 6 61 58 181 82 190
8 3 15 12 15 20 0 25 -19 15 -45 -24z m-35 -477 c7 -8 20 -15 29 -15 18 0 17
14 22 -230 4 -156 2 -175 -13 -178 -29 -6 -60 126 -74 313 -5 74 -4 88 7 78
16 -15 49 -17 49 -3 0 6 -7 10 -15 10 -8 0 -19 9 -25 20 -12 23 2 27 20 5z"/>
<path d="M4910 1356 c0 -16 6 -26 15 -26 17 0 59 -127 77 -231 7 -38 16 -69
21 -69 23 0 -34 250 -71 314 -23 39 -42 45 -42 12z"/>
<path d="M3175 1351 c-7 -24 -2 -382 6 -373 3 4 20 59 38 122 18 63 45 139 61
168 20 37 24 52 14 52 -16 0 -39 -43 -69 -130 l-22 -65 -8 46 c-8 53 -3 155 9
182 6 12 4 17 -7 17 -9 0 -18 -9 -22 -19z"/>
<path d="M3968 1312 c-47 -73 -110 -209 -137 -296 -24 -79 -46 -319 -31 -345
7 -13 9 -10 10 14 1 71 21 263 32 295 26 84 85 219 130 296 26 46 48 86 48 89
0 17 -20 -3 -52 -53z"/>
<path d="M4167 1298 c-14 -40 -39 -110 -56 -155 -17 -45 -27 -84 -22 -87 9 -6
121 271 121 298 0 36 -19 11 -43 -56z"/>
<path d="M5080 1360 c0 -5 14 -58 30 -117 17 -59 33 -139 37 -178 3 -43 16
-93 33 -131 25 -56 26 -61 9 -57 -25 7 -24 -1 5 -30 31 -31 41 -94 28 -176 -7
-51 -6 -61 5 -57 7 3 13 -1 13 -9 0 -29 -43 -129 -66 -151 -19 -20 -20 -25 -8
-35 11 -9 14 -8 15 2 1 8 5 -4 9 -26 8 -40 -1 -167 -19 -260 -5 -27 -6 -54 -2
-58 12 -12 30 71 42 192 6 59 19 126 30 151 11 25 28 70 38 100 11 30 20 46
20 34 1 -11 9 -28 19 -37 15 -14 21 -14 34 -4 34 27 108 193 108 239 -1 14
-10 -2 -25 -40 -37 -95 -86 -182 -103 -182 -12 0 -14 18 -11 113 4 110 4 112
-18 115 -13 2 -23 9 -23 16 0 8 -25 62 -56 121 -40 77 -54 115 -50 131 4 13 3
24 -2 24 -4 0 -9 21 -10 47 -3 71 -57 273 -73 273 -5 0 -9 -4 -9 -10z m194
-612 c-3 -5 4 -8 15 -8 26 0 26 -11 1 -111 -32 -123 -72 -226 -80 -203 -4 11
2 40 16 70 22 51 37 99 48 162 4 24 2 32 -9 32 -11 0 -15 13 -15 52 0 47 1 50
14 33 8 -11 12 -23 10 -27z m-27 -110 c-3 -8 -6 -5 -6 6 -1 11 2 17 5 13 3 -3
4 -12 1 -19z"/>
<path d="M4096 1328 c-28 -37 -120 -257 -112 -266 8 -8 8 -9 66 121 29 65 61
128 71 142 21 26 24 35 10 35 -6 0 -21 -15 -35 -32z"/>
<path d="M4453 1324 c26 -159 29 -231 14 -295 -9 -35 -21 -90 -28 -121 -7 -32
-16 -58 -20 -58 -4 0 -9 24 -11 53 -2 30 -7 50 -13 47 -14 -7 -8 -75 21 -230
37 -199 54 -270 65 -270 6 0 8 8 5 18 -11 32 -47 245 -43 249 3 2 10 -18 16
-44 15 -57 83 -207 100 -217 6 -4 9 -12 6 -17 -4 -5 4 -9 15 -9 15 0 20 5 17
14 -3 7 -8 35 -12 62 -11 78 -44 203 -77 287 -16 43 -28 87 -25 98 4 16 2 19
-10 15 -12 -5 -14 -1 -9 16 3 13 9 40 12 60 4 21 10 35 14 33 5 -3 12 9 15 27
4 18 12 39 17 46 8 9 6 12 -6 12 -12 0 -16 10 -16 38 0 34 -13 130 -26 195 -9
42 -28 33 -21 -9z m42 -559 c25 -62 78 -275 71 -282 -4 -4 -71 144 -80 177
-15 53 -29 80 -41 80 -7 0 -16 19 -20 47 -5 37 -4 48 9 55 9 5 16 17 17 26 0
10 4 6 9 -9 4 -15 20 -57 35 -94z"/>
<path d="M4800 1315 c0 -16 4 -23 14 -19 16 6 36 -40 66 -149 l20 -72 -34 -30
c-67 -59 -72 -95 -36 -269 6 -33 15 -105 20 -160 l9 -101 -4 128 c-4 120 -3
127 16 127 10 0 19 5 19 11 0 5 -4 8 -9 4 -31 -18 -69 112 -51 174 15 53 70
104 70 65 0 -9 5 -12 11 -8 10 6 8 57 -4 104 -29 116 -74 220 -93 220 -8 0
-14 -11 -14 -25z"/>
<path d="M5610 1335 c0 -3 16 -20 36 -37 43 -38 100 -118 96 -136 -2 -8 3 -21
10 -29 10 -12 13 -61 13 -192 -1 -97 -4 -188 -8 -203 -9 -33 8 -38 18 -5 12
41 18 340 7 381 -9 32 -8 42 6 62 9 13 21 22 27 20 30 -9 60 -290 37 -354 -13
-37 4 -48 44 -30 21 10 28 8 47 -11 18 -17 22 -32 20 -75 -2 -60 -24 -141 -54
-200 -12 -25 -16 -43 -10 -49 23 -23 81 162 81 258 0 81 -19 109 -69 102 l-36
-4 0 136 c0 100 -5 151 -18 192 -18 60 -43 82 -63 55 -8 -12 -13 -13 -22 -4
-9 9 -12 9 -12 -2 0 -7 -18 12 -39 42 -22 30 -51 62 -65 72 -25 16 -46 21 -46
11z"/>
<path d="M3881 1306 c-13 -14 -33 -26 -44 -28 -37 -5 -143 -166 -182 -277 -11
-33 -12 -43 -1 -53 10 -10 10 -19 -1 -51 -16 -47 -18 -243 -4 -413 6 -71 6
-126 0 -154 -16 -70 19 -189 59 -205 8 -3 24 -2 36 2 19 6 18 7 -9 12 -23 5
-35 16 -52 51 -23 43 -30 90 -15 90 4 0 14 -21 22 -47 8 -26 21 -49 28 -51 11
-3 10 2 -2 20 -32 48 -47 157 -52 368 -3 122 -1 211 4 219 17 25 32 1 32 -52
0 -71 24 -213 56 -327 14 -52 28 -123 30 -157 1 -34 8 -80 14 -102 11 -43 44
-90 55 -79 4 4 0 14 -8 22 -18 19 -33 64 -41 126 l-5 45 16 -33 c25 -49 35
-38 13 14 -11 25 -20 56 -20 68 0 12 -5 27 -10 32 -6 6 -26 73 -45 150 -26
102 -35 160 -35 221 0 82 1 84 28 95 26 11 27 12 4 16 -13 2 -30 -2 -38 -9
-11 -9 -18 -9 -26 -1 -6 6 -17 8 -26 5 -12 -5 -14 0 -8 33 10 51 33 94 51 94
7 0 17 5 21 11 4 7 -3 10 -17 9 -49 -4 -50 -2 -25 54 26 59 118 207 140 225 8
6 -8 -33 -35 -86 -45 -88 -75 -180 -53 -160 4 4 9 13 10 21 3 21 82 175 114
221 17 24 39 50 50 58 11 8 17 17 13 20 -11 11 -18 8 -42 -17z"/>
<path d="M4401 1307 c-21 -55 -45 -211 -42 -269 2 -37 16 -16 19 28 2 41 33
200 48 246 8 26 -15 22 -25 -5z"/>
<path d="M4575 1313 c3 -10 21 -73 38 -139 27 -105 30 -124 18 -138 -13 -15
-19 -4 -58 96 -24 62 -47 128 -51 147 -4 19 -14 37 -21 39 -21 7 -9 -41 49
-187 45 -113 51 -139 55 -221 4 -95 7 -106 23 -96 5 3 5 29 0 63 -10 76 -2
129 25 148 18 13 19 18 9 52 -7 21 -21 75 -32 120 -26 104 -37 133 -51 133 -7
0 -8 -7 -4 -17z"/>
<path d="M4650 1321 c0 -5 7 -15 17 -22 23 -20 58 -102 78 -189 22 -93 40
-117 30 -40 -15 113 -77 260 -110 260 -8 0 -15 -4 -15 -9z"/>
<path d="M4018 1288 c-16 -17 -40 -52 -52 -77 -37 -74 -89 -211 -83 -218 11
-10 37 6 31 20 -8 22 80 212 121 263 42 50 28 60 -17 12z"/>
<path d="M5180 1299 c0 -12 14 -65 30 -117 17 -52 33 -114 37 -139 3 -24 10
-46 16 -50 17 -10 1 93 -29 192 -14 50 -27 99 -29 109 -2 28 -25 32 -25 5z"/>
<path d="M3446 1279 c-19 -46 -48 -222 -40 -243 3 -9 11 -16 16 -16 6 0 7 8 4
17 -7 17 2 74 31 196 17 75 11 100 -11 46z"/>
<path d="M3400 1268 c-29 -47 -47 -112 -67 -244 -10 -65 -22 -114 -29 -114
-33 0 -54 -229 -35 -389 10 -90 29 -136 48 -117 4 4 2 11 -5 15 -33 20 -36
428 -3 439 6 2 11 12 11 23 0 11 4 27 10 37 5 9 20 77 34 150 16 86 34 149 50
178 28 51 16 71 -14 22z"/>
<path d="M3569 1259 c-37 -40 -128 -221 -136 -271 -3 -20 -2 -45 3 -55 4 -10
8 -128 9 -263 0 -207 3 -253 18 -297 17 -50 47 -81 66 -68 5 3 14 -9 20 -25 5
-17 14 -30 20 -30 6 0 4 14 -4 34 -24 58 -47 214 -49 333 -1 101 1 114 22 142
18 24 19 31 8 31 -9 0 -24 -12 -33 -27 -15 -23 -18 -48 -16 -153 1 -69 9 -161
17 -204 9 -44 13 -82 10 -85 -9 -9 -33 30 -44 69 -14 54 -24 180 -14 180 5 0
7 46 6 101 -3 77 -1 104 10 110 10 7 11 12 1 29 -14 21 -17 101 -6 163 5 31 9
38 24 34 26 -7 24 10 -2 18 -14 5 -25 2 -30 -6 -22 -35 -5 10 31 82 45 91 96
169 110 169 6 0 10 5 10 10 0 19 -22 10 -51 -21z m-112 -281 c-3 -8 -6 -5 -6
6 -1 11 2 17 5 13 3 -3 4 -12 1 -19z"/>
<path d="M3701 1253 c-74 -88 -153 -288 -122 -308 13 -7 41 11 41 27 0 6 -8 4
-17 -3 -15 -13 -16 -11 -10 21 10 51 92 212 127 250 19 20 27 37 22 42 -6 6
-22 -6 -41 -29z"/>
<path d="M3337 1212 c-32 -71 -87 -237 -87 -263 0 -10 5 -19 10 -19 6 0 10 8
10 18 0 22 61 206 82 247 22 44 31 75 20 75 -5 0 -21 -26 -35 -58z"/>
<path d="M5310 1259 c0 -21 118 -259 119 -240 1 18 -88 222 -106 241 -11 12
-13 12 -13 -1z"/>
<path d="M5587 1223 c16 -21 48 -64 72 -95 38 -53 71 -75 71 -47 0 5 -3 8 -8
5 -4 -2 -34 35 -67 82 -33 48 -69 88 -79 90 -15 3 -14 -3 11 -35z"/>
<path d="M5270 1246 c0 -2 11 -28 25 -58 13 -29 30 -77 36 -105 12 -51 29 -72
29 -35 0 50 -60 202 -80 202 -6 0 -10 -2 -10 -4z"/>
<path d="M5483 1225 c18 -97 97 -229 126 -211 9 6 7 12 -8 23 -27 18 -67 87
-87 149 -20 59 -39 83 -31 39z"/>
<path d="M2552 1182 c-100 -135 -157 -296 -117 -335 21 -21 39 -22 56 -1 11
13 9 14 -13 9 -22 -6 -26 -2 -32 20 -13 52 28 152 115 282 27 40 49 75 49 78
0 16 -20 -2 -58 -53z"/>
<path d="M5444 1184 c9 -70 42 -194 55 -207 15 -15 15 12 0 50 -13 34 -14 39
-34 127 -19 84 -30 100 -21 30z"/>
<path d="M2712 1123 c-30 -59 -42 -133 -42 -259 0 -117 9 -154 36 -154 13 0
13 2 -2 17 -25 26 -15 272 15 362 25 73 21 91 -7 34z"/>
<path d="M2585 1114 c-23 -49 -31 -208 -15 -301 12 -74 39 -123 67 -123 12 0
9 6 -9 23 -56 52 -66 349 -13 407 14 15 11 30 -6 30 -3 0 -14 -16 -24 -36z"/>
<path d="M2912 1123 c-13 -32 -8 -301 5 -314 20 -20 21 -9 11 66 -5 39 -7 114
-4 168 6 95 3 115 -12 80z"/>
<path d="M4016 1028 c-14 -46 -14 -81 4 -207 13 -91 27 -158 42 -188 20 -43
23 -65 25 -210 2 -178 11 -219 51 -217 21 1 22 -4 22 -67 0 -41 5 -71 12 -75
8 -5 10 24 5 117 -6 124 -20 199 -37 199 -13 0 -22 -18 -10 -22 5 -1 13 -31
18 -66 9 -67 0 -89 -25 -57 -9 14 -13 56 -13 149 l0 129 27 -24 26 -24 -23 38
c-18 32 -22 47 -17 88 4 28 2 49 -3 49 -6 0 -10 -6 -11 -12 -1 -7 -5 3 -10 22
-5 19 -11 112 -14 205 -7 197 -24 237 -26 58 l-1 -118 -14 65 c-8 36 -14 91
-12 123 3 51 -7 77 -16 45z"/>
<path d="M5228 1024 c-18 -18 -5 -77 37 -162 24 -51 49 -92 54 -92 14 0 1 32
-40 104 -17 32 -34 79 -38 107 -3 28 -9 47 -13 43z"/>
<path d="M4955 983 c4 -21 20 -76 37 -123 34 -98 33 -136 -6 -265 -14 -43 -24
-81 -22 -83 2 -2 13 16 24 40 35 72 94 366 60 301 -6 -13 -15 -23 -19 -23 -9
0 -59 150 -59 176 0 7 -5 14 -11 14 -8 0 -9 -12 -4 -37z"/>
<path d="M6021 991 c-15 -27 -14 -31 4 -25 20 8 20 -39 0 -192 -9 -64 -14
-119 -11 -121 12 -13 51 278 43 326 -5 32 -23 38 -36 12z"/>
<path d="M5601 978 c8 -14 9 -47 5 -97 -8 -94 -20 -141 -47 -175 -25 -32 -8
-35 21 -4 28 30 40 78 47 180 4 63 2 92 -7 103 -19 23 -32 18 -19 -7z"/>
<path d="M5680 981 c-14 -28 -12 -36 5 -21 13 11 15 8 15 -15 0 -67 -54 -225
-77 -225 -9 0 -12 -6 -8 -19 7 -24 -79 -143 -99 -135 -17 6 -31 -27 -15 -37
16 -9 -1 -120 -37 -241 -3 -10 -1 -18 5 -18 16 0 52 127 58 205 5 67 8 73 54
123 39 43 50 50 55 37 12 -30 -3 -218 -20 -259 -19 -46 -14 -58 9 -22 28 42
35 94 33 226 -1 114 1 132 26 200 34 93 47 220 23 220 -9 0 -21 -9 -27 -19z"/>
<path d="M3049 953 c-10 -11 -14 -49 -14 -132 0 -179 11 -239 51 -272 10 -8
15 -9 13 -4 -42 89 -42 89 -43 243 -1 119 2 154 13 161 8 5 9 11 3 15 -5 3
-16 -2 -23 -11z"/>
<path d="M4665 948 c10 -34 60 -241 80 -331 10 -47 25 -88 39 -105 13 -15 26
-36 29 -47 6 -22 -1 112 -13 220 -4 39 -3 85 1 103 9 42 -6 42 -20 -1 -10 -30
-3 -135 15 -219 3 -14 1 -29 -4 -32 -5 -3 -19 45 -31 107 -28 138 -57 263 -72
300 -14 33 -34 37 -24 5z"/>
<path d="M3187 922 c-27 -30 -39 -116 -35 -251 3 -132 12 -161 47 -161 11 0
12 3 4 8 -41 26 -48 250 -11 370 9 30 28 45 28 21 0 -5 4 -8 10 -4 12 8 1 35
-15 35 -6 0 -19 -8 -28 -18z"/>
<path d="M4530 914 c0 -8 4 -13 9 -9 14 8 66 -162 97 -312 14 -70 27 -130 30
-132 2 -2 4 13 4 33 0 89 -75 382 -108 419 -19 21 -32 22 -32 1z"/>
<path d="M4916 921 c-4 -5 0 -11 6 -13 16 -5 18 -179 4 -333 -12 -149 9 -108
27 50 13 120 10 246 -7 292 -6 15 -22 17 -30 4z"/>
<path d="M5502 845 c-27 -101 -39 -195 -24 -195 15 0 24 17 13 25 -6 3 -6 17
-1 33 18 59 42 190 38 203 -2 7 -14 -22 -26 -66z"/>
<path d="M5393 898 c-4 -7 -13 -23 -20 -36 -11 -21 -11 -23 7 -17 25 8 25 3
-5 -120 -27 -109 -29 -125 -17 -125 9 0 62 239 62 277 0 26 -15 38 -27 21z"/>
<path d="M3360 833 c-17 -57 -10 -424 9 -446 7 -10 18 -17 23 -17 6 0 4 7 -3
17 -18 21 -26 402 -10 430 9 16 10 15 11 -7 0 -18 3 -21 9 -11 10 16 -1 63
-16 68 -7 3 -17 -13 -23 -34z"/>
<path d="M3855 861 c-3 -6 6 -16 20 -21 34 -13 60 -71 89 -203 34 -151 41
-223 23 -241 -31 -31 -52 -311 -24 -334 9 -8 11 6 8 69 -4 88 16 252 30 243 5
-3 9 -36 9 -75 0 -39 4 -69 10 -69 24 0 2 256 -35 424 -27 120 -70 209 -103
214 -11 2 -23 -2 -27 -7z"/>
<path d="M5121 809 c-44 -216 -60 -333 -42 -314 14 16 72 348 62 358 -6 6 -14
-12 -20 -44z"/>
<path d="M3837 823 c-3 -5 1 -37 9 -73 19 -90 34 -364 27 -489 -4 -68 -3 -102
4 -98 27 17 21 459 -8 587 -7 32 -7 46 1 48 8 3 7 8 -1 18 -13 15 -25 18 -32
7z"/>
<path d="M5791 628 c-12 -84 -28 -159 -33 -165 -7 -9 -7 -13 0 -13 22 0 34 34
53 147 20 125 24 183 11 183 -4 0 -18 -69 -31 -152z"/>
<path d="M5716 698 c-21 -34 -31 -72 -16 -63 6 4 15 17 20 29 8 19 9 18 9 -9
0 -16 -6 -79 -14 -140 -18 -132 -18 -132 -4 -118 14 14 39 173 39 250 0 68
-12 86 -34 51z"/>
<path d="M5397 524 c-12 -13 -7 -24 8 -18 29 11 28 -29 -4 -153 -18 -69 -29
-128 -26 -131 8 -8 9 -4 39 113 29 118 32 188 6 193 -9 1 -19 0 -23 -4z"/>
<path d="M3214 484 c-23 -91 90 -328 179 -376 13 -6 2 10 -24 40 -26 28 -66
91 -90 139 -39 78 -44 96 -44 155 0 69 -10 88 -21 42z"/>
<path d="M4444 450 c3 -14 6 -107 6 -208 0 -120 3 -181 10 -177 6 4 10 78 10
189 0 151 -3 186 -16 202 -15 18 -15 18 -10 -6z"/>
<path d="M5303 405 c-2 -46 -33 -197 -50 -242 -3 -7 0 -13 6 -13 22 0 82 258
68 294 -12 31 -22 15 -24 -39z"/>
<path d="M4648 348 c1 -40 -3 -121 -11 -180 -7 -60 -10 -108 -5 -108 9 0 15
23 28 123 15 113 13 237 -3 237 -9 0 -12 -19 -9 -72z"/>
<path d="M4927 413 c-13 -12 -7 -25 8 -19 37 14 45 -185 11 -312 -10 -41 -10
-51 -1 -40 24 26 37 84 42 193 4 87 2 118 -10 148 -15 34 -34 46 -50 30z"/>
<path d="M4562 398 c-17 -17 -15 -28 5 -28 14 0 15 -12 9 -112 -3 -62 -10
-130 -15 -150 -5 -21 -5 -38 0 -38 28 0 53 290 27 323 -10 14 -16 15 -26 5z"/>
<path d="M5089 405 c-1 -5 -1 -32 0 -60 2 -45 -20 -212 -35 -275 l-6 -25 16
22 c34 45 61 295 36 333 -5 8 -10 11 -11 5z"/>
<path d="M4776 383 c-3 -10 -10 -60 -16 -110 -6 -51 -17 -121 -25 -155 -14
-62 -12 -86 5 -58 17 28 62 340 49 340 -4 0 -10 -8 -13 -17z"/>
<path d="M4860 248 c0 -86 -3 -165 -6 -175 -6 -15 -4 -16 6 -6 18 17 28 292
12 319 -9 14 -11 -20 -12 -138z"/>
<path d="M4052 210 c3 -103 7 -133 20 -146 15 -16 16 -14 8 22 -5 21 -10 87
-10 147 0 72 -4 107 -11 107 -8 0 -10 -38 -7 -130z"/>
</g>
</svg>
